<svg width="20" height="20" viewBox="0 0 20 20" fill="none" xmlns="http://www.w3.org/2000/svg">
<g clip-path="url(#clip0_2_40815)">
<path d="M9.99175 1.66669C5.39175 1.66669 1.66675 5.40002 1.66675 10C1.66675 14.6 5.39175 18.3334 9.99175 18.3334C14.6001 18.3334 18.3334 14.6 18.3334 10C18.3334 5.40002 14.6001 1.66669 9.99175 1.66669ZM10.0001 16.6667C6.31675 16.6667 3.33341 13.6834 3.33341 10C3.33341 6.31669 6.31675 3.33335 10.0001 3.33335C13.6834 3.33335 16.6667 6.31669 16.6667 10C16.6667 13.6834 13.6834 16.6667 10.0001 16.6667ZM9.81675 5.83335H9.76675C9.43342 5.83335 9.16675 6.10002 9.16675 6.43335V10.3667C9.16675 10.6584 9.31675 10.9334 9.57508 11.0834L13.0334 13.1584C13.3167 13.325 13.6834 13.2417 13.8501 12.9584C14.0251 12.675 13.9334 12.3 13.6417 12.1334L10.4167 10.2167V6.43335C10.4167 6.10002 10.1501 5.83335 9.81675 5.83335Z" fill="#2B6ED4"/>
</g>
<defs>
<clipPath id="clip0_2_40815">
<rect width="20" height="20" fill="white"/>
</clipPath>
</defs>
</svg>
