<svg width="28" height="87" viewBox="0 0 28 87" fill="none" xmlns="http://www.w3.org/2000/svg">
<path fill-rule="evenodd" clip-rule="evenodd" d="M0 0H27.6835V1.91498H0V0ZM0 85.085H27.6835V87H0V85.085ZM0 77.0821H27.6835V78.9971H0V77.0821ZM0 70.1208H27.6835V72.0358H0V70.1208ZM0 63.1627H27.6835V65.0777H0V63.1627ZM0 56.2014H27.6835V58.1164H0V56.2014ZM0 49.2434H27.6835V51.1583H0V49.2434ZM0 42.2821H27.6835V44.1971H0V42.2821ZM0 35.3208H27.6835V37.2358H0V35.3208ZM0 28.3627H27.6835V30.2777H0V28.3627ZM0 20.8806H27.6835V22.7924H0V20.8806ZM0 13.9194H27.6835V15.8343H0V13.9194ZM0 6.96127H27.6835V8.87625H0V6.96127Z" fill="#E5E9FC"/>
</svg>
