<svg width="50" height="26" viewBox="0 0 50 26" fill="none" xmlns="http://www.w3.org/2000/svg">
<path d="M20.8762 13.0363H3.89697V20.8291H20.8762V13.0363Z" fill="#1D1B21"/>
<path d="M31.7252 1.43158H0.949951V20.8291H6.57288C6.56674 20.7299 6.56265 20.6297 6.56265 20.5285C6.56265 17.9282 8.6701 15.8207 11.2704 15.8207C13.8707 15.8207 15.9782 17.9282 15.9782 20.5285C15.9782 20.6297 15.9741 20.7289 15.9679 20.8291H31.7252V1.43158Z" fill="#2B6ED4"/>
<path d="M47.1286 13.0363H30.1494V20.8291H47.1286V13.0363Z" fill="#1D1B21"/>
<path d="M37.1231 20.8291C37.2919 18.4261 39.293 16.5293 41.7389 16.5293C43.7942 16.5293 45.5366 17.8698 46.1399 19.7237H49.3537V13.565C49.3159 11.9453 47.8219 11.4156 47.8219 11.4156L44.1377 10.6292L40.9904 1.44482H29.356V20.8291H37.1231Z" fill="#2B6ED4"/>
<path d="M41.7664 9.61596L39.6191 3.34985H33.6086V9.61596H41.7664Z" fill="#A8E0FB"/>
<path d="M37.5812 12.2234C37.5812 12.0087 37.388 11.8348 37.1497 11.8348H35.576C35.3378 11.8348 35.1445 12.0087 35.1445 12.2234C35.1445 12.4381 35.3378 12.612 35.576 12.612H37.1497C37.388 12.612 37.5812 12.4381 37.5812 12.2234Z" fill="white"/>
<path d="M41.0068 1.45711H0.949951V0H38.976C38.976 0 40.3953 0.273017 41.0068 1.45711Z" fill="#1F60C3"/>
<path d="M11.2703 25.2219C13.523 25.2219 15.3492 23.3957 15.3492 21.143C15.3492 18.8903 13.523 17.0641 11.2703 17.0641C9.01759 17.0641 7.19141 18.8903 7.19141 21.143C7.19141 23.3957 9.01759 25.2219 11.2703 25.2219Z" fill="#312E37"/>
<path d="M11.2705 15.4965C8.15173 15.4965 5.62402 18.0242 5.62402 21.143C5.62402 21.2442 5.62709 21.3434 5.6322 21.4436H6.57396C6.56782 21.3444 6.56373 21.2442 6.56373 21.143C6.56373 18.5427 8.67118 16.4352 11.2715 16.4352C13.8718 16.4352 15.9793 18.5427 15.9793 21.143C15.9793 21.2442 15.9752 21.3434 15.969 21.4436H16.9108C16.9159 21.3444 16.919 21.2442 16.919 21.143C16.9169 18.0242 14.3892 15.4965 11.2705 15.4965Z" fill="#1F60C3"/>
<path d="M11.2705 23.8732C12.7783 23.8732 14.0006 22.6508 14.0006 21.143C14.0006 19.6352 12.7783 18.4128 11.2705 18.4128C9.76262 18.4128 8.54028 19.6352 8.54028 21.143C8.54028 22.6508 9.76262 23.8732 11.2705 23.8732Z" fill="#5C5963"/>
<path d="M11.2705 23.5419C12.5953 23.5419 13.6693 22.4679 13.6693 21.143C13.6693 19.8182 12.5953 18.7441 11.2705 18.7441C9.94559 18.7441 8.87158 19.8182 8.87158 21.143C8.87158 22.4679 9.94559 23.5419 11.2705 23.5419Z" fill="#E9E8ED"/>
<path d="M11.2705 22.6257C12.0894 22.6257 12.7532 21.9619 12.7532 21.143C12.7532 20.3242 12.0894 19.6603 11.2705 19.6603C10.4517 19.6603 9.78784 20.3242 9.78784 21.143C9.78784 21.9619 10.4517 22.6257 11.2705 22.6257Z" fill="#312E37"/>
<path d="M11.2704 19.4947C11.3862 19.4947 11.48 19.4008 11.48 19.2851C11.48 19.1693 11.3862 19.0754 11.2704 19.0754C11.1546 19.0754 11.0608 19.1693 11.0608 19.2851C11.0608 19.4008 11.1546 19.4947 11.2704 19.4947Z" fill="#5C5963"/>
<path d="M11.2704 23.2116C11.3862 23.2116 11.48 23.1177 11.48 23.002C11.48 22.8862 11.3862 22.7924 11.2704 22.7924C11.1546 22.7924 11.0608 22.8862 11.0608 23.002C11.0608 23.1177 11.1546 23.2116 11.2704 23.2116Z" fill="#5C5963"/>
<path d="M10.5229 19.4293C10.4646 19.3291 10.3368 19.2943 10.2356 19.3526C10.1354 19.4109 10.1006 19.5387 10.1589 19.6399C10.2172 19.7401 10.345 19.7749 10.4462 19.7166C10.5465 19.6573 10.5812 19.5295 10.5229 19.4293Z" fill="#5C5963"/>
<path d="M12.3808 22.6482C12.3226 22.548 12.1947 22.5132 12.0935 22.5715C11.9933 22.6298 11.9585 22.7576 12.0168 22.8588C12.0751 22.959 12.2029 22.9938 12.3042 22.9355C12.4054 22.8772 12.4391 22.7484 12.3808 22.6482Z" fill="#5C5963"/>
<path d="M9.76533 20.0325C9.66513 19.9742 9.53629 20.009 9.478 20.1092C9.41972 20.2094 9.45448 20.3382 9.55469 20.3965C9.6549 20.4548 9.78374 20.42 9.84202 20.3198C9.90031 20.2186 9.86657 20.0898 9.76533 20.0325Z" fill="#5C5963"/>
<path d="M12.9853 21.8905C12.8851 21.8322 12.7563 21.867 12.698 21.9672C12.6397 22.0674 12.6745 22.1962 12.7747 22.2545C12.8749 22.3128 13.0037 22.278 13.062 22.1778C13.1193 22.0776 13.0855 21.9488 12.9853 21.8905Z" fill="#5C5963"/>
<path d="M9.41152 21.3527C9.52729 21.3527 9.62114 21.2588 9.62114 21.143C9.62114 21.0273 9.52729 20.9334 9.41152 20.9334C9.29575 20.9334 9.2019 21.0273 9.2019 21.143C9.2019 21.2588 9.29575 21.3527 9.41152 21.3527Z" fill="#5C5963"/>
<path d="M13.1286 21.3527C13.2443 21.3527 13.3382 21.2588 13.3382 21.143C13.3382 21.0273 13.2443 20.9334 13.1286 20.9334C13.0128 20.9334 12.9189 21.0273 12.9189 21.143C12.9189 21.2588 13.0128 21.3527 13.1286 21.3527Z" fill="#5C5963"/>
<path d="M9.55567 21.8905C9.45546 21.9488 9.42069 22.0766 9.47898 22.1778C9.53726 22.278 9.66508 22.3128 9.76631 22.2545C9.86652 22.1962 9.90129 22.0684 9.843 21.9672C9.78472 21.867 9.65588 21.8322 9.55567 21.8905Z" fill="#5C5963"/>
<path d="M12.7747 20.0325C12.6745 20.0908 12.6397 20.2186 12.698 20.3199C12.7563 20.4201 12.8841 20.4549 12.9853 20.3966C13.0855 20.3383 13.1203 20.2105 13.062 20.1092C13.0037 20.008 12.8749 19.9743 12.7747 20.0325Z" fill="#5C5963"/>
<path d="M10.1589 22.6482C10.1006 22.7484 10.1354 22.8772 10.2356 22.9355C10.3358 22.9938 10.4646 22.959 10.5229 22.8588C10.5812 22.7586 10.5465 22.6298 10.4462 22.5715C10.345 22.5132 10.2172 22.5469 10.1589 22.6482Z" fill="#5C5963"/>
<path d="M12.0178 19.4292C11.9595 19.5295 11.9943 19.6583 12.0945 19.7166C12.1947 19.7749 12.3235 19.7401 12.3818 19.6399C12.4401 19.5397 12.4053 19.4108 12.3051 19.3526C12.2039 19.2943 12.0751 19.328 12.0178 19.4292Z" fill="#5C5963"/>
<path d="M41.7461 25.2219C43.9989 25.2219 45.825 23.3957 45.825 21.143C45.825 18.8903 43.9989 17.0641 41.7461 17.0641C39.4934 17.0641 37.6672 18.8903 37.6672 21.143C37.6672 23.3957 39.4934 25.2219 41.7461 25.2219Z" fill="#312E37"/>
<path d="M41.7461 15.4638C38.6089 15.4638 36.0669 18.0069 36.0669 21.143C36.0669 21.2442 36.07 21.3434 36.0751 21.4436H37.1211C37.115 21.3444 37.1099 21.2442 37.1099 21.143C37.1099 18.5866 39.1815 16.515 41.7379 16.515C43.7932 16.515 45.5356 17.8555 46.1389 19.7094H47.2432C46.6082 17.2676 44.3883 15.4638 41.7461 15.4638Z" fill="#1F60C3"/>
<path d="M41.746 23.8732C43.2539 23.8732 44.4762 22.6508 44.4762 21.143C44.4762 19.6352 43.2539 18.4128 41.746 18.4128C40.2382 18.4128 39.0159 19.6352 39.0159 21.143C39.0159 22.6508 40.2382 23.8732 41.746 23.8732Z" fill="#5C5963"/>
<path d="M41.746 23.5419C43.0709 23.5419 44.1449 22.4679 44.1449 21.143C44.1449 19.8182 43.0709 18.7441 41.746 18.7441C40.4212 18.7441 39.3472 19.8182 39.3472 21.143C39.3472 22.4679 40.4212 23.5419 41.746 23.5419Z" fill="#E9E8ED"/>
<path d="M41.7461 22.6257C42.565 22.6257 43.2288 21.9619 43.2288 21.143C43.2288 20.3242 42.565 19.6603 41.7461 19.6603C40.9272 19.6603 40.2634 20.3242 40.2634 21.143C40.2634 21.9619 40.9272 22.6257 41.7461 22.6257Z" fill="#312E37"/>
<path d="M41.7462 19.4947C41.862 19.4947 41.9559 19.4008 41.9559 19.2851C41.9559 19.1693 41.862 19.0754 41.7462 19.0754C41.6305 19.0754 41.5366 19.1693 41.5366 19.2851C41.5366 19.4008 41.6305 19.4947 41.7462 19.4947Z" fill="#5C5963"/>
<path d="M41.7462 23.2116C41.862 23.2116 41.9559 23.1177 41.9559 23.002C41.9559 22.8862 41.862 22.7924 41.7462 22.7924C41.6305 22.7924 41.5366 22.8862 41.5366 23.002C41.5366 23.1177 41.6305 23.2116 41.7462 23.2116Z" fill="#5C5963"/>
<path d="M40.9997 19.4293C40.9415 19.3291 40.8136 19.2943 40.7124 19.3526C40.6122 19.4109 40.5774 19.5387 40.6357 19.6399C40.694 19.7401 40.8218 19.7749 40.923 19.7166C41.0233 19.6573 41.057 19.5295 40.9997 19.4293Z" fill="#5C5963"/>
<path d="M42.8576 22.6482C42.7994 22.548 42.6715 22.5132 42.5703 22.5715C42.4701 22.6298 42.4353 22.7576 42.4936 22.8588C42.5519 22.959 42.6797 22.9938 42.781 22.9355C42.8812 22.8772 42.9159 22.7484 42.8576 22.6482Z" fill="#5C5963"/>
<path d="M40.2421 20.0325C40.1419 19.9742 40.0131 20.009 39.9548 20.1092C39.8965 20.2094 39.9313 20.3382 40.0315 20.3965C40.1317 20.4548 40.2605 20.42 40.3188 20.3198C40.3771 20.2186 40.3423 20.0898 40.2421 20.0325Z" fill="#5C5963"/>
<path d="M43.4611 21.8905C43.3609 21.8322 43.2321 21.867 43.1738 21.9672C43.1155 22.0674 43.1503 22.1962 43.2505 22.2545C43.3507 22.3128 43.4795 22.278 43.5378 22.1778C43.5961 22.0776 43.5613 21.9488 43.4611 21.8905Z" fill="#5C5963"/>
<path d="M39.9671 21.3358C40.0739 21.2913 40.1244 21.1685 40.0799 21.0617C40.0354 20.9548 39.9126 20.9043 39.8058 20.9488C39.6989 20.9934 39.6484 21.1161 39.6929 21.223C39.7375 21.3298 39.8602 21.3803 39.9671 21.3358Z" fill="#5C5963"/>
<path d="M43.6051 21.3526C43.7209 21.3526 43.8147 21.2587 43.8147 21.143C43.8147 21.0272 43.7209 20.9333 43.6051 20.9333C43.4894 20.9333 43.3955 21.0272 43.3955 21.143C43.3955 21.2587 43.4894 21.3526 43.6051 21.3526Z" fill="#5C5963"/>
<path d="M40.0325 21.8905C39.9323 21.9488 39.8975 22.0766 39.9558 22.1778C40.0141 22.278 40.1419 22.3128 40.2431 22.2545C40.3433 22.1962 40.3781 22.0684 40.3198 21.9672C40.2615 21.867 40.1327 21.8322 40.0325 21.8905Z" fill="#5C5963"/>
<path d="M43.2515 20.0325C43.1513 20.0908 43.1165 20.2186 43.1748 20.3198C43.2331 20.42 43.3609 20.4548 43.4621 20.3965C43.5623 20.3382 43.5971 20.2104 43.5388 20.1092C43.4805 20.009 43.3517 19.9742 43.2515 20.0325Z" fill="#5C5963"/>
<path d="M40.6357 22.6482C40.5774 22.7484 40.6122 22.8772 40.7124 22.9355C40.8126 22.9938 40.9415 22.959 40.9997 22.8588C41.058 22.7586 41.0233 22.6298 40.923 22.5715C40.8218 22.5132 40.693 22.5469 40.6357 22.6482Z" fill="#5C5963"/>
<path d="M42.4936 19.4292C42.4353 19.5295 42.4701 19.6583 42.5703 19.7166C42.6705 19.7749 42.7994 19.7401 42.8576 19.6399C42.9159 19.5397 42.8812 19.4108 42.781 19.3526C42.6808 19.2943 42.5519 19.328 42.4936 19.4292Z" fill="#5C5963"/>
<path d="M30.9961 20.8403V1.04297" stroke="#1F60C3" stroke-width="2.8347" stroke-miterlimit="10"/>
<path d="M0.950928 14.5783H31.0524" stroke="#1F60C3" stroke-width="2.8347" stroke-miterlimit="10"/>
<path d="M39.6191 3.34985L33.6086 9.61596H41.7664L39.6191 3.34985Z" fill="#A8E0FB"/>
<path d="M33.6086 3.34985V9.61596L39.6191 3.34985H33.6086Z" fill="#89D7F9"/>
<path d="M6.26914 19.8209C6.26914 19.6767 6.14235 19.5601 5.98488 19.5601H0.588953C0.432505 19.5601 0.304688 19.6767 0.304688 19.8209V20.5612C0.304688 20.7054 0.431482 20.8219 0.588953 20.8219H5.9859C6.14235 20.8219 6.27017 20.7054 6.27017 20.5612V19.8209H6.26914Z" fill="#1F60C3"/>
<path d="M36.6559 19.5591H17.3157C16.7819 19.5591 16.3494 19.6757 16.3494 19.8198V20.5601C16.3494 20.7043 16.7819 20.8209 17.3157 20.8209H36.6559V19.5591Z" fill="#1F60C3"/>
<path d="M1.01231 16.4894H0V18.8403H1.01231V16.4894Z" fill="#1F60C3"/>
<path d="M50 18.7584C50 18.5396 49.865 18.3617 49.6984 18.3617H46.4354C46.2688 18.3617 46.1338 18.5396 46.1338 18.7584V19.5846C46.1338 19.8035 46.2688 19.9814 46.4354 19.9814H49.6984C49.865 19.9814 50 19.8035 50 19.5846V18.7584Z" fill="#1F60C3"/>
</svg>
