<svg width="36" height="23" viewBox="0 0 36 23" fill="none" xmlns="http://www.w3.org/2000/svg">
<g clip-path="url(#clip0_2_21756)">
<path d="M0.425548 14.5729H21.7951C21.8802 14.5729 21.9511 14.5016 21.9511 14.4106V0.162249C21.9488 0.0712912 21.8802 0 21.7951 0H0.425548C0.338084 0 0.269531 0.0712912 0.269531 0.162249V14.4106C0.269531 14.4991 0.338084 14.5729 0.425548 14.5729Z" fill="#999999"/>
<path d="M29.1537 16.0085C27.3288 16.0085 25.8442 17.5524 25.8442 19.4502C25.8442 21.348 27.3288 22.8918 29.1537 22.8918C30.9786 22.8918 32.4631 21.348 32.4631 19.4502C32.4631 17.5524 30.9786 16.0085 29.1537 16.0085ZM29.1537 21.0948C28.2814 21.0948 27.5699 20.3573 27.5699 19.4477C27.5699 18.5406 28.279 17.8007 29.1537 17.8007C30.026 17.8007 30.7375 18.5382 30.7375 19.4477C30.7351 20.3573 30.026 21.0948 29.1537 21.0948Z" fill="#999999"/>
<path d="M7.17224 16.1167C5.34732 16.1167 3.86279 17.6606 3.86279 19.5584C3.86279 21.4562 5.34732 23 7.17224 23C8.99716 23 10.4817 21.4562 10.4817 19.5584C10.4817 17.6606 8.99716 16.1167 7.17224 16.1167ZM7.17224 21.203C6.29996 21.203 5.58843 20.4655 5.58843 19.5559C5.58843 18.6488 6.2976 17.9088 7.17224 17.9088C8.04451 17.9088 8.75604 18.6463 8.75604 19.5559C8.75604 20.4655 8.04451 21.203 7.17224 21.203Z" fill="#999999"/>
<path d="M5.21001 15.7627C5.26911 15.7258 5.29747 15.6496 5.27856 15.5808C5.25965 15.512 5.19819 15.4628 5.12964 15.4628H0.156017C0.0685528 15.4628 0 15.5341 0 15.625V17.749C0 17.8375 0.0685528 17.9113 0.156017 17.9113H3.41109C3.47492 17.9113 3.53165 17.8695 3.55529 17.808C3.87441 16.9648 4.46302 16.2396 5.21001 15.7627Z" fill="#999999"/>
<path d="M35.3021 15.4628H31.2646C31.1937 15.4628 31.1346 15.512 31.1157 15.5808C31.0968 15.6496 31.1251 15.7258 31.1842 15.7627C32.3969 16.5371 33.1226 17.8793 33.1226 19.3494C33.1226 19.5018 33.1108 19.669 33.0895 19.8558C33.0848 19.9025 33.099 19.9468 33.1273 19.9836C33.1581 20.0181 33.1983 20.0377 33.2432 20.0377H35.2998C35.3849 20.0377 35.4558 19.9664 35.4558 19.8755V15.625C35.4581 15.5341 35.3872 15.4628 35.3021 15.4628Z" fill="#999999"/>
<path d="M27.0407 15.9053C27.1352 15.8488 27.1967 15.7455 27.1967 15.6251C27.1967 15.4456 27.0572 15.3006 26.8847 15.3006H9.51008C9.37061 15.3006 9.24769 15.3964 9.20987 15.5366C9.17205 15.6767 9.22878 15.8242 9.34697 15.9004C10.5147 16.6453 11.2121 17.9359 11.2121 19.3494C11.2121 19.4969 11.2026 19.6567 11.1814 19.8362C11.1719 19.9271 11.1979 20.0205 11.257 20.0894C11.3161 20.1582 11.4012 20.1975 11.491 20.1975H24.9061C24.9936 20.1975 25.081 20.1582 25.1378 20.0894C25.1968 20.0205 25.2252 19.9271 25.2134 19.8362C25.1921 19.6542 25.1827 19.4969 25.1827 19.3494C25.1827 17.9383 25.8776 16.6502 27.0407 15.9053Z" fill="#999999"/>
<path d="M30.2812 2.54929H24.5606C23.5205 2.54929 22.8491 3.09012 22.8491 3.92594V14.4107C22.8491 14.4992 22.9177 14.5729 23.0051 14.5729H35.3045C35.3896 14.5729 35.4605 14.5016 35.4605 14.4107V11.3328C35.4581 9.6194 32.6309 2.54929 30.2812 2.54929ZM25.3738 10.8879V5.05923H29.6831C30.9549 5.05923 32.6853 8.69508 32.768 10.8879H25.3738Z" fill="#999999"/>
</g>
<defs>
<clipPath id="clip0_2_21756">
<rect width="35.4583" height="23" fill="white"/>
</clipPath>
</defs>
</svg>
