<svg width="11" height="20" viewBox="0 0 11 20" fill="none" xmlns="http://www.w3.org/2000/svg">
<path d="M3.01572 11.2916C2.93722 11.2916 1.29047 11.2921 0.530973 11.2914C0.139973 11.2911 0.000473347 11.1506 0.000473347 10.7571C-2.66523e-05 9.7464 -0.000276652 8.73565 0.000473347 7.7249C0.000723347 7.3364 0.148223 7.18815 0.534223 7.1879C1.29372 7.1874 2.93147 7.18765 3.01572 7.18765C3.01572 7.1184 3.01547 5.65915 3.01572 4.98715C3.01622 3.99365 3.19347 3.04265 3.69822 2.1719C4.21497 1.28065 4.96697 0.670154 5.93072 0.317154C6.54797 0.0909041 7.18872 0.000654262 7.84372 0.000154262C8.66322 -0.000345738 9.48272 0.000404254 10.3025 0.00190425C10.6547 0.00240425 10.811 0.158154 10.8117 0.512904C10.8132 1.46365 10.8132 2.4144 10.8117 3.3649C10.8112 3.7234 10.6615 3.8674 10.3012 3.8714C9.62947 3.87865 8.95722 3.87415 8.28622 3.90115C7.60847 3.90115 7.25197 4.23215 7.25197 4.93365C7.23572 5.67565 7.24522 6.4184 7.24522 7.1874C7.30872 7.1874 9.23747 7.18715 10.139 7.1874C10.5485 7.1874 10.6885 7.32815 10.6885 7.7399C10.6885 8.74515 10.6882 9.75065 10.6875 10.7559C10.6872 11.1616 10.5557 11.2911 10.1437 11.2914C9.24222 11.2919 7.32097 11.2916 7.23697 11.2916V19.4279C7.23697 19.8616 7.10047 19.9999 6.67247 19.9999C5.62897 19.9999 4.58522 20.0001 3.54172 19.9999C3.16347 19.9999 3.01597 19.8529 3.01597 19.4746C3.01572 16.8249 3.01572 11.3846 3.01572 11.2916Z" fill="#3D6AD6"/>
</svg>
