<svg width="24" height="24" viewBox="0 0 24 24" fill="none" xmlns="http://www.w3.org/2000/svg">
<g clip-path="url(#clip0_2_21920)">
<path d="M14 9.99996V8.47996C14 7.76996 13.29 7.28996 12.63 7.54996L9 8.99996V8.51996C9 7.79996 8.27 7.30996 7.61 7.59996L3.21 9.47996C2.48 9.79996 2 10.52 2 11.32V20C2 21.1 2.9 22 4 22H20C21.1 22 22 21.1 22 20V9.99996H14ZM9 17C9 17.55 8.55 18 8 18C7.45 18 7 17.55 7 17V15C7 14.45 7.45 14 8 14C8.55 14 9 14.45 9 15V17ZM13 17C13 17.55 12.55 18 12 18C11.45 18 11 17.55 11 17V15C11 14.45 11.45 14 12 14C12.55 14 13 14.45 13 15V17ZM17 17C17 17.55 16.55 18 16 18C15.45 18 15 17.55 15 17V15C15 14.45 15.45 14 16 14C16.55 14 17 14.45 17 15V17Z" fill="#2B6ED4"/>
<path d="M20.1202 2H18.8902C18.3802 2 17.9602 2.38 17.9002 2.88L17.2002 8.5H21.8002L21.1102 2.88C21.0502 2.38 20.6202 2 20.1202 2Z" fill="#2B6ED4"/>
</g>
<defs>
<clipPath id="clip0_2_21920">
<rect width="24" height="24" fill="white"/>
</clipPath>
</defs>
</svg>
