<svg width="23" height="24" viewBox="0 0 23 24" fill="none" xmlns="http://www.w3.org/2000/svg">
<path d="M22.5962 10.7995L12.0635 0.266776C11.7078 -0.0889254 11.1347 -0.0889254 10.779 0.266776L0.266048 10.7995C-0.307027 11.3726 0.107958 12.3606 0.918168 12.3606H1.53076C2.04456 12.3606 2.43978 12.7756 2.43978 13.2697V23.0712C2.43978 23.585 2.85477 23.9802 3.3488 23.9802H8.54599C8.56575 23.9802 8.56575 23.9605 8.56575 23.9605V21.8065C8.56575 20.2454 9.73167 18.8225 11.3126 18.7633C12.9527 18.6842 14.3163 20.0082 14.3163 21.6286V23.9802C14.3163 24 14.336 24 14.336 24H19.5332C20.047 24 20.4422 23.585 20.4422 23.091V13.2697C20.4422 12.7559 20.8572 12.3606 21.3513 12.3606H21.9639C22.7543 12.3606 23.1693 11.3726 22.5962 10.7995Z" fill="#5988F4"/>
</svg>
