<svg width="16" height="16" viewBox="0 0 16 16" fill="none" xmlns="http://www.w3.org/2000/svg">
<g clip-path="url(#clip0_2_23120)">
<path d="M7.99992 1.33337C4.31992 1.33337 1.33325 4.32004 1.33325 8.00004C1.33325 11.68 4.31992 14.6667 7.99992 14.6667C11.6799 14.6667 14.6666 11.68 14.6666 8.00004C14.6666 4.32004 11.6799 1.33337 7.99992 1.33337ZM7.99992 11.3334C7.63325 11.3334 7.33325 11.0334 7.33325 10.6667V8.00004C7.33325 7.63337 7.63325 7.33337 7.99992 7.33337C8.36659 7.33337 8.66659 7.63337 8.66659 8.00004V10.6667C8.66659 11.0334 8.36659 11.3334 7.99992 11.3334ZM8.66659 6.00004H7.33325V4.66671H8.66659V6.00004Z" fill="#7E8389"/>
</g>
<defs>
<clipPath id="clip0_2_23120">
<rect width="16" height="16" fill="white"/>
</clipPath>
</defs>
</svg>
