<svg width="9" height="74" viewBox="0 0 9 74" fill="none" xmlns="http://www.w3.org/2000/svg">
<path fill-rule="evenodd" clip-rule="evenodd" d="M0 38.5888H8.22075V40.5111H0V38.5888ZM0 0H8.22075V1.92232H0V0ZM0 19.0683H8.22075V20.9906H0V19.0683ZM0 33.4921H8.22075V35.4144H0V33.4921ZM0 28.6831H8.22075V30.6054H0V28.6831ZM0 23.8741H8.22075V25.7964H0V23.8741ZM0 14.4238H8.22075V16.3461H0V14.4238ZM0 9.61794H8.22075V11.5403H0V9.61794ZM0 4.80897H8.22075V6.7313H0V4.80897ZM0 57.6539H8.22075V59.5762H0V57.6539ZM0 72.0777H8.22075V74H0V72.0777ZM0 67.2719H8.22075V69.1942H0V67.2719ZM0 62.4629H8.22075V64.3852H0V62.4629ZM0 53.0125H8.22075V54.9348H0V53.0125ZM0 48.2035H8.22075V50.1259H0V48.2035ZM0 43.3977H8.22075V45.3201H0V43.3977Z" fill="#CBD1F2"/>
</svg>
