<svg width="286" height="175" viewBox="0 0 286 175" fill="none" xmlns="http://www.w3.org/2000/svg">
<path d="M277.039 131.718L31.1953 131.718L31.1953 111.052L277.039 111.052V131.718Z" fill="#6275BA"/>
<path d="M69.4034 175C56.6907 175 46.385 164.682 46.385 151.955C46.385 139.227 56.6907 128.91 69.4034 128.91C82.1162 128.91 92.4219 139.227 92.4219 151.955C92.4219 164.682 82.1162 175 69.4034 175Z" fill="#040C2B"/>
<path d="M69.4036 167.98C60.5629 167.98 53.3961 160.806 53.3961 151.955C53.3961 143.104 60.5629 135.929 69.4036 135.929C78.2443 135.929 85.4111 143.104 85.4111 151.955C85.4111 160.806 78.2443 167.98 69.4036 167.98Z" fill="white"/>
<path d="M69.4038 160.962C64.4351 160.962 60.4072 156.93 60.4072 151.955C60.4072 146.98 64.4351 142.948 69.4038 142.948C74.3725 142.948 78.4004 146.98 78.4004 151.955C78.4004 156.93 74.3725 160.962 69.4038 160.962Z" fill="#040C2B"/>
<path d="M239.454 175C226.741 175 216.436 164.682 216.436 151.955C216.436 139.227 226.741 128.91 239.454 128.91C252.167 128.91 262.473 139.227 262.473 151.955C262.473 164.682 252.167 175 239.454 175Z" fill="#040C2B"/>
<path d="M239.454 167.98C230.614 167.98 223.447 160.806 223.447 151.955C223.447 143.104 230.614 135.929 239.454 135.929C248.295 135.929 255.462 143.104 255.462 151.955C255.462 160.806 248.295 167.98 239.454 167.98Z" fill="white"/>
<path d="M239.455 160.962C234.486 160.962 230.458 156.93 230.458 151.955C230.458 146.98 234.486 142.948 239.455 142.948C244.423 142.948 248.451 146.98 248.451 151.955C248.451 156.93 244.423 160.962 239.455 160.962Z" fill="#040C2B"/>
<path d="M201.206 155.075H137.954V115.77H201.206V155.075Z" fill="#2B6ED4"/>
<path d="M270.145 153.476C270.145 155.056 270.007 156.618 269.735 158.155C267.737 158.155 266.141 156.489 266.229 154.49C266.244 154.153 266.251 153.815 266.251 153.476C266.251 150.187 265.556 146.992 264.186 143.979C262.854 141.05 260.943 138.417 258.505 136.148C256.048 133.863 253.179 132.066 249.978 130.806C246.645 129.495 243.105 128.831 239.454 128.831C235.803 128.831 232.263 129.496 228.929 130.806C225.729 132.066 222.86 133.863 220.403 136.148C217.965 138.415 216.054 141.05 214.721 143.979C213.351 146.992 212.657 150.186 212.657 153.476C212.657 153.815 212.664 154.153 212.679 154.49C212.766 156.489 211.17 158.155 209.172 158.155C208.899 156.619 208.763 155.056 208.763 153.476C208.763 149.625 209.576 145.886 211.177 142.364C212.723 138.965 214.936 135.913 217.751 133.294C220.568 130.675 223.848 128.618 227.505 127.179C231.293 125.689 235.313 124.933 239.454 124.933C243.594 124.933 247.614 125.689 251.403 127.179C255.058 128.617 258.34 130.673 261.156 133.294C263.973 135.913 266.184 138.965 267.73 142.364C269.332 145.888 270.145 149.626 270.145 153.476Z" fill="#040C2B"/>
<path d="M281.519 123.54V137.637C281.519 138.826 280.555 139.791 279.366 139.791H125.021C124.293 139.791 123.615 140.159 123.218 140.769L116.569 150.979C116.173 151.589 115.495 151.956 114.767 151.956H98.4762C96.2312 151.956 94.4105 150.134 94.4105 147.885V123.54C94.4105 122.35 95.3742 121.385 96.5626 121.385H279.366C280.555 121.385 281.519 122.349 281.519 123.54Z" fill="#040C2B"/>
<path d="M94.6436 123.178V126.532H63.5298C52.621 126.532 43.7769 135.386 43.7769 146.307V154.974C43.7769 156.235 42.755 157.257 41.4959 157.257H2.28134C1.02087 157.257 0.000297546 156.235 0.000297546 154.974V142.149C0.000297546 141.186 0.789291 140.407 1.75301 140.424L41.9091 141.101C41.9091 131.202 49.9254 123.177 59.8136 123.177H94.6436V123.178Z" fill="#040C2B"/>
<path d="M94.4473 43.1107V123.179H59.8101C49.9218 123.179 41.9056 131.205 41.9056 141.104L1.74952 140.427V102.777C1.74952 99.5367 2.24593 96.3313 3.20826 93.2718C4.04303 90.6149 5.22861 88.066 6.74422 85.6981L21.7506 62.2406C23.5907 59.3649 25.7344 56.7458 28.1236 54.4158C36.2744 46.469 47.2927 41.879 58.9309 41.879H93.2173C93.8968 41.879 94.4473 42.4303 94.4473 43.1107Z" fill="#2B6ED4"/>
<path d="M39.623 138.158L39.684 137.788C41.4687 126.901 48.8054 120.656 59.8099 120.656H88.418V55.106C88.418 51.8683 85.7889 49.2353 82.5594 49.2353H63.192C55.7359 49.2353 48.3368 51.1291 41.7959 54.7118C35.2537 58.2945 29.6696 63.5115 25.6483 69.7989L14.1696 87.7406C10.8555 92.9197 9.10418 98.9082 9.10418 105.059V138.031L39.623 138.158ZM87.5458 119.775H59.8099C48.4602 119.775 40.853 126.146 38.8867 137.275L9.97499 137.154V105.061C9.97499 99.0808 11.6778 93.2564 14.9004 88.2203L26.3791 70.2786C34.455 57.6549 48.2175 50.119 63.192 50.119H82.5594C85.3091 50.119 87.5471 52.3565 87.5471 55.1074V119.775H87.5458Z" fill="#040C2B"/>
<path d="M78.791 54.4579V78.0767C78.791 78.83 78.3265 79.5048 77.6235 79.7741L32.1703 97.1687C31.9637 97.2473 31.7433 97.288 31.5228 97.288H13.5642C14.4337 94.0419 16.2682 90.9277 18.057 88.1319L29.5357 70.1902C32.8151 65.063 37.3689 60.8097 42.7048 57.8877C48.0406 54.9657 54.0739 52.6412 60.1558 52.6412H76.9773C77.9784 52.6398 78.791 53.4535 78.791 54.4579Z" fill="#040C2B"/>
<path d="M34.7393 66.0239V94.5147L31.6137 95.7113C31.5846 95.7225 31.5527 95.7281 31.5222 95.7281H15.7199C16.4867 93.7712 17.5669 91.855 18.7054 90.0243C18.9245 89.6708 19.1463 89.3201 19.3682 88.9736L22.4785 84.1116L30.8469 71.0319C31.9909 69.2433 33.2944 67.5684 34.7393 66.0239Z" fill="#F4F6FC"/>
<path d="M77.2324 54.4579V78.0753C77.2324 78.1819 77.1659 78.2787 77.0674 78.3152L77.0328 78.3278L50.3286 81.7661L44.9983 82.452L37.9832 83.3554L37.0763 83.4719V63.7472C39.0218 62.0203 41.1614 60.5095 43.4508 59.2554C49.6602 55.8537 55.125 54.1998 60.153 54.1998H76.9745C77.1173 54.1998 77.2324 54.3162 77.2324 54.4579Z" fill="#F4F6FC"/>
<path d="M78.3997 103.371H64.9256C64.1296 103.371 63.4834 102.717 63.4834 101.912V98.7469C63.4834 97.9417 64.1296 97.288 64.9256 97.288H78.3997C79.1956 97.288 79.8418 97.9417 79.8418 98.7469V101.912C79.8418 102.717 79.197 103.371 78.3997 103.371Z" fill="#040C2B"/>
<path d="M28.124 54.4144L6.27731 92.0472C5.83774 92.8047 5.02932 93.2704 4.15434 93.2704H3.21004C4.0448 90.6135 5.23039 88.0647 6.746 85.6967L21.7524 62.2392C23.5924 59.3635 25.7362 56.7445 28.124 54.4144Z" fill="white"/>
<path d="M34.7393 75.2234V78.4008L18.7054 90.0243C18.9245 89.6708 19.1463 89.3201 19.3682 88.9736L22.4785 84.1116L34.7393 75.2234Z" fill="#F9FBFD"/>
<path d="M34.7393 82.5825V85.7598L20.9892 95.7281H16.606L34.7393 82.5825Z" fill="#F9FBFD"/>
<path d="M15.7332 103.371C15.5183 103.371 15.3436 103.197 15.3436 102.981V75.699C15.3436 73.7112 16.959 72.0938 18.9447 72.0938H21.9649C22.1798 72.0938 22.3545 72.2678 22.3545 72.4838C22.3545 72.6998 22.1798 72.8738 21.9649 72.8738H18.9447C17.3889 72.8738 16.1229 74.1419 16.1229 75.699V102.981C16.1229 103.195 15.9482 103.371 15.7332 103.371Z" fill="#040C2B"/>
<path d="M17.9139 106.646C17.699 106.646 17.5242 106.472 17.5242 106.256V78.9731C17.5242 76.9853 19.1397 75.3679 21.1254 75.3679H24.1455C24.3604 75.3679 24.5352 75.5419 24.5352 75.7579C24.5352 75.9739 24.3604 76.1479 24.1455 76.1479H21.1254C19.5696 76.1479 18.3035 77.416 18.3035 78.9731V106.255C18.3035 106.471 18.1288 106.646 17.9139 106.646Z" fill="#040C2B"/>
<path d="M17.9141 85.2478H15.7329C15.5179 85.2478 15.3432 85.0738 15.3432 84.8578C15.3432 84.6418 15.5179 84.4678 15.7329 84.4678H17.9141C18.129 84.4678 18.3037 84.6418 18.3037 84.8578C18.3037 85.0738 18.129 85.2478 17.9141 85.2478Z" fill="#040C2B"/>
<path d="M18.361 106.957H14.8972C14.1539 106.957 13.5521 106.349 13.5521 105.597V100.286C13.5521 99.5339 14.1539 98.925 14.8972 98.925H18.361C19.1043 98.925 19.7061 99.5339 19.7061 100.286V105.597C19.7061 106.349 19.1043 106.957 18.361 106.957Z" fill="#040C2B"/>
<path d="M26.4782 86.7586H21.8135C20.6501 86.7586 19.7058 85.8033 19.7058 84.6264V66.3536C19.7058 65.1766 20.6501 64.2213 21.8135 64.2213H26.4782C27.6416 64.2213 28.5859 65.1766 28.5859 66.3536V84.6264C28.5859 85.8047 27.643 86.7586 26.4782 86.7586Z" fill="#040C2B"/>
<path d="M6.73633 118.679V124.504C6.73633 124.899 6.48258 125.25 6.10541 125.373L1.74995 126.797V118.418L5.67416 117.777C6.23021 117.685 6.73633 118.115 6.73633 118.679Z" fill="#F4F6FC"/>
<path d="M77.2324 54.4579V54.904L37.9846 83.3568L37.0777 83.4733V80.836L73.8213 54.1998H76.9773C77.1173 54.1998 77.2324 54.3162 77.2324 54.4579Z" fill="white"/>
<path d="M77.2324 59.0857V62.2644L50.3286 81.7661L44.9983 82.4534L77.2324 59.0857Z" fill="white"/>
<path d="M285.997 1.54307V126.587C285.997 127.44 285.307 128.13 284.455 128.13H97.8865C97.0351 128.13 96.3445 127.438 96.3445 126.587V1.54307C96.3445 0.690175 97.0351 0 97.8865 0H284.455C285.307 0 285.997 0.691578 285.997 1.54307Z" fill="#2B6ED4"/>
<path d="M99.8045 124.672H282.539V3.45789H99.8045V124.672ZM281.667 123.791H100.675V4.34024H281.667V123.791Z" fill="#040C2B"/>
<g opacity="0.05">
<path d="M100.24 3.89978H102.213V124.231H100.24V3.89978Z" fill="black"/>
<path d="M105.718 3.89978H109.769V124.231H105.718V3.89978Z" fill="black"/>
<path d="M113.274 3.89978H117.324V124.231H113.274V3.89978Z" fill="black"/>
<path d="M120.829 3.89978H124.88V124.231H120.829V3.89978Z" fill="black"/>
<path d="M128.385 3.89978H132.436V124.231H128.385V3.89978Z" fill="black"/>
<path d="M135.942 3.89978H139.992V124.231H135.942V3.89978Z" fill="black"/>
<path d="M143.498 3.89978H147.549V124.231H143.498V3.89978Z" fill="black"/>
<path d="M151.054 3.89978H155.104V124.231H151.054V3.89978Z" fill="black"/>
<path d="M158.611 3.89978H162.661V124.231H158.611V3.89978Z" fill="black"/>
<path d="M166.166 3.89978H170.217V124.231H166.166V3.89978Z" fill="black"/>
<path d="M173.722 3.89978H177.772V124.231H173.722V3.89978Z" fill="black"/>
<path d="M181.278 3.89978H185.328V124.231H181.278V3.89978Z" fill="black"/>
<path d="M188.834 3.89978H192.885V124.231H188.834V3.89978Z" fill="black"/>
<path d="M196.39 3.89978H200.44V124.231H196.39V3.89978Z" fill="black"/>
<path d="M203.946 3.89978H207.996V124.231H203.946V3.89978Z" fill="black"/>
<path d="M212.125 3.89978H216.176V124.231H212.125V3.89978Z" fill="black"/>
<path d="M219.681 3.89978H223.731V124.231H219.681V3.89978Z" fill="black"/>
<path d="M227.238 3.89978H231.288V124.231H227.238V3.89978Z" fill="black"/>
<path d="M234.793 3.89978H238.844V124.231H234.793V3.89978Z" fill="black"/>
<path d="M242.349 3.89978H246.399V124.231H242.349V3.89978Z" fill="black"/>
<path d="M249.907 3.89978H253.957V124.231H249.907V3.89978Z" fill="black"/>
<path d="M257.462 3.89978H261.513V124.231H257.462V3.89978Z" fill="black"/>
<path d="M265.018 3.89978H269.068V124.231H265.018V3.89978Z" fill="black"/>
<path d="M272.574 3.89978H276.624V124.231H272.574V3.89978Z" fill="black"/>
<path d="M280.13 3.89978H282.102V124.231H280.13V3.89978Z" fill="black"/>
</g>
</svg>
