<svg width="125" height="55" viewBox="0 0 125 55" fill="none" xmlns="http://www.w3.org/2000/svg">
<path d="M63.1678 16.9729H58.1277V49.0119H63.1678V16.9729Z" fill="black"/>
<path d="M2.46384 15.8506L0.182239 27.3069L60.6446 37.6465V15.8506H2.46384Z" fill="#086AAD"/>
<path d="M3.35138 16.5447L1.45005 26.0876H59.6791V16.5447H3.35138Z" fill="#17538E"/>
<path d="M3.35138 16.5447L1.45005 26.0876H3.35138V16.5447Z" fill="#104A83"/>
<path d="M119.037 26.2263C118.964 25.9728 118.868 25.7253 118.717 25.4779L118.711 25.4718C118.554 25.2183 118.343 24.9588 118.035 24.6992C108.057 19.7799 97.0599 17.6492 94.3195 17.1663C94.2411 17.0818 94.1626 16.9913 94.0781 16.9007C93.6978 16.4843 93.2874 16.0376 92.8588 15.5728L92.8528 15.5668C92.6657 15.3616 92.4725 15.1563 92.2733 14.9451C92.2371 14.9089 92.2009 14.8666 92.1647 14.8304C92.1345 14.8002 92.1043 14.77 92.0802 14.7399C92.0742 14.7338 92.0681 14.7278 92.0561 14.7157C91.875 14.5226 91.6999 14.3294 91.5128 14.1363C91.2412 13.8465 90.9635 13.5508 90.6799 13.249C90.6014 13.1645 90.5229 13.08 90.4384 12.9955C90.2151 12.7601 89.9857 12.5186 89.7563 12.2832C89.6598 12.1806 89.5632 12.084 89.4666 11.9814C89.2493 11.7581 89.032 11.5348 88.8147 11.3054C88.7121 11.1967 88.6035 11.0941 88.5009 10.9855C88.4707 10.9553 88.4405 10.9251 88.4103 10.8949L88.2111 10.6897C88.0844 10.563 87.9637 10.4422 87.8369 10.3155C87.7403 10.2189 87.6498 10.1284 87.5532 10.0318C87.4808 9.95937 87.4084 9.88694 87.3359 9.8145C87.2031 9.68171 87.0643 9.54892 86.9315 9.41009C86.8712 9.34973 86.8108 9.28937 86.7504 9.22901C86.7021 9.18073 86.6539 9.13847 86.6116 9.09019C86.5633 9.0419 86.515 8.99361 86.4607 8.94532C86.34 8.8246 86.2132 8.70992 86.0925 8.5892C85.9356 8.4383 85.7786 8.28137 85.6217 8.13047C85.6036 8.11236 85.5795 8.08821 85.5613 8.07011C85.4527 7.96749 85.344 7.86488 85.2414 7.76227C85.0664 7.59326 84.8853 7.42426 84.7103 7.25525C84.668 7.213 84.6197 7.17075 84.5714 7.12849C84.5594 7.11642 84.5473 7.11038 84.5413 7.09831C84.4869 7.05003 84.4387 7.00174 84.3843 6.95345C84.2032 6.78444 84.0282 6.62147 83.8471 6.4585C83.7747 6.3921 83.7023 6.31967 83.6238 6.25328C83.5634 6.19895 83.5091 6.15066 83.4487 6.09634C83.2978 5.95751 83.1469 5.82472 82.9961 5.68589C82.8934 5.59535 82.7969 5.51085 82.6943 5.42031H82.6882C82.6279 5.36599 82.5735 5.3177 82.5132 5.26941C82.3925 5.1668 82.2778 5.06419 82.1631 4.96761C82.0665 4.88311 81.9639 4.7986 81.8673 4.7141C81.6983 4.56924 81.5293 4.43041 81.3603 4.29158C81.2637 4.21311 81.1671 4.12861 81.0706 4.05618C80.9559 3.96564 80.8412 3.86906 80.7265 3.77852C80.6722 3.73627 80.6179 3.69402 80.5636 3.65177C80.479 3.58537 80.3885 3.51898 80.304 3.45258C80.1712 3.34997 80.0384 3.25339 79.9117 3.15682C79.8573 3.11457 79.797 3.07231 79.7427 3.03006C79.6883 2.98781 79.634 2.95159 79.5797 2.90934C79.4348 2.80673 79.296 2.71016 79.1572 2.61962C79.0968 2.57736 79.0304 2.52908 78.9701 2.48682C78.9701 2.48682 78.9701 2.48682 78.9701 2.49286C78.2518 2.02205 77.6059 1.67197 77.0687 1.49089C76.8152 1.40638 74.0266 0.899361 70.8275 0.603598C67.6164 0.307835 64.3871 0.132792 61.1639 0V39.4874H91.4645C92.0259 39.4874 92.4846 39.1373 92.4846 38.7087C92.4846 38.5216 92.4001 38.3587 92.2613 38.2259C92.2492 38.2138 92.2371 38.2078 92.2311 38.1957C92.1707 38.1474 92.1104 38.0991 92.0379 38.0629C92.0379 38.0629 92.0319 38.0629 92.0319 38.0569C91.9595 38.0206 91.8871 37.9965 91.8086 37.9724C91.7844 37.9663 91.7663 37.9603 91.7422 37.9603C91.6577 37.9422 91.5671 37.9301 91.4766 37.9301H91.1808V37.5679H91.3559C91.368 37.5921 91.374 37.6102 91.3861 37.6343H94.054C95.1344 40.5497 97.9351 42.6321 101.225 42.6321C104.514 42.6321 107.315 40.5497 108.395 37.6343H110.912C110.955 38.0689 110.985 38.3768 110.985 38.4432L115.029 38.4251C115.029 38.4251 115.953 38.5518 117.347 38.1051C118.005 37.8939 118.808 37.1032 119.465 36.3245L122.864 36.6565C122.749 35.057 119.997 28.4778 119.037 26.2263Z" fill="#17538E"/>
<path d="M95.7616 26.824L94.319 17.1664C94.2406 17.0819 94.1621 16.9914 94.0776 16.9009C93.6973 16.4844 93.2869 16.0377 92.8583 15.5729L92.8523 15.5669C92.6652 15.3617 92.472 15.1565 92.2729 14.9452C92.2366 14.909 92.2004 14.8667 92.1642 14.8305C92.134 14.8003 92.1038 14.7702 92.0797 14.74C92.0737 14.7339 92.0676 14.7279 92.0556 14.7158C91.8745 14.5227 91.6994 14.3295 91.5123 14.1364C91.2407 13.8467 90.963 13.5509 90.6794 13.2491C90.6009 13.1646 90.5224 13.0801 90.4379 12.9956C90.2146 12.7602 89.9852 12.5187 89.7558 12.2833C89.6593 12.1807 89.5627 12.0841 89.4661 11.9815C89.2488 11.7582 89.0315 11.5349 88.8142 11.3055C88.7116 11.1969 88.603 11.0942 88.5004 10.9856C88.4702 10.9554 88.44 10.9252 88.4098 10.8951C88.3434 10.8287 88.277 10.7623 88.2106 10.6898C88.0839 10.5631 87.9632 10.4424 87.8364 10.3156C87.7398 10.219 87.6493 10.1285 87.5527 10.0319C87.4803 9.95948 87.4079 9.88705 87.3354 9.81462C87.2026 9.68183 87.0638 9.54903 86.931 9.4102C86.8707 9.34985 86.8103 9.28949 86.7499 9.22913C86.7016 9.18084 86.6534 9.13859 86.6111 9.0903C86.5628 9.04201 86.5145 8.99372 86.4602 8.94544C86.3395 8.82472 86.2127 8.71003 86.092 8.58931C85.9351 8.43841 85.7781 8.28148 85.6212 8.13058C85.6031 8.11247 85.579 8.08833 85.5608 8.07022C85.4522 7.96761 85.3435 7.86499 85.2409 7.76238C85.0659 7.59338 84.8848 7.42437 84.7098 7.25536C84.6675 7.21311 84.6192 7.17086 84.5709 7.1286C84.5589 7.11653 84.5468 7.1105 84.5408 7.09843C84.4864 7.05014 84.4382 7.00185 84.3838 6.95356C84.2028 6.78455 84.0277 6.62158 83.8466 6.45861C83.7742 6.39222 83.7018 6.31978 83.6233 6.25339C83.5629 6.19906 83.5086 6.15078 83.4483 6.09645C83.2974 5.95762 83.1465 5.82483 82.9956 5.68601C82.8929 5.59547 82.7964 5.51096 82.6938 5.42042C82.6938 5.42042 82.6938 5.42042 82.6877 5.42042C82.6274 5.3661 82.573 5.31781 82.5127 5.26952C82.392 5.16691 82.2773 5.0643 82.1626 4.96772C82.066 4.88322 81.9634 4.79872 81.8668 4.71421C81.6978 4.56935 81.5288 4.43052 81.3598 4.29169C81.2632 4.21323 81.1666 4.12872 81.0701 4.05629C80.9554 3.96575 80.8407 3.86918 80.726 3.77864C80.6717 3.73638 80.6174 3.69413 80.5631 3.65188C80.4785 3.58548 80.388 3.51909 80.3035 3.45269C80.1707 3.35008 80.0379 3.25351 79.9112 3.15693C79.8568 3.11468 79.7965 3.07243 79.7422 3.03017C79.718 3.01207 79.6939 2.99396 79.6697 2.98189L79.7603 11.2874L95.7616 26.824Z" fill="#0B2F3E"/>
<path d="M83.3881 14.7824C85.1084 16.0801 86.8648 16.8708 87.5891 15.5308C88.6153 13.6355 87.9936 11.3539 86.9916 9.45862C86.9735 9.44051 86.9614 9.42844 86.9433 9.41033C86.8829 9.34997 86.8226 9.28961 86.7622 9.22925C86.7139 9.18096 86.6656 9.13871 86.6234 9.09042C86.5751 9.04213 86.5268 8.99385 86.4725 8.94556C86.3518 8.82484 86.225 8.71015 86.1043 8.58944C85.9474 8.43854 85.7904 8.2816 85.6335 8.1307C85.6154 8.11259 85.5912 8.08845 85.5731 8.07034C85.4645 7.96773 85.3558 7.86512 85.2532 7.76251C85.0782 7.5935 84.8971 7.42449 84.7221 7.25548C84.6798 7.21323 84.6315 7.17098 84.5832 7.12873C84.5712 7.11666 84.5591 7.11062 84.5531 7.09855C84.4987 7.05026 84.4504 7.00197 84.3961 6.95368C84.215 6.78468 84.04 6.6217 83.8589 6.45873C83.7865 6.39234 83.714 6.31991 83.6356 6.25351C83.5752 6.19919 83.5209 6.1509 83.4605 6.09658C83.3096 5.95775 83.1587 5.82496 83.0078 5.68613C82.9052 5.59559 82.8087 5.51109 82.706 5.42055C82.706 5.42055 82.706 5.42055 82.7 5.42055C82.6396 5.36622 82.5853 5.31793 82.525 5.26965C82.4042 5.16703 82.2896 5.06442 82.1749 4.96785C82.0783 4.88334 81.9757 4.79884 81.8791 4.71434C81.7101 4.56947 81.5411 4.43064 81.3721 4.29182C81.2755 4.21335 81.1789 4.12885 81.0824 4.05641C80.9677 3.96587 80.853 3.8693 80.7383 3.77876C80.684 3.73651 80.6297 3.69425 80.5753 3.652C80.4908 3.58561 80.4003 3.51921 80.3158 3.45282C80.183 3.3502 80.0502 3.25363 79.9235 3.15705C79.8691 3.1148 79.8088 3.07255 79.7544 3.0303C79.7303 3.01219 79.7062 2.99408 79.682 2.98201L79.7726 11.2875L83.3881 14.7824Z" fill="#00384B"/>
<path d="M99.1721 31.701L95.7617 31.5441C95.7617 31.5441 95.81 31.9123 96.1601 32.2322C96.5102 32.5461 98.1822 32.4676 98.1822 32.4676C98.1822 32.4676 98.9306 32.5099 99.1721 32.2684C99.4075 32.033 99.4497 31.7131 99.1721 31.701Z" fill="#E86408"/>
<path opacity="0.5" d="M99.1059 31.8398L96.8424 31.7372C96.8424 31.7372 96.8726 31.9846 97.108 32.1959C97.3434 32.4071 98.448 32.3528 98.448 32.3528C98.448 32.3528 98.949 32.377 99.1059 32.22C99.2628 32.0631 99.287 31.8518 99.1059 31.8398Z" fill="#E86408"/>
<path d="M62.8419 49.634C62.8419 50.2557 63.1678 50.7567 63.5722 50.7567H92.7321C93.1365 50.7567 93.4624 50.2557 93.4624 49.634V47.618C93.4624 46.9963 93.1365 46.4953 92.7321 46.4953H63.5722C63.1678 46.4953 62.8419 46.9963 62.8419 47.618V49.634Z" fill="black"/>
<path d="M61.967 50.4248C61.967 50.8896 62.2869 51.2699 62.6793 51.2699H93.668C94.0603 51.2699 94.3863 50.8896 94.3863 50.4248C94.3863 49.9601 94.0664 49.5798 93.668 49.5798H62.6793C62.2869 49.5798 61.967 49.9601 61.967 50.4248Z" fill="#515155"/>
<path opacity="0.4" d="M62.027 50.0868C62.1356 49.791 62.3891 49.5798 62.6788 49.5798H93.6676C93.9573 49.5798 94.2108 49.785 94.3195 50.0868H62.027Z" fill="#C4C4C4"/>
<path d="M0.797724 27.3067V49.2596L60.6445 49.1026V27.3067H0.797724Z" fill="#086AAD"/>
<path d="M60.6445 27.3067H0.797724V29.6064H60.6445V27.3067Z" fill="#FFC34E"/>
<path d="M0.797724 38.6243V49.2597L60.6445 49.1027V38.6243H0.797724Z" fill="#E3E3E3"/>
<path d="M0.797724 44.2619V49.2597L60.6445 49.1027V44.2619H0.797724Z" fill="#E3E3E3"/>
<path d="M0.182239 27.3066V29.0268L60.6446 29.0148V27.3066H0.182239Z" fill="#17538E"/>
<path d="M60.6507 27.3066H0.182239V27.6204H60.6507V27.3066Z" fill="#E3E3E3"/>
<path d="M123.401 38.8233C123.358 38.5034 123.322 38.1835 123.268 37.8696C123.111 36.9099 122.99 36.1433 122 35.2923C109.566 29.1597 95.6593 27.035 95.6593 27.035L61.1757 26.0874V49.1026L119.495 49.2595C119.604 49.2173 119.737 49.2233 119.821 49.1267C122.362 46.1631 121.028 47.5212 123.087 45.2999C124.487 43.7909 123.745 40.3746 123.401 38.8233Z" fill="#086AAD"/>
<path d="M123.835 41.2559C123.642 40.1392 90.752 39.3425 61.1757 38.8475V49.1027L119.495 49.2596C119.604 49.2173 119.737 49.2234 119.821 49.1268C122.362 46.1692 124.463 44.8835 123.835 41.2559Z" fill="#E3E3E3"/>
<path d="M61.1757 44.2618V49.1087L119.495 49.2656C119.604 49.2233 119.737 49.2294 119.821 49.1328C122.362 46.1691 121.028 47.5272 123.087 45.306C123.298 45.0766 90.746 44.6239 61.1757 44.2618Z" fill="#E3E3E3"/>
<path d="M77.7262 10.1888C77.4546 10.0982 74.4366 9.54897 70.978 9.22906C67.7186 8.92726 64.4531 8.74618 61.1816 8.60132V30.0411L61.6283 30.0954L99.4014 30.5542C99.3954 30.5542 83.3578 12.072 77.7262 10.1888Z" fill="#086AAD"/>
<path d="M90.396 25.5381C90.0158 24.681 89.1043 23.8662 88.5611 23.1479C84.8852 18.3553 81.994 13.7438 76.5133 11.5286C74.4309 10.6896 68.9925 10.0981 63.3669 9.71784C63.0108 9.80234 62.6969 9.95928 62.5521 10.3214V24.7716C62.7633 25.2424 63.1134 25.5502 63.548 25.7675C77.0505 26.8661 89.4725 27.8137 89.4725 27.8137C91.3256 27.6326 90.396 25.5381 90.396 25.5381Z" fill="black"/>
<path d="M92.8403 25.5987C88.7177 20.2267 81.8488 14.2571 80.4243 13.0379C79.5551 12.2954 79.6094 11.6556 79.7784 11.2693C84.3718 14.2934 91.8262 22.1703 96.1058 26.8663C94.7114 27.0353 92.8403 25.5987 92.8403 25.5987Z" fill="#00384B"/>
<path d="M74.5031 11.5891C74.5031 11.5891 78.0703 12.3798 80.527 14.758C82.9836 17.1361 89.2731 26.0332 89.2731 26.0332C89.2731 26.0332 90.77 27.5663 88.3798 27.18C87.3718 27.017 74.3642 26.1539 63.6504 25.2123C63.8616 16.4903 63.59 14.4863 63.5055 10.5267C67.284 10.8044 71.7989 11.1545 74.5031 11.5891Z" fill="#10475E"/>
<path d="M86.7016 22.4719C84.6735 19.7135 81.9574 16.1402 80.5329 14.758C78.0762 12.3798 74.509 11.5891 74.509 11.5891C71.7988 11.1545 67.2899 10.8044 63.5114 10.5267C63.5537 12.3798 63.6321 13.8043 63.6864 15.6815C71.6117 16.8283 79.3619 19.2185 86.7016 22.4719Z" fill="#00384B"/>
<path d="M113.556 45.4086C113.556 40.2961 109.198 36.1554 103.82 36.1554C98.4418 36.1554 94.0838 40.2961 94.0838 45.4086C94.0838 46.7848 94.3977 48.0886 94.965 49.2596H93.1844C92.4843 47.7566 92.0919 46.0846 92.0919 44.3161C92.0919 37.8395 97.3432 32.5882 103.82 32.5882C110.296 32.5882 115.548 37.8395 115.548 44.3161C115.548 46.0846 115.155 47.7566 114.455 49.2596H112.675C113.242 48.0886 113.556 46.7848 113.556 45.4086Z" fill="#086AAD"/>
<path d="M92.0978 44.316C92.0978 37.8394 97.3491 32.5881 103.826 32.5881C110.302 32.5881 115.554 37.8394 115.554 44.316C115.554 46.0845 115.161 47.7565 114.461 49.2594H114.189C114.769 47.9013 115.095 46.4044 115.095 44.829C115.095 38.6059 110.049 33.5598 103.826 33.5598C97.6026 33.5598 92.5565 38.6059 92.5565 44.829C92.5565 46.4044 92.8825 47.9013 93.4619 49.2594H93.1903C92.4902 47.7565 92.0978 46.0845 92.0978 44.316Z" fill="#E3E3E3"/>
<path d="M103.82 36.1555C109.198 36.1555 113.556 40.2961 113.556 45.4086C113.556 46.7848 113.242 48.0886 112.675 49.2596H94.965C94.3977 48.0886 94.0838 46.7848 94.0838 45.4086C94.0838 40.2961 98.4478 36.1555 103.82 36.1555Z" fill="black"/>
<path d="M95.5451 46.3863C95.5451 50.9616 99.2512 54.6677 103.82 54.6677C108.39 54.6677 112.096 50.9616 112.096 46.3863C112.096 41.8171 108.39 38.111 103.82 38.111C99.2512 38.111 95.5451 41.8171 95.5451 46.3863Z" fill="#363635"/>
<path d="M95.5451 46.3863C95.5451 50.9616 99.2512 54.6677 103.82 54.6677C108.39 54.6677 112.096 50.9616 112.096 46.3863C112.096 41.8171 108.39 38.111 103.82 38.111C99.2512 38.111 95.5451 41.8171 95.5451 46.3863Z" fill="#222222"/>
<path d="M98.2065 46.3865C98.2065 49.489 100.723 52.006 103.826 52.006C106.928 52.006 109.445 49.489 109.445 46.3865C109.445 43.2841 106.928 40.7731 103.826 40.7731C100.717 40.767 98.2065 43.2841 98.2065 46.3865Z" fill="black"/>
<path d="M98.6952 46.3864C98.6952 49.2172 100.989 51.517 103.826 51.517C106.663 51.517 108.95 49.2233 108.95 46.3864C108.95 43.5555 106.657 41.2618 103.826 41.2618C100.995 41.2618 98.6952 43.5555 98.6952 46.3864Z" fill="#D5D3CB"/>
<path d="M101.249 43.3322C101.243 43.2718 101.249 43.2115 101.267 43.1571C101.81 42.6682 102.516 42.3483 103.295 42.288C103.367 42.3061 103.434 42.3363 103.494 42.3785C103.524 42.4147 103.543 42.457 103.567 42.5053V45.3542C103.549 45.3905 103.53 45.4267 103.506 45.4629C103.488 45.4689 103.476 45.481 103.458 45.487C103.41 45.481 103.367 45.475 103.319 45.4569L101.273 43.4107C101.267 43.3865 101.255 43.3563 101.249 43.3322Z" fill="#4C4C49"/>
<path d="M99.7519 46.1453C99.7036 46.1091 99.6674 46.0608 99.6433 46.0065C99.6795 45.2701 99.9511 44.5518 100.464 43.9603C100.525 43.918 100.597 43.8939 100.669 43.8878C100.718 43.8999 100.76 43.912 100.802 43.9301L102.818 45.9461C102.836 45.9823 102.848 46.0246 102.854 46.0608C102.848 46.0789 102.842 46.097 102.836 46.1151C102.8 46.1453 102.764 46.1694 102.722 46.1936H99.8304C99.8002 46.1755 99.7761 46.1634 99.7519 46.1453Z" fill="#4C4C49"/>
<path d="M100.73 49.1086C100.669 49.1146 100.609 49.1146 100.549 49.0905C100.048 48.5533 99.7157 47.8531 99.6433 47.0805C99.6554 47.0081 99.6855 46.9417 99.7338 46.8813C99.77 46.8572 99.8123 46.833 99.8606 46.8089L102.71 46.7606C102.752 46.7727 102.782 46.7908 102.818 46.8149C102.824 46.833 102.836 46.8451 102.842 46.8632C102.842 46.9115 102.83 46.9538 102.818 47.002L100.808 49.0845C100.784 49.0905 100.76 49.1026 100.73 49.1086Z" fill="#4C4C49"/>
<path d="M103.494 50.3762C103.458 50.4245 103.41 50.4607 103.349 50.4849C102.619 50.4366 101.901 50.1529 101.315 49.6398C101.273 49.5734 101.249 49.507 101.243 49.4346C101.249 49.3923 101.267 49.3441 101.285 49.3018L103.331 47.316C103.367 47.3039 103.41 47.2918 103.446 47.2798C103.464 47.2858 103.482 47.2918 103.5 47.2979C103.53 47.3341 103.554 47.3703 103.573 47.4125L103.536 50.3038C103.524 50.3279 103.512 50.3581 103.494 50.3762Z" fill="#4C4C49"/>
<path d="M106.392 43.3322C106.398 43.2718 106.392 43.2115 106.368 43.1571C105.824 42.6682 105.118 42.3483 104.339 42.288C104.267 42.3061 104.201 42.3363 104.146 42.3785C104.122 42.4147 104.098 42.457 104.08 42.5053V45.3542C104.092 45.3905 104.11 45.4267 104.134 45.4629C104.152 45.4689 104.17 45.481 104.183 45.487C104.231 45.481 104.273 45.475 104.321 45.4569L106.368 43.4107C106.38 43.3865 106.386 43.3563 106.392 43.3322Z" fill="#4C4C49"/>
<path d="M107.895 46.1453C107.943 46.1091 107.979 46.0608 108.003 46.0065C107.967 45.2701 107.69 44.5518 107.183 43.9603C107.122 43.918 107.05 43.8939 106.977 43.8878C106.929 43.8999 106.887 43.912 106.838 43.9301L104.822 45.9461C104.804 45.9823 104.798 46.0246 104.786 46.0608C104.792 46.0789 104.798 46.097 104.804 46.1151C104.841 46.1453 104.883 46.1694 104.919 46.1936H107.81C107.846 46.1755 107.871 46.1634 107.895 46.1453Z" fill="#4C4C49"/>
<path d="M106.91 49.1086C106.97 49.1146 107.031 49.1146 107.091 49.0905C107.592 48.5533 107.918 47.8531 107.991 47.0805C107.979 47.0081 107.948 46.9417 107.9 46.8813C107.864 46.8572 107.822 46.833 107.779 46.8089L104.93 46.7606C104.894 46.7727 104.858 46.7908 104.822 46.8149C104.816 46.833 104.804 46.8451 104.798 46.8632C104.798 46.9115 104.81 46.9538 104.822 47.002L106.832 49.0845C106.862 49.0905 106.886 49.1026 106.91 49.1086Z" fill="#4C4C49"/>
<path d="M104.146 50.3762C104.182 50.4245 104.231 50.4607 104.291 50.4849C105.021 50.4366 105.746 50.1529 106.325 49.6398C106.367 49.5734 106.391 49.507 106.397 49.4346C106.385 49.3923 106.373 49.3441 106.355 49.3018L104.309 47.316C104.273 47.3039 104.231 47.2918 104.194 47.2798C104.176 47.2858 104.158 47.2918 104.14 47.2979C104.11 47.3341 104.086 47.3703 104.068 47.4125L104.11 50.3038C104.122 50.3279 104.134 50.3581 104.146 50.3762Z" fill="#4C4C49"/>
<path d="M102.317 46.3865C102.317 47.2194 102.993 47.8955 103.826 47.8955C104.659 47.8955 105.335 47.2194 105.335 46.3865C105.335 45.5535 104.659 44.8835 103.826 44.8835C102.987 44.8835 102.317 45.5535 102.317 46.3865Z" fill="#D5D3CB"/>
<path d="M102.848 45.6441C102.848 45.7467 102.933 45.8312 103.036 45.8312C103.138 45.8312 103.223 45.7467 103.223 45.6441C103.223 45.5414 103.138 45.4569 103.036 45.4569C102.933 45.4569 102.848 45.5414 102.848 45.6441Z" fill="#4C4C49"/>
<path d="M103.627 45.3786C103.627 45.4812 103.712 45.5657 103.814 45.5657C103.917 45.5657 104.001 45.4812 104.001 45.3786C104.001 45.276 103.917 45.1915 103.814 45.1915C103.712 45.1915 103.627 45.276 103.627 45.3786Z" fill="#4C4C49"/>
<path d="M104.424 45.6743C104.424 45.7769 104.508 45.8614 104.611 45.8614C104.713 45.8614 104.798 45.7769 104.798 45.6743C104.798 45.5717 104.713 45.4872 104.611 45.4872C104.508 45.4872 104.424 45.5717 104.424 45.6743Z" fill="#4C4C49"/>
<path d="M102.848 47.286C102.848 47.1834 102.933 47.0989 103.036 47.0989C103.138 47.0989 103.223 47.1834 103.223 47.286C103.223 47.3886 103.138 47.4731 103.036 47.4731C102.933 47.4731 102.848 47.3886 102.848 47.286Z" fill="#4C4C49"/>
<path d="M102.48 46.501C102.48 46.3984 102.565 46.3139 102.667 46.3139C102.77 46.3139 102.854 46.3984 102.854 46.501C102.854 46.6036 102.77 46.6881 102.667 46.6881C102.565 46.6881 102.48 46.6036 102.48 46.501Z" fill="#4C4C49"/>
<path d="M104.792 46.501C104.792 46.3984 104.877 46.3139 104.979 46.3139C105.082 46.3139 105.166 46.3984 105.166 46.501C105.166 46.6036 105.082 46.6881 104.979 46.6881C104.877 46.6881 104.792 46.6036 104.792 46.501Z" fill="#4C4C49"/>
<path d="M103.627 47.5514C103.627 47.4488 103.712 47.3643 103.814 47.3643C103.917 47.3643 104.001 47.4488 104.001 47.5514C104.001 47.654 103.917 47.7385 103.814 47.7385C103.712 47.7385 103.627 47.654 103.627 47.5514Z" fill="#4C4C49"/>
<path d="M104.424 47.2557C104.424 47.1531 104.508 47.0686 104.611 47.0686C104.713 47.0686 104.798 47.1531 104.798 47.2557C104.798 47.3583 104.713 47.4428 104.611 47.4428C104.508 47.4428 104.424 47.3583 104.424 47.2557Z" fill="#4C4C49"/>
<path d="M113.876 44.974C113.827 44.3945 113.779 43.8211 113.743 43.2416H124.342C124.463 43.2537 124.578 43.2779 124.674 43.3262C124.849 43.4167 124.934 43.5495 125 43.6943L124.958 46.0061C124.958 46.0061 122.767 49.2957 121.258 49.7786C119.749 50.2615 118.747 50.1227 118.747 50.1227L114.371 50.1408C114.371 49.8692 113.936 45.7405 113.876 44.974Z" fill="#201E1E"/>
<path opacity="0.6" d="M116.26 43.2415H124.342C124.463 43.2536 124.577 43.2777 124.674 43.326C124.849 43.4166 124.934 43.5494 125 43.6942L124.958 45.7344C124.964 45.7344 116.296 43.821 116.26 43.2415Z" fill="#222222"/>
<path d="M91.4761 25.7556L93.5706 27.1499C93.5706 27.1499 94.5243 27.8259 93.8301 28.5442C93.8301 28.5442 93.5042 28.9245 92.6229 28.9426C91.7417 28.9607 89.9188 28.5442 89.9188 28.5442L91.4761 25.7556Z" fill="black"/>
<path d="M87.8064 25.2003C88.235 24.0173 90.3958 24.1803 90.3958 24.1803C91.3254 24.2467 92.0255 25.1883 92.5507 26.1842C93.1603 27.331 92.7076 29.679 91.5668 29.4617C90.263 29.2143 90.758 29.3953 88.6454 28.7797C88.0961 28.6167 87.2873 26.6429 87.8064 25.2003Z" fill="#222222"/>
<path d="M87.8063 25.2007C87.8425 25.092 87.8969 24.9954 87.9633 24.9109C87.9391 25.4663 88.0659 26.0216 88.4461 26.4501C88.923 26.9873 89.6292 27.271 90.3113 27.4581C90.7217 27.5728 91.1261 27.7177 91.5426 27.7961C91.8746 27.8625 92.3273 27.9531 92.6411 27.7599C92.7075 27.7177 92.7679 27.6694 92.8222 27.6151C92.78 28.6231 92.3273 29.6069 91.5728 29.456C90.269 29.2086 90.764 29.3896 88.6514 28.774C88.0961 28.617 87.2872 26.6433 87.8063 25.2007Z" fill="#141412"/>
<path d="M62.2382 30.1433L100.705 31.8877L62.2382 28.3687V30.1433Z" fill="#E3E3E3"/>
<path d="M67.3989 30.7895L64.737 30.7533C64.737 30.7533 64.2119 30.7593 64.4171 31.212C64.6223 31.6647 64.6827 31.7492 64.6827 31.7492C64.6827 31.7492 64.7431 31.9846 65.2561 32.0691C65.7692 32.1536 68.8536 32.3226 68.8536 32.3226C68.8536 32.3226 69.2882 32.3709 69.9582 32.0389C70.6281 31.707 70.604 31.1215 70.3746 30.9826C70.3746 30.9826 70.3807 30.9223 69.94 30.8438C69.4994 30.7834 67.3989 30.7895 67.3989 30.7895Z" fill="#404744"/>
<path d="M69.6559 30.9342L65.1772 30.8437C65.1772 30.8437 64.6823 30.8376 64.6038 31.0549C64.5314 31.2783 64.7909 31.4835 65.473 31.5378C66.155 31.5921 68.7626 31.731 68.7626 31.731C68.7626 31.731 69.7404 31.7913 70.0603 31.5257C70.3802 31.2601 70.2173 30.9704 69.6559 30.9342Z" fill="#B6B6B6"/>
<path d="M116.085 33.916C117.256 33.8557 118.3 33.8255 119.387 34.3325C120.413 34.8154 121.928 35.4009 122.447 35.9441C122.628 36.1795 122.785 36.4451 122.906 36.7288C123.153 37.5678 123.292 38.449 123.322 39.3243C123.292 39.5959 123.226 39.8313 123.141 40.0063C122.827 40.6522 119.363 40.1452 117.039 38.2438C116.296 37.8153 114.902 33.9945 116.085 33.916Z" fill="#EFBF69"/>
<path opacity="0.6" d="M117.099 36.8311C117.268 38.0081 117.999 38.8773 118.735 38.7747C119.471 38.6721 119.936 37.6339 119.773 36.4569C119.604 35.2799 118.874 34.4107 118.137 34.5193C117.395 34.6159 116.93 35.6541 117.099 36.8311Z" fill="#E3EDEE"/>
<path d="M120.643 38.2799C120.667 38.9982 121.053 39.5656 121.506 39.5535C121.959 39.5354 122.303 38.9439 122.278 38.2256C122.254 37.5073 121.868 36.94 121.415 36.952C120.963 36.9641 120.619 37.5617 120.643 38.2799Z" fill="#E3D8C3"/>
<g opacity="0.4">
<path d="M116.296 33.9036C117.383 33.8492 118.367 33.8553 119.387 34.3321C120.413 34.815 121.928 35.4005 122.447 35.9437C122.628 36.1791 122.785 36.4447 122.906 36.7284C123.153 37.5674 123.292 38.4487 123.322 39.3239C123.298 39.5291 123.256 39.7102 123.201 39.8611C121.584 37.1811 119.284 34.8693 116.296 33.9036Z" fill="white"/>
</g>
<path d="M118.161 45.7107C117.093 45.6262 116.284 46.3807 116.362 47.4008C116.441 48.4209 117.37 49.3142 118.439 49.3987C119.507 49.4832 121.934 48.8555 121.861 47.8354C121.783 46.8153 119.23 45.7952 118.161 45.7107Z" fill="#222222"/>
<path d="M118.378 45.9341C117.37 45.8556 116.61 46.5679 116.682 47.5276C116.755 48.4873 117.63 49.3324 118.638 49.4108C119.646 49.4893 121.94 48.8978 121.867 47.938C121.795 46.9783 119.386 46.0126 118.378 45.9341Z" fill="black"/>
<path opacity="0.5" d="M91.1623 23.5465C87.0699 18.7962 81.6677 14.1002 80.4243 13.0379C79.5551 12.2954 79.6094 11.6556 79.7784 11.2693C83.732 13.8708 89.8163 20.0758 94.1561 24.7477C93.1662 24.3312 92.1643 23.9328 91.1623 23.5465Z" fill="#00384B"/>
<path d="M30.1687 45.4086C30.1687 40.2961 25.8107 36.1554 20.4326 36.1554C15.0546 36.1554 10.6966 40.2961 10.6966 45.4086C10.6966 46.7848 11.0105 48.0886 11.5778 49.2596H9.79723C9.09706 47.7566 8.70472 46.0846 8.70472 44.3161C8.70472 37.8395 13.956 32.5882 20.4266 32.5882C26.9032 32.5882 32.1545 37.8395 32.1545 44.3161C32.1545 46.0846 31.7622 47.7566 31.062 49.2596H29.2814C29.8488 48.0886 30.1687 46.7848 30.1687 45.4086Z" fill="#086AAD"/>
<path d="M20.4331 36.1555C25.8112 36.1555 30.1691 40.2961 30.1691 45.4086C30.1691 46.7848 29.8553 48.0886 29.2879 49.2596H11.5783C11.0109 48.0886 10.6971 46.7848 10.6971 45.4086C10.6971 40.2961 15.055 36.1555 20.4331 36.1555Z" fill="black"/>
<path d="M12.1515 46.3863C12.1515 50.9616 15.8576 54.6677 20.4269 54.6677C24.9961 54.6677 28.7022 50.9616 28.7022 46.3863C28.7022 41.8171 24.9961 38.111 20.4269 38.111C15.8576 38.1049 12.1515 41.8171 12.1515 46.3863Z" fill="#363635"/>
<path d="M12.1515 46.3863C12.1515 50.9616 15.8576 54.6677 20.4269 54.6677C24.9961 54.6677 28.7022 50.9616 28.7022 46.3863C28.7022 41.8171 24.9961 38.111 20.4269 38.111C15.8576 38.1049 12.1515 41.8171 12.1515 46.3863Z" fill="#222222"/>
<path d="M14.8139 46.3865C14.8139 49.489 17.3309 52.006 20.4334 52.006C23.5359 52.006 26.0529 49.489 26.0529 46.3865C26.0529 43.2841 23.5359 40.7731 20.4334 40.7731C17.3309 40.767 14.8139 43.2841 14.8139 46.3865Z" fill="black"/>
<path d="M15.3026 46.3864C15.3026 49.2172 17.5963 51.517 20.4332 51.517C23.2701 51.517 25.5638 49.2233 25.5638 46.3864C25.5638 43.5555 23.2701 41.2618 20.4332 41.2618C17.5963 41.2618 15.3026 43.5555 15.3026 46.3864Z" fill="#D5D3CB"/>
<path d="M17.8616 43.3322C17.8555 43.2718 17.8616 43.2115 17.8857 43.1571C18.4289 42.6682 19.1352 42.3483 19.9138 42.288C19.9862 42.3061 20.0526 42.3363 20.113 42.3785C20.1371 42.4147 20.1613 42.457 20.1794 42.5053V45.3542C20.1673 45.3905 20.1432 45.4267 20.1251 45.4629C20.1069 45.4689 20.0949 45.481 20.0768 45.487C20.0285 45.481 19.9862 45.475 19.9379 45.4569L17.8917 43.4107C17.8736 43.3865 17.8676 43.3563 17.8616 43.3322Z" fill="#4C4C49"/>
<path d="M16.3647 46.1453C16.3164 46.1091 16.2742 46.0608 16.2561 46.0065C16.2983 45.2701 16.57 44.5518 17.077 43.9603C17.1373 43.918 17.2098 43.8939 17.2822 43.8878C17.3305 43.8999 17.3727 43.912 17.415 43.9301L19.431 45.9461C19.4491 45.9823 19.4612 46.0246 19.4672 46.0608C19.4612 46.0789 19.4552 46.097 19.4491 46.1151C19.4129 46.1453 19.3706 46.1694 19.3284 46.1936H16.4372C16.407 46.1755 16.3828 46.1634 16.3647 46.1453Z" fill="#4C4C49"/>
<path d="M17.3426 49.1086C17.2822 49.1146 17.2218 49.1146 17.1615 49.0905C16.6605 48.5533 16.3285 47.8531 16.2561 47.0805C16.2682 47.0081 16.2983 46.9417 16.3466 46.8813C16.3828 46.8572 16.4251 46.833 16.4673 46.8089L19.3163 46.7606C19.3525 46.7727 19.3948 46.7908 19.425 46.8149C19.437 46.833 19.4431 46.8451 19.4491 46.8632C19.4491 46.9115 19.437 46.9538 19.425 47.002L17.415 49.0845C17.3908 49.0905 17.3667 49.1026 17.3426 49.1086Z" fill="#4C4C49"/>
<path d="M20.1067 50.3762C20.0705 50.4245 20.0222 50.4607 19.9679 50.4849C19.2315 50.4366 18.5132 50.1529 17.9338 49.6398C17.8976 49.5734 17.8734 49.507 17.8614 49.4346C17.8734 49.3923 17.8855 49.3441 17.9036 49.3018L19.9498 47.316C19.986 47.3039 20.0283 47.2918 20.0645 47.2798C20.0826 47.2858 20.1007 47.2918 20.1188 47.2979C20.149 47.3341 20.1731 47.3703 20.1912 47.4125L20.149 50.3038C20.1369 50.3279 20.1188 50.3581 20.1067 50.3762Z" fill="#4C4C49"/>
<path d="M23.004 43.3322C23.01 43.2718 23.004 43.2115 22.9859 43.1571C22.4366 42.6682 21.7364 42.3483 20.9578 42.288C20.8853 42.3061 20.8189 42.3363 20.7586 42.3785C20.7344 42.4147 20.7103 42.457 20.6922 42.5053V45.3542C20.7103 45.3905 20.7284 45.4267 20.7465 45.4629C20.7646 45.4689 20.7827 45.481 20.7948 45.487C20.8431 45.481 20.8853 45.475 20.9336 45.4569L22.9798 43.4107C22.9859 43.3865 22.9979 43.3563 23.004 43.3322Z" fill="#4C4C49"/>
<path d="M24.5012 46.1453C24.5495 46.1091 24.5857 46.0608 24.6098 46.0065C24.5736 45.2701 24.296 44.5518 23.7889 43.9603C23.7286 43.918 23.6562 43.8939 23.5837 43.8878C23.5354 43.8999 23.4932 43.912 23.4449 43.9301L21.4289 45.9461C21.4108 45.9823 21.4047 46.0246 21.3927 46.0608C21.3987 46.0789 21.4047 46.097 21.4108 46.1151C21.447 46.1453 21.4892 46.1694 21.5315 46.1936H24.4227C24.4529 46.1755 24.477 46.1634 24.5012 46.1453Z" fill="#4C4C49"/>
<path d="M23.5234 49.1086C23.5838 49.1146 23.6441 49.1146 23.7045 49.0905C24.2055 48.5533 24.5375 47.8531 24.6039 47.0805C24.5918 47.0081 24.5616 46.9417 24.5133 46.8813C24.4771 46.8572 24.4349 46.833 24.3926 46.8089L21.5436 46.7606C21.5014 46.7727 21.4712 46.7908 21.435 46.8149C21.4289 46.833 21.4169 46.8451 21.4108 46.8632C21.4169 46.9115 21.4229 46.9538 21.435 47.002L23.445 49.0845C23.4691 49.0905 23.4993 49.1026 23.5234 49.1086Z" fill="#4C4C49"/>
<path d="M20.7589 50.3762C20.7951 50.4245 20.8434 50.4607 20.9037 50.4849C21.6401 50.4366 22.3524 50.1529 22.9379 49.6398C22.9801 49.5734 23.0043 49.507 23.0103 49.4346C22.9982 49.3923 22.9861 49.3441 22.968 49.3018L20.9279 47.316C20.8856 47.3039 20.8494 47.2918 20.8072 47.2798C20.7891 47.2858 20.7709 47.2918 20.7528 47.2979C20.7227 47.3341 20.6985 47.3703 20.6804 47.4125L20.7227 50.3038C20.7287 50.3279 20.7408 50.3581 20.7589 50.3762Z" fill="#4C4C49"/>
<path d="M18.9243 46.3865C18.9243 47.2194 19.6004 47.8955 20.4333 47.8955C21.2663 47.8955 21.9423 47.2194 21.9423 46.3865C21.9423 45.5535 21.2663 44.8835 20.4333 44.8835C19.6004 44.8835 18.9243 45.5535 18.9243 46.3865Z" fill="#D5D3CB"/>
<path d="M19.4548 45.6441C19.4548 45.7467 19.5393 45.8312 19.642 45.8312C19.7446 45.8312 19.8291 45.7467 19.8291 45.6441C19.8291 45.5414 19.7446 45.4569 19.642 45.4569C19.5393 45.4569 19.4548 45.5414 19.4548 45.6441Z" fill="#4C4C49"/>
<path d="M20.2398 45.3786C20.2398 45.4812 20.3243 45.5657 20.4269 45.5657C20.5295 45.5657 20.614 45.4812 20.614 45.3786C20.614 45.276 20.5295 45.1915 20.4269 45.1915C20.3183 45.1915 20.2398 45.276 20.2398 45.3786Z" fill="#4C4C49"/>
<path d="M21.0306 45.6743C21.0306 45.7769 21.1151 45.8614 21.2178 45.8614C21.3204 45.8614 21.4049 45.7769 21.4049 45.6743C21.4049 45.5717 21.3204 45.4872 21.2178 45.4872C21.1151 45.4872 21.0306 45.5717 21.0306 45.6743Z" fill="#4C4C49"/>
<path d="M19.4548 47.286C19.4548 47.1834 19.5393 47.0989 19.642 47.0989C19.7446 47.0989 19.8291 47.1834 19.8291 47.286C19.8291 47.3886 19.7446 47.4731 19.642 47.4731C19.5393 47.4731 19.4548 47.3886 19.4548 47.286Z" fill="#4C4C49"/>
<path d="M19.0869 46.501C19.0869 46.3984 19.1714 46.3139 19.274 46.3139C19.3766 46.3139 19.4612 46.3984 19.4612 46.501C19.4612 46.6036 19.3766 46.6881 19.274 46.6881C19.1714 46.6881 19.0869 46.6036 19.0869 46.501Z" fill="#4C4C49"/>
<path d="M21.3986 46.501C21.3986 46.3984 21.4831 46.3139 21.5857 46.3139C21.6883 46.3139 21.7728 46.3984 21.7728 46.501C21.7728 46.6036 21.6883 46.6881 21.5857 46.6881C21.4831 46.6881 21.3986 46.6036 21.3986 46.501Z" fill="#4C4C49"/>
<path d="M20.2398 47.5514C20.2398 47.4488 20.3243 47.3643 20.4269 47.3643C20.5295 47.3643 20.614 47.4488 20.614 47.5514C20.614 47.654 20.5295 47.7385 20.4269 47.7385C20.3183 47.7385 20.2398 47.654 20.2398 47.5514Z" fill="#4C4C49"/>
<path d="M21.0306 47.2557C21.0306 47.1531 21.1151 47.0686 21.2178 47.0686C21.3204 47.0686 21.4049 47.1531 21.4049 47.2557C21.4049 47.3583 21.3204 47.4428 21.2178 47.4428C21.1151 47.4428 21.0306 47.3583 21.0306 47.2557Z" fill="#4C4C49"/>
<path d="M8.70472 44.3161C8.70472 37.8395 13.956 32.5882 20.4266 32.5882C26.9032 32.5882 32.1545 37.8395 32.1545 44.3161C32.1545 46.0846 31.7622 47.7566 31.062 49.2596H30.7904C31.3698 47.9015 31.6958 46.4045 31.6958 44.8291C31.6958 38.6061 26.6497 33.56 20.4266 33.56C14.2035 33.56 9.15742 38.6061 9.15742 44.8291C9.15742 46.4045 9.48336 47.9015 10.0628 49.2596H9.7912C9.09706 47.7566 8.70472 46.0846 8.70472 44.3161Z" fill="#E3E3E3"/>
<path d="M94.9051 17.6973L96.1847 26.4857L98.3577 26.9142L97.0539 18.0112L94.9051 17.6973Z" fill="#222222"/>
<path opacity="0.3" d="M98.0316 18.5845C98.0316 18.5845 110.798 21.7293 118.005 24.9102C118.005 24.9102 119.773 28.8819 120.968 32.9924C120.968 32.9924 116.804 25.4293 113.556 24.1739C110.315 22.9123 98.0316 18.5845 98.0316 18.5845Z" fill="white"/>
<path d="M3.22434 44.4671L1.20229 44.5999C1.20229 44.5999 0.646978 44.6301 0.496078 45.0103L0.00112783 46.4529C0.00112783 46.4529 -0.0350881 46.6763 0.302927 46.634C0.634906 46.5918 2.28876 46.3805 2.28876 46.3805C2.28876 46.3805 2.60264 46.3624 2.81993 46.1572C3.03119 45.952 3.55028 44.6663 3.55028 44.6663C3.55028 44.6663 3.62875 44.4067 3.22434 44.4671Z" fill="#5D1707"/>
<path d="M2.31916 44.8534L0.942952 44.944C0.942952 44.944 0.562685 44.9621 0.460074 45.2216L0.122059 46.2055C0.122059 46.2055 0.0979151 46.3564 0.327282 46.3323C0.55665 46.3021 1.67934 46.1633 1.67934 46.1633C1.67934 46.1633 1.89664 46.1512 2.0415 46.0063C2.18636 45.8675 2.53645 44.9923 2.53645 44.9923C2.53645 44.9923 2.5606 44.781 2.31916 44.8534Z" fill="#E3301F"/>
<path d="M3.04346 31.532C3.52634 31.7493 4.01525 32.1175 4.31705 32.6004C4.62489 33.0953 4.7275 33.6869 4.7456 34.2723C4.76371 34.7673 4.73957 35.2683 4.73353 35.7572C4.72146 36.2582 4.70939 36.7652 4.67921 37.2662C4.64903 37.7249 4.61885 38.1837 4.52831 38.6303C4.46795 38.92 4.39552 39.2218 4.20237 39.4391C3.94886 39.7228 3.62291 39.9039 3.31508 40.0971C2.92274 40.3385 2.52436 40.5679 2.11995 40.7912C1.75176 40.9904 0.846362 41.6362 0.816182 41.3948L0.80411 30.8922L1.04555 30.6025C1.08176 30.6145 1.11194 30.6266 1.13609 30.6387C1.35338 30.7171 1.57068 30.8137 1.78194 30.9163C2.20446 31.1155 2.6149 31.3389 3.04346 31.532Z" fill="#DC4E14"/>
<path d="M4.74546 35.2265C4.74546 35.4075 4.73943 35.5826 4.73339 35.7637C4.72132 36.2647 4.70925 36.7717 4.67907 37.2727C4.64889 37.7314 4.61871 38.1901 4.52817 38.6368C4.46781 38.9265 4.39538 39.2283 4.20222 39.4456C3.94871 39.7233 3.62277 39.9043 3.31494 40.0975C2.9226 40.3389 2.52422 40.5683 2.11981 40.7916C1.75162 40.9908 0.84622 41.6367 0.81604 41.3952L0.810004 35.7274L4.74546 35.2265Z" fill="#DC4E14"/>
<path d="M1.13027 30.8864C1.13027 30.8864 4.06376 31.9065 4.28709 33.2646C4.51042 34.6227 4.11205 38.8478 4.11205 38.8478C4.11205 38.8478 4.10601 39.2462 3.64728 39.5178L3.90682 34.7132C3.90682 34.7132 4.08187 32.9688 3.04368 32.2988C2.00549 31.6348 1.13027 30.8864 1.13027 30.8864Z" fill="#E3301F"/>
</svg>
