<svg width="25" height="26" viewBox="0 0 25 26" fill="none" xmlns="http://www.w3.org/2000/svg">
<path d="M15.1042 16.7916C15.6795 16.7916 16.1458 16.3066 16.1458 15.7083C16.1458 15.11 15.6795 14.625 15.1042 14.625C14.5289 14.625 14.0625 15.11 14.0625 15.7083C14.0625 16.3066 14.5289 16.7916 15.1042 16.7916Z" fill="#999999"/>
<path d="M9.89575 11.375C10.471 11.375 10.9374 10.8899 10.9374 10.2916C10.9374 9.69334 10.471 9.20831 9.89575 9.20831C9.32046 9.20831 8.85409 9.69334 8.85409 10.2916C8.85409 10.8899 9.32046 11.375 9.89575 11.375Z" fill="#999999"/>
<path d="M23.8057 12.617L21.7071 10.4341L22.4751 7.45255C22.5108 7.31381 22.4921 7.16598 22.4231 7.04159C22.354 6.9172 22.2403 6.82642 22.1069 6.78923L19.2395 5.99032L18.4717 3.00878C18.4541 2.94006 18.4235 2.87563 18.3819 2.81917C18.3403 2.76272 18.2884 2.71536 18.2291 2.67979C18.1699 2.64423 18.1045 2.62115 18.0367 2.61189C17.9689 2.60263 17.9 2.60737 17.8339 2.62582L14.9668 3.42483L12.8682 1.24203C12.7687 1.14419 12.6369 1.08968 12.5 1.08968C12.363 1.08968 12.2313 1.14419 12.1317 1.24203L10.0331 3.42494L7.16602 2.62582C7.09996 2.60737 7.03105 2.60263 6.96323 2.61189C6.89541 2.62115 6.83001 2.64423 6.77077 2.67979C6.71154 2.71536 6.65962 2.76272 6.618 2.81917C6.57638 2.87563 6.54586 2.94006 6.5282 3.00878L5.76039 5.99032L2.89306 6.78933C2.75966 6.82653 2.64592 6.91731 2.57687 7.0417C2.50782 7.16609 2.4891 7.31391 2.52483 7.45266L3.29285 10.4342L1.19426 12.617C1.14587 12.6673 1.10749 12.727 1.0813 12.7927C1.05511 12.8584 1.04164 12.9288 1.04164 13C1.04164 13.0711 1.05511 13.1415 1.0813 13.2072C1.10749 13.2729 1.14587 13.3326 1.19426 13.3829L3.29285 15.5658L2.52483 18.5473C2.4891 18.686 2.50782 18.8338 2.57687 18.9582C2.64592 19.0826 2.75966 19.1734 2.89306 19.2106L5.76039 20.0096L6.52841 22.9911C6.54607 23.0599 6.57659 23.1243 6.61821 23.1808C6.65983 23.2372 6.71175 23.2846 6.77098 23.3201C6.83022 23.3557 6.89562 23.3788 6.96344 23.388C7.03126 23.3973 7.10017 23.3926 7.16622 23.3741L10.0334 22.5751L12.1319 24.758C12.1803 24.8083 12.2377 24.8482 12.3009 24.8755C12.3641 24.9027 12.4318 24.9167 12.5002 24.9167C12.5686 24.9167 12.6363 24.9027 12.6995 24.8755C12.7627 24.8482 12.8201 24.8083 12.8684 24.758L14.967 22.5751L17.8341 23.3741C17.9002 23.3926 17.9691 23.3973 18.0369 23.388C18.1047 23.3788 18.1701 23.3557 18.2294 23.3201C18.2886 23.2846 18.3405 23.2372 18.3821 23.1808C18.4238 23.1243 18.4543 23.0599 18.4719 22.9911L19.2395 20.0096L22.1067 19.2106C22.2401 19.1734 22.3538 19.0826 22.4228 18.9582C22.4919 18.8338 22.5106 18.686 22.4749 18.5473L21.7069 15.5657L23.8055 13.3828C23.8538 13.3326 23.8922 13.2729 23.9184 13.2072C23.9446 13.1415 23.9581 13.0711 23.9581 13C23.9582 12.9288 23.9447 12.8584 23.9185 12.7927C23.8924 12.727 23.854 12.6673 23.8057 12.617ZM7.81247 10.2916C7.81247 9.86311 7.93466 9.44421 8.16358 9.0879C8.3925 8.7316 8.71787 8.45389 9.09855 8.2899C9.47922 8.12591 9.89811 8.083 10.3022 8.16661C10.7064 8.25021 11.0776 8.45656 11.3689 8.75957C11.6603 9.06259 11.8587 9.44865 11.9391 9.86894C12.0195 10.2892 11.9782 10.7249 11.8205 11.1208C11.6629 11.5167 11.3958 11.8551 11.0532 12.0931C10.7106 12.3312 10.3078 12.4583 9.8958 12.4583C9.34344 12.4577 8.81388 12.2292 8.4233 11.823C8.03273 11.4168 7.81305 10.8661 7.81247 10.2916ZM9.79163 17.6583C9.70875 17.7732 9.58537 17.8492 9.44863 17.8695C9.31188 17.8898 9.17298 17.8528 9.06247 17.7666C8.95196 17.6804 8.87891 17.5521 8.85937 17.4099C8.83984 17.2677 8.87542 17.1232 8.9583 17.0083L15.2083 8.34164C15.2912 8.22671 15.4146 8.15073 15.5513 8.13042C15.619 8.12036 15.688 8.12427 15.7542 8.14192C15.8205 8.15957 15.8827 8.19063 15.9375 8.23331C15.9922 8.27599 16.0383 8.32946 16.0731 8.39066C16.108 8.45187 16.1309 8.51962 16.1406 8.59004C16.1502 8.66045 16.1465 8.73216 16.1295 8.80107C16.1125 8.86998 16.0827 8.93473 16.0416 8.99164L9.79163 17.6583ZM15.1041 17.875C14.6921 17.875 14.2893 17.7479 13.9467 17.5098C13.6041 17.2717 13.3371 16.9333 13.1794 16.5374C13.0217 16.1415 12.9804 15.7059 13.0608 15.2856C13.1412 14.8653 13.3396 14.4792 13.631 14.1762C13.9223 13.8732 14.2936 13.6669 14.6977 13.5833C15.1018 13.4997 15.5207 13.5426 15.9014 13.7066C16.2821 13.8705 16.6074 14.1483 16.8363 14.5046C17.0653 14.8609 17.1875 15.2798 17.1875 15.7083C17.1869 16.2827 16.9672 16.8335 16.5766 17.2397C16.186 17.6459 15.6565 17.8744 15.1041 17.875Z" fill="#999999"/>
</svg>
