<svg width="24" height="24" viewBox="0 0 24 24" fill="none" xmlns="http://www.w3.org/2000/svg">
<g clip-path="url(#clip0_2_38751)">
<path d="M16.6192 0C16.6751 0 16.7309 0 16.7899 0C16.9269 1.69253 16.2809 2.95719 15.4958 3.87301C14.7254 4.78251 13.6704 5.6646 11.9642 5.53076C11.8504 3.86247 12.4975 2.69161 13.2816 1.77789C14.0087 0.92636 15.3419 0.168621 16.6192 0Z" fill="#212121"/>
<path d="M21.7841 17.6166C21.7841 17.6335 21.7841 17.6482 21.7841 17.6641C21.3046 19.1163 20.6206 20.3609 19.7859 21.516C19.024 22.5646 18.0903 23.9757 16.423 23.9757C14.9824 23.9757 14.0254 23.0494 12.549 23.0241C10.9871 22.9988 10.1282 23.7987 8.70019 24C8.53684 24 8.37348 24 8.21329 24C7.16468 23.8482 6.31842 23.0178 5.7019 22.2695C3.88396 20.0585 2.47914 17.2025 2.21777 13.5476C2.21777 13.1893 2.21777 12.832 2.21777 12.4737C2.32843 9.85797 3.59941 7.73124 5.28878 6.70054C6.18036 6.15253 7.40602 5.68566 8.7708 5.89432C9.3557 5.98496 9.95325 6.1852 10.477 6.38333C10.9734 6.57408 11.5941 6.91237 12.1822 6.89446C12.5806 6.88286 12.9768 6.67525 13.3784 6.52876C14.5545 6.10405 15.7074 5.61715 17.2271 5.84585C19.0535 6.12196 20.3498 6.93345 21.1507 8.18546C19.6057 9.16873 18.3843 10.6505 18.593 13.1808C18.7784 15.4794 20.1148 16.8241 21.7841 17.6166Z" fill="#212121"/>
</g>
<defs>
<clipPath id="clip0_2_38751">
<rect width="24" height="24" fill="white"/>
</clipPath>
</defs>
</svg>
