<svg width="24" height="24" viewBox="0 0 24 24" fill="none" xmlns="http://www.w3.org/2000/svg">
<g clip-path="url(#clip0_2_36402)">
<path d="M23.8604 22.0606C23.793 21.8625 23.5778 21.7567 23.3796 21.824L21.6454 22.4145L19.1958 15.3451C19.3123 15.296 19.4268 15.2432 19.5378 15.1844C19.671 15.114 19.8001 15.0369 19.9247 14.9533C19.987 14.9116 20.0481 14.8683 20.1081 14.8234C20.7077 14.3747 21.1878 13.7732 21.4898 13.0732C21.973 11.9531 21.9597 10.6743 21.4552 9.56876L18.7902 3.53684C18.7108 3.35722 18.5074 3.26778 18.3214 3.3313L11.9999 5.4838L5.67847 3.3313C5.49242 3.26787 5.28908 3.35722 5.20967 3.53684L2.54807 9.56145C2.54802 9.56155 2.54797 9.56164 2.54792 9.56173L2.54666 9.56469C2.29349 10.1195 2.1635 10.7167 2.15732 11.3152C2.15108 11.9136 2.2685 12.5133 2.51014 13.0733C2.95307 14.1 3.77994 14.9137 4.80411 15.3452L2.35452 22.4146L0.620331 21.8241C0.422284 21.7567 0.20694 21.8626 0.139487 22.0607C0.071987 22.2588 0.177925 22.4741 0.376065 22.5416L2.46458 23.2527C2.46477 23.2527 2.46496 23.2528 2.46514 23.2529C2.46528 23.2529 2.46542 23.2529 2.46557 23.253L4.59992 23.9797C4.64038 23.9934 4.68158 24 4.72208 24C4.87982 24 5.0271 23.9007 5.08077 23.7431C5.14827 23.545 5.04233 23.3297 4.84419 23.2622L3.07199 22.6588L5.52224 15.5876C5.8715 15.6762 6.2286 15.7203 6.58494 15.7203C7.26791 15.7203 7.94802 15.559 8.56471 15.242C8.60581 15.2209 8.64664 15.1991 8.68719 15.1765C8.95377 15.0284 9.20178 14.8535 9.42819 14.6559C10.1074 14.0632 10.592 13.2669 10.7983 12.3791L11.9999 7.47589L12.5708 9.80525C12.5708 9.80534 12.5708 9.80544 12.5708 9.80553L13.2005 12.3746C13.4765 13.5627 14.2464 14.584 15.3126 15.1764C15.9586 15.5353 16.6807 15.7187 17.4064 15.72C17.4092 15.72 17.4121 15.7202 17.4149 15.7202C17.7712 15.7202 18.1283 15.676 18.4776 15.5875L20.9278 22.6587L19.1557 23.2621C18.9576 23.3296 18.8517 23.5449 18.9192 23.743C18.9729 23.9006 19.1201 23.9999 19.2778 23.9999C19.3183 23.9999 19.3596 23.9933 19.4 23.9796L21.5344 23.2528C21.5345 23.2528 21.5346 23.2528 21.5348 23.2528C21.535 23.2527 21.5352 23.2526 21.5353 23.2525L23.6239 22.5414C23.822 22.4741 23.9279 22.2588 23.8604 22.0606ZM10.7636 9.33645H6.04081C5.83152 9.33645 5.66188 9.50605 5.66188 9.71539C5.66188 9.92473 5.83156 10.0943 6.04081 10.0943H10.5779L10.061 12.2031C9.86183 13.0605 9.3508 13.8126 8.63703 14.3146C8.53508 14.3863 8.42896 14.4529 8.31903 14.5139C7.76942 14.8193 7.15292 14.9707 6.53535 14.9621C6.1648 14.957 5.79383 14.8942 5.43669 14.7726L5.40739 14.7627C5.40725 14.7626 5.40716 14.7626 5.40697 14.7625C5.40683 14.7625 5.4066 14.7624 5.40646 14.7624L5.3315 14.7369C5.21244 14.6964 5.09619 14.6497 4.98308 14.5973C4.83411 14.5283 4.69133 14.4484 4.55427 14.3602C4.51381 14.3342 4.47392 14.3073 4.43455 14.2797C4.22094 14.1298 4.02449 13.9572 3.84861 13.7647C3.58339 13.4746 3.36444 13.1406 3.20586 12.773C3.20469 12.7704 3.20375 12.7676 3.20258 12.7649C3.17994 12.7121 3.15861 12.6588 3.13864 12.6052C3.13138 12.5856 3.12505 12.5658 3.11811 12.5461C3.10508 12.5091 3.092 12.472 3.08019 12.4346C3.07288 12.4114 3.0665 12.388 3.05966 12.3646C3.04958 12.3304 3.03955 12.2961 3.03055 12.2616C3.02413 12.2369 3.01846 12.2121 3.01255 12.1872C3.00463 12.1538 2.99675 12.1204 2.98977 12.0867C2.98447 12.0612 2.97983 12.0356 2.97505 12.01C2.96896 11.9769 2.9631 11.9437 2.95789 11.9104C2.95386 11.8844 2.95025 11.8584 2.94683 11.8324C2.94242 11.7991 2.93839 11.7658 2.93492 11.7325C2.93221 11.7065 2.92977 11.6804 2.92761 11.6543C2.92485 11.6206 2.92264 11.587 2.92086 11.5533C2.9195 11.5275 2.91819 11.5017 2.91735 11.476C2.91622 11.4416 2.91594 11.4072 2.9158 11.3728C2.91571 11.3477 2.91552 11.3226 2.91594 11.2975C2.9166 11.2618 2.91814 11.2263 2.91988 11.1907C2.921 11.1669 2.92185 11.1431 2.92349 11.1192C2.92607 11.0811 2.92982 11.0431 2.93366 11.0051C2.93577 10.9839 2.93741 10.9627 2.93989 10.9415C2.94514 10.8967 2.9518 10.8521 2.95878 10.8076C2.96099 10.7932 2.96267 10.7788 2.96511 10.7645C2.97519 10.7051 2.98663 10.6458 2.99971 10.5868C3.00078 10.582 3.00214 10.5773 3.00317 10.5725C3.01527 10.5189 3.02849 10.4655 3.04311 10.4124C3.04808 10.3943 3.05394 10.3765 3.05919 10.3585C3.07077 10.3189 3.08244 10.2792 3.09542 10.2399C3.10255 10.2184 3.11047 10.197 3.11807 10.1755C3.12763 10.1484 3.13742 10.1213 3.14764 10.0943H4.52516C4.73446 10.0943 4.9041 9.92473 4.9041 9.71539C4.9041 9.50605 4.73441 9.33645 4.52516 9.33645H3.4761L5.7628 4.16061L11.5493 6.13091L10.7636 9.33645ZM18.6683 14.7369L18.5932 14.7624C18.5931 14.7625 18.593 14.7625 18.5928 14.7625C18.5927 14.7626 18.5926 14.7626 18.5926 14.7626L18.5632 14.7726C17.6109 15.0969 16.5603 15.0027 15.6809 14.5139C14.8015 14.0253 14.1665 13.183 13.9378 12.1986L13.4221 10.0943H17.5876C17.7969 10.0943 17.9666 9.92473 17.9666 9.71539C17.9666 9.50605 17.7969 9.33645 17.5876 9.33645H13.2364L12.4507 6.13091L18.2373 4.16066L20.5241 9.3365H19.1035C18.8942 9.3365 18.7245 9.50609 18.7245 9.71544C18.7245 9.92478 18.8942 10.0944 19.1035 10.0944H20.8527C20.8627 10.1209 20.8723 10.1475 20.8817 10.1742C20.8897 10.1969 20.8982 10.2196 20.9057 10.2425C20.918 10.2799 20.9291 10.3176 20.9402 10.3554C20.9459 10.3751 20.9524 10.3947 20.9578 10.4144C20.9723 10.4675 20.9855 10.5208 20.9975 10.5743C20.9986 10.579 20.9999 10.5836 21.0009 10.5883C21.0138 10.6466 21.0251 10.7051 21.035 10.7638C21.0382 10.7826 21.0404 10.8015 21.0433 10.8203C21.0494 10.8604 21.0555 10.9004 21.0602 10.9407C21.0629 10.9638 21.0647 10.9869 21.067 11.01C21.0705 11.0461 21.0741 11.0822 21.0765 11.1184C21.0782 11.1432 21.0791 11.1682 21.0803 11.1931C21.0819 11.2276 21.0834 11.2621 21.084 11.2966C21.0845 11.3224 21.0843 11.3481 21.0842 11.3739C21.084 11.4077 21.0837 11.4414 21.0826 11.4752C21.0818 11.5013 21.0805 11.5275 21.079 11.5536C21.0772 11.587 21.075 11.6204 21.0723 11.6537C21.0702 11.6799 21.0677 11.7061 21.065 11.7322C21.0615 11.7656 21.0575 11.7989 21.0531 11.8321C21.0497 11.858 21.0461 11.884 21.042 11.9099C21.0368 11.9434 21.0309 11.9767 21.0247 12.01C21.0201 12.0355 21.0154 12.0609 21.0101 12.0863C21.0031 12.1202 20.9952 12.1539 20.9871 12.1876C20.9813 12.2121 20.9757 12.2367 20.9694 12.2611C20.9603 12.2961 20.9501 12.3308 20.9398 12.3656C20.9332 12.3884 20.9269 12.4114 20.9198 12.4341C20.9077 12.4723 20.8944 12.5103 20.881 12.5482C20.8743 12.5671 20.8683 12.5861 20.8613 12.6049C20.8403 12.6613 20.818 12.7175 20.794 12.7731C20.7658 12.8383 20.7354 12.9021 20.7036 12.9652C20.4084 13.5506 19.9575 14.0405 19.4071 14.3846C19.3342 14.4302 19.2603 14.4741 19.184 14.5144C19.0192 14.6015 18.8469 14.6761 18.6683 14.7369Z" fill="black"/>
<path d="M12 0C11.7907 0 11.6211 0.169594 11.6211 0.378937V1.82344C11.6211 2.03273 11.7908 2.20237 12 2.20237C12.2093 2.20237 12.379 2.03269 12.379 1.82344V0.378937C12.379 0.169594 12.2093 0 12 0Z" fill="black"/>
<path d="M15.2545 1.27705C15.119 1.11753 14.8798 1.09831 14.7204 1.23378L13.5173 2.25692C13.3578 2.39253 13.3385 2.63169 13.474 2.79106C13.5491 2.87923 13.6557 2.92456 13.7629 2.92456C13.8497 2.92456 13.9369 2.89489 14.0082 2.83433L15.2114 1.81119C15.3708 1.67558 15.3901 1.43642 15.2545 1.27705Z" fill="black"/>
<path d="M10.4826 2.2569L9.27942 1.23376C9.12 1.0983 8.88089 1.11756 8.74528 1.27703C8.60972 1.43645 8.62908 1.67556 8.7885 1.81117L9.99164 2.83431C10.0629 2.89487 10.1502 2.92455 10.2369 2.92455C10.3442 2.92455 10.4508 2.87922 10.5258 2.79105C10.6614 2.63167 10.642 2.39247 10.4826 2.2569Z" fill="black"/>
</g>
<defs>
<clipPath id="clip0_2_36402">
<rect width="24" height="24" fill="white"/>
</clipPath>
</defs>
</svg>
