<svg width="24" height="24" viewBox="0 0 24 24" fill="none" xmlns="http://www.w3.org/2000/svg">
<g clip-path="url(#clip0_2_36417)">
<mask id="mask0_2_36417" style="mask-type:luminance" maskUnits="userSpaceOnUse" x="0" y="0" width="24" height="24">
<path d="M0 1.90735e-06H24V24H0V1.90735e-06Z" fill="white"/>
</mask>
<g mask="url(#mask0_2_36417)">
<path fill-rule="evenodd" clip-rule="evenodd" d="M15.7819 20.2667C15.7819 20.4608 15.9393 20.6182 16.1334 20.6182H18.388C18.5177 20.6182 18.6368 20.5469 18.698 20.4325C18.7592 20.3182 18.7525 20.1795 18.6806 20.0716L17.9881 19.0329V14.2201C17.9881 14.067 18.0334 13.9172 18.1184 13.7898L18.6806 12.9465C18.7883 12.785 18.7446 12.5667 18.5831 12.459C18.4215 12.3513 18.2032 12.395 18.0955 12.5565L17.5333 13.3998L17.5333 13.3998C17.3714 13.6427 17.2849 13.9281 17.2849 14.2201V19.1394C17.2849 19.2088 17.3055 19.2766 17.344 19.3344L17.7311 19.9151H16.485V16.5091C16.485 16.4669 16.4774 16.4251 16.4626 16.3856L15.3354 13.3796C15.2672 13.1978 15.0646 13.1057 14.8828 13.1738C14.701 13.242 14.6088 13.4447 14.677 13.6265L15.7819 16.5728V20.2667Z" fill="black"/>
<path fill-rule="evenodd" clip-rule="evenodd" d="M14.2788 20.2666C14.2788 20.4608 14.4362 20.6182 14.6304 20.6182H16.1334C16.3276 20.6182 16.485 20.4608 16.485 20.2666C16.485 20.0724 16.3276 19.915 16.1334 19.915H14.982V16.5091C14.982 16.4669 14.9744 16.4251 14.9596 16.3856L14.632 15.5121C14.5638 15.3303 14.3612 15.2382 14.1794 15.3064C13.9976 15.3745 13.9055 15.5772 13.9737 15.759L14.2788 16.5728V20.2666Z" fill="black"/>
<path fill-rule="evenodd" clip-rule="evenodd" d="M3.38189 20.2667C3.38189 20.4608 3.53929 20.6182 3.73345 20.6182H5.988C6.11765 20.6182 6.23678 20.5469 6.29796 20.4326C6.35914 20.3182 6.35244 20.1795 6.28052 20.0717L5.58806 19.0329V14.7556C5.58806 14.5064 5.66886 14.264 5.81835 14.0647L5.81836 14.0647L6.645 12.9625C6.7615 12.8071 6.73001 12.5868 6.57468 12.4703C6.41935 12.3538 6.19899 12.3853 6.08249 12.5406L5.25587 13.6428C5.01507 13.9638 4.88494 14.3543 4.88494 14.7556V19.1394C4.88494 19.2088 4.90548 19.2766 4.94398 19.3344L5.33111 19.9151H4.08501V16.5091C4.08501 16.4749 4.08002 16.4409 4.07019 16.4081L3.19648 13.4957C3.03818 12.968 2.95776 12.4201 2.95776 11.8691V9.74548C2.95776 8.69449 3.80973 7.84249 4.8607 7.84249H14.511C14.8881 7.84249 15.2606 7.76067 15.603 7.60268L15.6031 7.60266L17.5959 6.68288C17.7722 6.60151 17.8491 6.39264 17.7678 6.21635C17.6864 6.04006 17.4775 5.96311 17.3012 6.04448L15.3085 6.96424C15.3085 6.96425 15.3084 6.96425 15.3084 6.96426C15.0584 7.07963 14.7863 7.13937 14.511 7.13937H4.8607C3.42139 7.13937 2.25464 8.30618 2.25464 9.74548V11.8691C2.25464 12.4885 2.34504 13.1045 2.52301 13.6977L2.85975 13.5967L2.52301 13.6977L3.38189 16.5607V20.2667Z" fill="black"/>
<path fill-rule="evenodd" clip-rule="evenodd" d="M4.88477 20.2667C4.88477 20.4608 5.04217 20.6182 5.23633 20.6182H7.49088C7.62053 20.6182 7.73966 20.5469 7.80084 20.4326C7.86202 20.3182 7.85531 20.1795 7.7834 20.0717L7.09094 19.0329V15.8828C7.09094 15.6337 7.17174 15.3913 7.32122 15.192L7.32125 15.192L7.51803 14.9296C7.63452 14.7742 7.60302 14.5539 7.44769 14.4374C7.29235 14.3209 7.07199 14.3524 6.9555 14.5077L6.75875 14.7701C6.75874 14.7701 6.75873 14.7701 6.75872 14.7701C6.51794 15.0911 6.38781 15.4816 6.38781 15.8828V19.1394C6.38781 19.2088 6.40836 19.2766 6.44685 19.3344L6.83399 19.9151H5.23633C5.04217 19.9151 4.88477 20.0725 4.88477 20.2667Z" fill="black"/>
<path fill-rule="evenodd" clip-rule="evenodd" d="M7.66592 15.2035C9.19261 15.8108 11.6997 16.2735 15.6863 15.7935C15.8791 15.7703 16.0166 15.5952 15.9934 15.4025C15.9701 15.2097 15.7951 15.0722 15.6023 15.0954C11.702 15.565 9.31825 15.104 7.9258 14.5502C7.22951 14.2732 6.77773 13.9717 6.50517 13.7476C6.36868 13.6354 6.27649 13.542 6.22063 13.48C6.19269 13.449 6.1738 13.4258 6.16296 13.4119C6.15755 13.4049 6.15415 13.4003 6.15263 13.3982C6.15233 13.3978 6.1521 13.3975 6.15195 13.3973C6.04249 13.2386 5.82533 13.1976 5.66541 13.3059C5.50466 13.4148 5.46262 13.6334 5.57152 13.7941L5.86258 13.597C5.57152 13.7941 5.57173 13.7944 5.57194 13.7948L5.57241 13.7954L5.57349 13.797C5.57427 13.7981 5.57518 13.7994 5.5762 13.8009C5.57826 13.8038 5.58082 13.8074 5.58389 13.8117C5.59003 13.8201 5.59823 13.8311 5.60861 13.8444C5.62939 13.871 5.65891 13.907 5.69818 13.9506C5.77675 14.0378 5.89421 14.1556 6.0586 14.2907C6.38778 14.5614 6.90264 14.8999 7.66592 15.2035Z" fill="black"/>
<path fill-rule="evenodd" clip-rule="evenodd" d="M17.4086 15.1079C17.4778 15.2893 17.681 15.3802 17.8624 15.3109C19.0066 14.8739 20.1322 14.0647 20.5597 12.6295C20.6638 12.2801 20.8633 11.5818 21.0361 10.9732C21.1227 10.6684 21.2028 10.3853 21.2612 10.1784C21.2769 10.123 21.291 10.0731 21.3033 10.0296L22.9274 9.56556C23.5623 9.38416 24 8.80391 24 8.14363V7.86665C24 7.75193 23.944 7.64443 23.85 7.57864L20.5776 5.288C20.2027 5.02556 19.7562 4.88484 19.2986 4.88484H16.509C16.396 4.88484 16.2899 4.93916 16.2238 5.03084C16.1578 5.12252 16.1398 5.24037 16.1755 5.34758L16.509 5.2364C16.1755 5.34758 16.1756 5.34776 16.1756 5.34795L16.1758 5.34834L16.1761 5.34922L16.1768 5.35128C16.1771 5.35231 16.1775 5.35346 16.178 5.35473L16.1786 5.35665C16.1801 5.36078 16.182 5.36598 16.1843 5.3722C16.1889 5.38464 16.1954 5.40117 16.2038 5.42132C16.2207 5.4616 16.2456 5.5165 16.2801 5.58215C16.3491 5.71326 16.4573 5.88849 16.6179 6.07579C16.9413 6.45311 17.4721 6.87285 18.3026 7.08047C18.4909 7.12756 18.6818 7.01303 18.7289 6.82467C18.776 6.6363 18.6615 6.44542 18.4731 6.39833C17.8005 6.2302 17.3919 5.89844 17.1517 5.6182C17.143 5.60806 17.1345 5.59798 17.1263 5.58796H19.2986C19.612 5.58796 19.9177 5.68433 20.1744 5.86402L23.2969 8.0497V8.14363C23.2969 8.48995 23.0673 8.79433 22.7342 8.88949C22.7342 8.88949 22.7343 8.88949 22.7342 8.88949L20.9215 9.40741C20.8043 9.44091 20.7128 9.53276 20.6797 9.65013L21.0181 9.74545C20.6797 9.65013 20.6797 9.65011 20.6797 9.65013L20.6797 9.65022L20.6541 9.74117C20.6376 9.79963 20.6138 9.88393 20.5846 9.98727C20.5262 10.1939 20.4462 10.4767 20.3597 10.7811C20.1865 11.391 19.9884 12.0845 19.8858 12.4287C19.5433 13.5787 18.6389 14.2617 17.6115 14.6541C17.4302 14.7234 17.3393 14.9266 17.4086 15.1079Z" fill="black"/>
<path fill-rule="evenodd" clip-rule="evenodd" d="M0.156583 16.8016C0.318134 16.9093 0.536409 16.8656 0.644114 16.7041L1.0801 16.0501C1.32433 15.6837 1.45466 15.2533 1.45466 14.8129V10.1212C1.45466 9.27775 2.13843 8.59398 2.9819 8.59398C3.17606 8.59398 3.33346 8.43658 3.33346 8.24242C3.33346 8.04825 3.17606 7.89085 2.9819 7.89085C1.75011 7.89085 0.751537 8.88943 0.751537 10.1212V14.8129C0.751537 15.1145 0.662299 15.4092 0.49507 15.6601C0.495066 15.6601 0.495073 15.6601 0.49507 15.6601L0.0590855 16.314C-0.0486193 16.4756 -0.0049681 16.6939 0.156583 16.8016Z" fill="black"/>
<path fill-rule="evenodd" clip-rule="evenodd" d="M19.1395 4.88483C18.7111 4.88483 18.3638 4.53756 18.3638 4.10914V3.73339C18.3638 3.53923 18.2064 3.38183 18.0122 3.38183C17.818 3.38183 17.6606 3.53923 17.6606 3.73339V4.10914C17.6606 4.9259 18.3228 5.58795 19.1395 5.58795C19.3336 5.58795 19.491 5.43055 19.491 5.23639C19.491 5.04223 19.3336 4.88483 19.1395 4.88483Z" fill="black"/>
<path fill-rule="evenodd" clip-rule="evenodd" d="M19.6611 5.49848C19.8057 5.36896 19.818 5.1467 19.6885 5.00205C19.5654 4.8646 19.491 4.68387 19.491 4.48488V4.10913C19.491 3.91497 19.3336 3.75757 19.1394 3.75757C18.9452 3.75757 18.7878 3.91497 18.7878 4.10913V4.48488C18.7878 4.86349 18.9305 5.20964 19.1647 5.47109C19.2942 5.61574 19.5164 5.628 19.6611 5.49848Z" fill="black"/>
<path fill-rule="evenodd" clip-rule="evenodd" d="M19.5393 7.11517C19.5393 7.30934 19.6967 7.46674 19.8909 7.46674H19.8946C20.0888 7.46674 20.2462 7.30934 20.2462 7.11517C20.2462 6.92101 20.0888 6.76361 19.8946 6.76361H19.8909C19.6967 6.76361 19.5393 6.92101 19.5393 7.11517Z" fill="black"/>
<path fill-rule="evenodd" clip-rule="evenodd" d="M16.7114 8.07421C16.8662 7.95691 16.8965 7.73639 16.7792 7.58166C16.619 7.37026 16.4658 7.19258 16.3527 7.06758C16.2959 7.00495 16.249 6.95521 16.2157 6.92071C16.1991 6.90346 16.1859 6.88999 16.1767 6.88061C16.172 6.87592 16.1684 6.87225 16.1657 6.86963L16.1626 6.8665L16.1616 6.86553L16.1611 6.86502C16.1611 6.865 16.1611 6.86498 15.9141 7.11516L16.1611 6.86498C16.0229 6.72857 15.8003 6.72999 15.6639 6.86816C15.5275 7.00628 15.5289 7.22876 15.6669 7.36519C15.6669 7.36519 15.6669 7.3652 15.6669 7.36521L15.667 7.36526L15.667 7.3653C15.667 7.36531 15.6671 7.36532 15.6671 7.36534L15.6672 7.36543L15.6688 7.36708C15.6704 7.36871 15.6731 7.37136 15.6767 7.375C15.6839 7.38229 15.6949 7.39354 15.7093 7.40845C15.738 7.43831 15.7801 7.48276 15.8314 7.5395C15.9344 7.65323 16.0738 7.815 16.2189 8.00643C16.3362 8.16116 16.5567 8.1915 16.7114 8.07421Z" fill="black"/>
<path fill-rule="evenodd" clip-rule="evenodd" d="M10.5159 12.2461C10.3316 12.3535 10.0971 12.4203 9.76648 12.4006L9.76648 12.4006C9.24729 12.3696 8.91315 12.2445 8.70608 12.0908C8.50637 11.9426 8.40131 11.7508 8.36596 11.5247C8.29075 11.0437 8.53425 10.3837 9.008 9.80338C9.28106 9.46887 9.42321 9.11661 9.41856 8.76434C9.41389 8.4107 9.26183 8.10455 9.03612 7.86392C8.59618 7.39489 7.85128 7.13934 7.11523 7.13934C6.92107 7.13934 6.76367 7.29674 6.76367 7.4909C6.76367 7.68506 6.92107 7.84246 7.11523 7.84246C7.7178 7.84246 8.25282 8.0566 8.52329 8.34495C8.6528 8.48302 8.71356 8.62748 8.71549 8.77363C8.71744 8.92115 8.65996 9.11785 8.46332 9.35874L8.46331 9.35874C7.92897 10.0133 7.55215 10.8714 7.67127 11.6333C7.73308 12.0286 7.92886 12.3896 8.287 12.6554C8.63778 12.9158 9.11851 13.0663 9.72458 13.1024C10.1807 13.1297 10.5551 13.0371 10.87 12.8536C11.1789 12.6735 11.4077 12.419 11.5956 12.1598C11.7201 11.9881 11.84 11.7941 11.9523 11.6125C12.0031 11.5301 12.0525 11.4503 12.0999 11.3763C12.2614 11.1245 12.4203 10.9064 12.611 10.7348L12.3876 10.4865L12.611 10.7348C13.419 10.0075 14.2742 10.2436 14.5939 10.7355L14.5939 10.7355C14.8626 11.1489 15.2074 11.4028 15.5928 11.4875C15.9748 11.5714 16.3492 11.4787 16.6603 11.2905C17.2701 10.9217 17.7073 10.1456 17.6097 9.3281M12.1406 10.2121C11.8784 10.4482 11.6788 10.7304 11.508 10.9968C11.4462 11.0932 11.3897 11.1847 11.3355 11.2726C11.2316 11.441 11.1359 11.5961 11.0264 11.747C10.8667 11.9673 10.706 12.1353 10.5159 12.2461" fill="black"/>
<path fill-rule="evenodd" clip-rule="evenodd" d="M2.69695 14.1823C2.72625 14.3743 2.90561 14.5061 3.09754 14.4768L3.04448 14.1293C3.09754 14.4768 3.09775 14.4768 3.09795 14.4768L3.09839 14.4767L3.09937 14.4765L3.1017 14.4762C3.10342 14.4759 3.10548 14.4755 3.10786 14.4751C3.11262 14.4743 3.11868 14.4732 3.12594 14.4718C3.14045 14.469 3.15985 14.465 3.18335 14.4594C3.23021 14.4482 3.29416 14.4307 3.36879 14.4041C3.51659 14.3514 3.71465 14.2602 3.90483 14.1058C4.09717 13.9496 4.28124 13.7286 4.39274 13.4232C4.50414 13.1181 4.53525 12.7503 4.45495 12.3123L4.45495 12.3123C4.42916 12.1717 4.45893 12.0907 4.50752 12.0213C4.5698 11.9323 4.67259 11.8495 4.83143 11.7366C4.84726 11.7254 4.86387 11.7137 4.88111 11.7016C5.01592 11.6067 5.18868 11.4851 5.32289 11.3371C5.48895 11.154 5.61542 10.9125 5.60337 10.5933C5.58866 10.203 5.39832 9.91327 5.13913 9.70593C4.89234 9.50852 4.57719 9.3796 4.27643 9.28193C4.09176 9.22196 3.89344 9.32304 3.83347 9.50771C3.7735 9.69238 3.87458 9.8907 4.05925 9.95067C4.33758 10.0411 4.55442 10.1386 4.69991 10.255C4.83298 10.3614 4.89521 10.4729 4.90075 10.6198L4.90075 10.6198C4.90436 10.7156 4.87427 10.7852 4.80205 10.8648C4.72361 10.9513 4.61855 11.0257 4.47271 11.129C4.45699 11.1402 4.44079 11.1516 4.42411 11.1635C4.27177 11.2718 4.07221 11.417 3.93145 11.6181C3.77699 11.8388 3.70304 12.1101 3.76336 12.4391C3.82493 12.775 3.79388 13.0133 3.73226 13.1821C3.67073 13.3506 3.5709 13.4712 3.46161 13.56C3.35015 13.6505 3.22884 13.7075 3.13269 13.7418C3.08533 13.7587 3.04616 13.7693 3.02039 13.7754C3.00757 13.7785 2.99827 13.7804 2.99317 13.7814C2.99103 13.7818 2.98964 13.782 2.98906 13.7821C2.7984 13.8125 2.66776 13.9912 2.69695 14.1823Z" fill="black"/>
<path fill-rule="evenodd" clip-rule="evenodd" d="M11.2461 15.837C11.411 15.7345 11.4617 15.5178 11.3592 15.3528C11.1227 14.9721 11.1886 14.5741 11.3958 14.3003C11.6091 14.0183 11.9284 13.9121 12.2072 14.0303L12.2072 14.0303C12.2843 14.0629 12.3645 14.0989 12.4478 14.1363C12.7434 14.2689 13.0771 14.4187 13.4421 14.4963C13.9365 14.6014 14.4926 14.582 15.1929 14.3172C15.3746 14.2486 15.4661 14.0457 15.3975 13.8641C15.3288 13.6824 15.1259 13.5909 14.9443 13.6595C14.3608 13.8801 13.9417 13.8837 13.5883 13.8085C13.3035 13.7479 13.0614 13.6397 12.7799 13.5138C12.6859 13.4718 12.5875 13.4277 12.4816 13.3829C11.8366 13.1096 11.1931 13.4027 10.835 13.8761C10.4707 14.3577 10.3565 15.0712 10.7619 15.7239C10.8644 15.8888 11.0812 15.9394 11.2461 15.837Z" fill="black"/>
</g>
</g>
<defs>
<clipPath id="clip0_2_36417">
<rect width="24" height="24" fill="white"/>
</clipPath>
</defs>
</svg>
