<svg width="13" height="58" viewBox="0 0 13 58" fill="none" xmlns="http://www.w3.org/2000/svg">
<path fill-rule="evenodd" clip-rule="evenodd" d="M0 0L4.03274 0.599617V6.35337L0 5.75057V0ZM0 50.6452L4.03274 51.2448V56.9985L0 56.3957V50.6452ZM8.6118 51.6499L12.6445 52.2495V58L8.6118 57.4004V51.6499ZM0 37.8523L4.03274 38.4519V44.2057L0 43.6029V37.8523ZM8.6118 38.857L12.6445 39.4566V45.2072L8.6118 44.6076V38.857ZM0 25.2349L4.03274 25.8345V31.5882L0 30.9854V25.2349ZM8.6118 26.2396L12.6445 26.8392V32.5897L8.6118 31.9901V26.2396ZM0 12.6174L4.03274 13.2171V18.9708L0 18.368V12.6174ZM8.6118 13.6221L12.6445 14.2217V19.9723L8.6118 19.3727V13.6221ZM8.6118 1.00468L12.6445 1.60429V7.35486L8.6118 6.75524V1.00468Z" fill="#CBD1F2"/>
</svg>
