<svg width="18" height="18" viewBox="0 0 18 18" fill="none" xmlns="http://www.w3.org/2000/svg">
<g clip-path="url(#clip0_2_41092)">
<path d="M9.0001 7.14935C8.79903 7.15042 8.6065 7.23077 8.46432 7.37295C8.32214 7.51513 8.24179 7.70766 8.24072 7.90873V8.24623H9.75947V7.90873C9.7584 7.70766 9.67805 7.51513 9.53587 7.37295C9.39369 7.23077 9.20117 7.15042 9.0001 7.14935Z" fill="#2B6ED4"/>
<path d="M9 0.5625C7.33122 0.5625 5.69992 1.05735 4.31238 1.98448C2.92484 2.9116 1.84338 4.22936 1.20477 5.77111C0.566156 7.31286 0.399065 9.00936 0.724628 10.6461C1.05019 12.2828 1.85378 13.7862 3.03379 14.9662C4.2138 16.1462 5.71721 16.9498 7.35393 17.2754C8.99064 17.6009 10.6871 17.4338 12.2289 16.7952C13.7706 16.1566 15.0884 15.0752 16.0155 13.6876C16.9427 12.3001 17.4375 10.6688 17.4375 9C17.4367 6.76248 16.5475 4.61684 14.9653 3.03468C13.3832 1.45252 11.2375 0.56331 9 0.5625ZM13.725 12.3075C13.3988 12.3244 13.3481 11.8744 13.2525 11.655C10.5806 15.9187 3.9825 14.0625 3.9375 9C3.9375 8.95568 3.94623 8.91179 3.96319 8.87084C3.98016 8.8299 4.00502 8.79269 4.03636 8.76135C4.06769 8.73001 4.1049 8.70515 4.14585 8.68819C4.1868 8.67123 4.23068 8.6625 4.275 8.6625C4.31932 8.6625 4.36321 8.67123 4.40416 8.68819C4.44511 8.70515 4.48231 8.73001 4.51365 8.76135C4.54499 8.79269 4.56985 8.8299 4.58681 8.87084C4.60377 8.91179 4.6125 8.95568 4.6125 9C4.61297 9.95341 4.92582 10.8804 5.50319 11.6391C6.08055 12.3978 6.89061 12.9465 7.80941 13.201C8.7282 13.4556 9.7051 13.4021 10.5906 13.0488C11.4761 12.6954 12.2214 12.0616 12.7125 11.2444L12.0825 11.3456C12.0387 11.353 11.994 11.3517 11.9507 11.3417C11.9075 11.3318 11.8666 11.3133 11.8306 11.2875C11.7945 11.2616 11.7639 11.2289 11.7405 11.1912C11.7171 11.1534 11.7015 11.1114 11.6944 11.0676C11.6874 11.0238 11.6891 10.979 11.6994 10.9359C11.7097 10.8927 11.7285 10.852 11.7547 10.8162C11.7808 10.7803 11.8138 10.75 11.8517 10.7269C11.8896 10.7039 11.9318 10.6886 11.9756 10.6819L13.2581 10.4738C13.3356 10.4639 13.4141 10.4802 13.4813 10.5199C13.5485 10.5596 13.6006 10.6206 13.6294 10.6931L14.04 11.8575C14.0582 11.9081 14.064 11.9624 14.0568 12.0158C14.0497 12.0691 14.0299 12.12 13.999 12.164C13.9681 12.2081 13.9271 12.2442 13.8795 12.2691C13.8318 12.2941 13.7788 12.3073 13.725 12.3075ZM10.8788 8.24625C10.9682 8.24652 11.0539 8.28216 11.1171 8.3454C11.1803 8.40863 11.216 8.49432 11.2163 8.58375V11.1881C11.216 11.2776 11.1803 11.3632 11.1171 11.4265C11.0539 11.4897 10.9682 11.5254 10.8788 11.5256H7.12125C7.03182 11.5254 6.94613 11.4897 6.8829 11.4265C6.81966 11.3632 6.78402 11.2776 6.78375 11.1881V8.58375C6.78402 8.49432 6.81966 8.40863 6.8829 8.3454C6.94613 8.28216 7.03182 8.24652 7.12125 8.24625H7.56563V7.90875C7.56563 7.52833 7.71675 7.16349 7.98575 6.89449C8.25475 6.6255 8.61958 6.47438 9 6.47438C9.38042 6.47438 9.74526 6.6255 10.0143 6.89449C10.2833 7.16349 10.4344 7.52833 10.4344 7.90875V8.24625H10.8788ZM13.725 9.3375C13.6356 9.33723 13.5499 9.30159 13.4866 9.23835C13.4234 9.17512 13.3878 9.08943 13.3875 9C13.387 8.04659 13.0742 7.1196 12.4968 6.36088C11.9195 5.60217 11.1094 5.05355 10.1906 4.79896C9.27181 4.54438 8.29491 4.59787 7.4094 4.95125C6.5239 5.30462 5.77858 5.93841 5.2875 6.75563L5.9175 6.65438C5.96136 6.64673 6.00629 6.64786 6.0497 6.65772C6.09311 6.66758 6.13414 6.68596 6.17039 6.7118C6.20664 6.73764 6.23739 6.77042 6.26087 6.80824C6.28435 6.84606 6.30009 6.88816 6.30716 6.93211C6.31424 6.97606 6.31252 7.02098 6.3021 7.06426C6.29168 7.10754 6.27276 7.14831 6.24645 7.18423C6.22015 7.22014 6.18697 7.25046 6.14885 7.27345C6.11072 7.29644 6.06842 7.31162 6.02438 7.31813L4.74188 7.52625C4.66421 7.53797 4.58487 7.52255 4.51724 7.48259C4.44961 7.44262 4.39783 7.38057 4.37063 7.30687L3.95438 6.1425C3.92454 6.05747 3.92971 5.96406 3.96874 5.88283C4.00777 5.80161 4.07747 5.73921 4.1625 5.70937C4.24754 5.67954 4.34094 5.6847 4.42217 5.72373C4.5034 5.76277 4.56579 5.83247 4.59563 5.9175L4.7475 6.345C7.41938 2.08125 14.0175 3.9375 14.0625 9C14.0622 9.08943 14.0266 9.17512 13.9634 9.23836C13.9001 9.30159 13.8144 9.33724 13.725 9.3375Z" fill="#2B6ED4"/>
</g>
<defs>
<clipPath id="clip0_2_41092">
<rect width="18" height="18" fill="white"/>
</clipPath>
</defs>
</svg>
