<svg width="80" height="80" viewBox="0 0 80 80" fill="none" xmlns="http://www.w3.org/2000/svg">
<path d="M39.9129 80C61.9562 80 79.8259 62.0914 79.8259 40C79.8259 17.9086 61.9562 0 39.9129 0C17.8696 0 0 17.9086 0 40C0 62.0914 17.8696 80 39.9129 80Z" fill="#CFD5D5"/>
<path d="M23.9277 48.1579V33.8158C23.9277 31.1184 25.3063 29.7369 28.0635 29.7369H31.2473C32.3305 29.7369 32.6587 29.5395 33.2823 28.8487L34.3983 27.5987C35.0876 26.8421 35.7441 26.4474 37.1226 26.4474H42.4728C43.8514 26.4474 44.5078 26.8092 45.1971 27.5987L46.3131 28.8487C46.9368 29.5724 47.265 29.7369 48.3481 29.7369H51.6961C54.4204 29.7369 55.799 31.1184 55.799 33.8158V48.1579C55.799 50.8553 54.4204 52.2369 51.6961 52.2369H27.9978C25.3391 52.2369 23.9277 50.8553 23.9277 48.1579ZM51.6961 50.3619C53.1403 50.3619 53.9609 49.5724 53.9609 48.0592V33.9145C53.9609 32.4013 53.1403 31.6448 51.6961 31.6448H47.9543C46.7398 31.6448 46.0834 31.4474 45.3941 30.6579L44.2781 29.4408C43.5232 28.5855 43.0964 28.3882 41.9476 28.3882H37.6478C36.4662 28.3882 36.1051 28.5855 35.3174 29.4408L34.2342 30.6579C33.5449 31.4474 32.8885 31.6448 31.674 31.6448H28.0963C26.6521 31.6448 25.8315 32.4342 25.8315 33.9145V48.0592C25.8315 49.5724 26.6521 50.3619 28.0963 50.3619H51.6961ZM32.4289 40.4934C32.4289 36.3158 35.7769 32.9934 39.9126 32.9934C44.0483 32.9934 47.3635 36.3158 47.3635 40.4934C47.3635 44.6711 44.0483 47.9934 39.9126 47.9934C35.7769 47.9934 32.4289 44.6711 32.4289 40.4934ZM45.591 40.4934C45.591 37.3355 43.0636 34.7698 39.9126 34.7698C36.7616 34.7698 34.2342 37.3027 34.2342 40.4934C34.2342 43.6513 36.7944 46.1842 39.9126 46.1842C43.0308 46.1842 45.591 43.6513 45.591 40.4934ZM48.1184 35.4934C48.1184 34.6053 48.8405 33.8816 49.7267 33.8816C50.6129 33.8816 51.3351 34.6053 51.3351 35.4934C51.3351 36.3816 50.6129 37.0724 49.7267 37.0724C48.8405 37.1053 48.1184 36.3816 48.1184 35.4934Z" fill="#83B4FF"/>
</svg>
