<svg width="30" height="20" viewBox="0 0 30 20" fill="none" xmlns="http://www.w3.org/2000/svg">
<g clip-path="url(#clip0_2_21837)">
<path d="M0.360027 12.6721H18.44C18.512 12.6721 18.572 12.6101 18.572 12.531V0.141086C18.57 0.0619923 18.512 0 18.44 0H0.360027C0.286027 0 0.228027 0.0619923 0.228027 0.141086V12.531C0.228027 12.608 0.286027 12.6721 0.360027 12.6721Z" fill="#2B6ED4"/>
<path d="M24.666 13.9205C23.122 13.9205 21.866 15.2629 21.866 16.9132C21.866 18.5635 23.122 19.9059 24.666 19.9059C26.21 19.9059 27.466 18.5635 27.466 16.9132C27.466 15.2629 26.21 13.9205 24.666 13.9205ZM24.666 18.3433C23.928 18.3433 23.326 17.702 23.326 16.9111C23.326 16.1223 23.926 15.4788 24.666 15.4788C25.404 15.4788 26.006 16.1201 26.006 16.9111C26.004 17.702 25.404 18.3433 24.666 18.3433Z" fill="#2B6ED4"/>
<path d="M6.06794 14.0145C4.52394 14.0145 3.26794 15.357 3.26794 17.0073C3.26794 18.6575 4.52394 20 6.06794 20C7.61194 20 8.86794 18.6575 8.86794 17.0073C8.86794 15.357 7.61194 14.0145 6.06794 14.0145ZM6.06794 18.4374C5.32994 18.4374 4.72794 17.7961 4.72794 17.0051C4.72794 16.2163 5.32794 15.5729 6.06794 15.5729C6.80594 15.5729 7.40794 16.2142 7.40794 17.0051C7.40794 17.7961 6.80594 18.4374 6.06794 18.4374Z" fill="#2B6ED4"/>
<path d="M4.408 13.7067C4.458 13.6747 4.482 13.6084 4.466 13.5485C4.45 13.4887 4.398 13.4459 4.34 13.4459H0.132C0.058 13.4459 0 13.5079 0 13.587V15.434C0 15.5109 0.058 15.575 0.132 15.575H2.886C2.94 15.575 2.988 15.5387 3.008 15.4853C3.278 14.752 3.776 14.1214 4.408 13.7067Z" fill="#2B6ED4"/>
<path d="M29.868 13.4459H26.452C26.392 13.4459 26.342 13.4887 26.326 13.5485C26.31 13.6084 26.334 13.6747 26.384 13.7067C27.41 14.3801 28.024 15.5472 28.024 16.8256C28.024 16.9581 28.014 17.1035 27.996 17.2659C27.992 17.3065 28.004 17.345 28.028 17.3771C28.054 17.407 28.088 17.4241 28.126 17.4241H29.866C29.938 17.4241 29.998 17.3621 29.998 17.283V13.587C30 13.5079 29.94 13.4459 29.868 13.4459Z" fill="#2B6ED4"/>
<path d="M22.8779 13.8307C22.9579 13.7815 23.0099 13.6918 23.0099 13.587C23.0099 13.431 22.8919 13.3048 22.7459 13.3048H8.04594C7.92794 13.3048 7.82394 13.3882 7.79194 13.5101C7.75994 13.6319 7.80794 13.7602 7.90794 13.8264C8.89594 14.4741 9.48594 15.5964 9.48594 16.8256C9.48594 16.9538 9.47794 17.0928 9.45994 17.2488C9.45194 17.3279 9.47394 17.4092 9.52394 17.469C9.57394 17.5289 9.64594 17.5631 9.72194 17.5631H21.0719C21.1459 17.5631 21.2199 17.5289 21.2679 17.469C21.3179 17.4092 21.3419 17.3279 21.3319 17.2488C21.3139 17.0906 21.3059 16.9538 21.3059 16.8256C21.3059 15.5986 21.8939 14.4784 22.8779 13.8307Z" fill="#2B6ED4"/>
<path d="M25.62 2.21677H20.78C19.9 2.21677 19.332 2.68705 19.332 3.41386V12.531C19.332 12.608 19.39 12.6721 19.464 12.6721H29.87C29.942 12.6721 30.002 12.6101 30.002 12.531V9.85465C30 8.36469 27.608 2.21677 25.62 2.21677ZM21.468 9.46773V4.39932H25.114C26.19 4.39932 27.654 7.56093 27.724 9.46773H21.468Z" fill="#2B6ED4"/>
</g>
<defs>
<clipPath id="clip0_2_21837">
<rect width="30" height="20" fill="white"/>
</clipPath>
</defs>
</svg>
