<svg width="179" height="103" viewBox="0 0 179 103" fill="none" xmlns="http://www.w3.org/2000/svg">
<path fill-rule="evenodd" clip-rule="evenodd" d="M25.1666 78.7349H179V67.181H25.1666V78.7349Z" fill="#636262"/>
<path fill-rule="evenodd" clip-rule="evenodd" d="M58.4108 19.9251V69.7978H40.888C40.888 69.7978 34.2593 69.2493 30.1741 75.9981C26.0888 82.744 25.09 87.6684 25.09 87.6684H4.39073C4.39073 87.6684 0.533347 75.1769 1.62219 63.4156C2.71103 51.6542 7.93298 43.5387 11.6553 36.429C13.8302 32.2775 16.8716 26.87 19.9834 23.2413C23.8408 18.743 25.4895 18.8794 31.8172 18.8681C41.4648 18.8539 58.4108 18.8311 58.4108 18.8311V19.9251Z" fill="#287CFD"/>
<path fill-rule="evenodd" clip-rule="evenodd" d="M2.38775 78.7347C1.88694 75.6885 1.47616 72.1167 1.43114 68.4311H8.5466V78.7347H2.38775Z" fill="#E6E6E6"/>
<path fill-rule="evenodd" clip-rule="evenodd" d="M1.63652 72.6963C1.52398 71.3096 1.44802 69.8775 1.43114 68.4311H8.5466V72.6963H1.63652Z" fill="#C41818"/>
<path fill-rule="evenodd" clip-rule="evenodd" d="M26.814 82.5479C26.1528 84.1222 25.7223 85.4009 25.455 86.2874H8.38803V82.5479H26.814Z" fill="#1F60C4"/>
<path d="M56.4696 21.8858V21.471H56.0588C55.1838 21.471 53.7798 21.4369 51.9848 21.3942C43.063 21.1783 24.7581 20.7322 22.0431 23.0282C20.9008 23.9943 19.2183 26.4381 17.5104 29.2711C15.2343 33.0419 12.8934 37.5259 11.7202 40.1089C9.66346 44.627 8.00627 49.7333 8.00346 49.7476L7.98378 49.8129V49.8754C7.98378 60.1392 7.98378 70.403 7.98378 80.6668V81.0817H8.39454H25.1661H25.439L25.5459 80.826C25.6078 80.6782 25.6725 80.431 25.7597 80.09C26.4434 77.4615 28.6661 68.9027 40.0413 67.7348C41.4087 67.7263 42.3794 67.7461 43.2938 67.7689C44.1913 67.7888 45.0325 67.8058 46.1467 67.7944H56.056H56.4668V67.3796V21.8858H56.4696ZM45.0663 66.9732C44.4473 66.9704 43.8902 66.9562 43.3106 66.9448C42.3878 66.9249 41.4087 66.9022 40.0132 66.9107H39.9878H39.9738C28.0162 68.1298 25.681 77.1205 24.9663 79.8797C24.9298 80.0218 24.896 80.1468 24.8678 80.2491H8.80251C8.80251 70.1444 8.80251 60.0398 8.80251 49.9351C8.99946 49.3355 10.5638 44.6242 12.4629 40.4471C13.6277 37.8839 15.9517 33.4369 18.2082 29.6945C19.8766 26.9268 21.5 24.5569 22.5664 23.6561C25.0423 21.5619 43.139 22.0023 51.9623 22.2155C53.5351 22.2524 54.8237 22.2837 55.6424 22.295V66.9676H45.0635L45.0663 66.9732Z" fill="#4F93FB"/>
<path fill-rule="evenodd" clip-rule="evenodd" d="M65.1889 73.4947H92.2833V85.0457H65.1889V73.4947Z" fill="#757575"/>
<path fill-rule="evenodd" clip-rule="evenodd" d="M2.47818 57.8544C4.39983 48.9915 8.54981 42.3593 11.656 36.4289C13.7802 32.3711 16.7344 27.1113 19.773 23.4883C19.2103 25.2672 17.4547 27.8274 15.699 30.7088C13.406 34.471 9.86654 42.1973 7.77608 46.9143C5.68843 51.6314 5.73344 53.2482 4.50674 55.9392C3.88494 57.306 3.09998 57.7493 2.47818 57.8544Z" fill="#006064"/>
<path fill-rule="evenodd" clip-rule="evenodd" d="M46.7542 61.594V57.3317C46.7542 56.0842 47.7699 55.0641 49.0135 55.0641C50.2571 55.0641 51.2728 56.0842 51.2728 57.3317V61.594C51.2728 62.8415 50.2571 63.8616 49.0135 63.8616C47.7699 63.8645 46.7542 62.8415 46.7542 61.594Z" fill="#153689"/>
<path fill-rule="evenodd" clip-rule="evenodd" d="M49.0135 55.0641C50.2571 55.0641 51.2728 56.0842 51.2728 57.3317V61.594C51.2728 62.8415 50.2571 63.8616 49.0135 63.8616V55.0641Z" fill="#035DED"/>
<path d="M46.3436 61.5946C46.3436 62.3334 46.6447 63.004 47.1286 63.4899C47.6126 63.9758 48.2794 64.277 49.0137 64.277C49.748 64.277 50.4148 63.9758 50.8988 63.4899C51.3827 63.004 51.6838 62.3334 51.6838 61.5946V57.3322C51.6838 56.5934 51.3827 55.9228 50.8988 55.4369C50.4148 54.951 49.748 54.6498 49.0137 54.6498C48.2794 54.6498 47.6126 54.951 47.1286 55.4369C46.6447 55.9228 46.3436 56.5934 46.3436 57.3322V61.5946ZM47.1652 57.3322C47.1652 56.8236 47.3734 56.3604 47.7082 56.0222C48.043 55.6869 48.5044 55.4767 49.0109 55.4767C49.5173 55.4767 49.9787 55.6869 50.3136 56.0222C50.6484 56.3576 50.8566 56.8207 50.8566 57.3322V61.5946C50.8566 62.1032 50.6484 62.5664 50.3136 62.9046C49.9787 63.2399 49.5173 63.4501 49.0109 63.4501C48.5044 63.4501 48.043 63.2427 47.7082 62.9046C47.3734 62.5693 47.1652 62.1061 47.1652 61.5946V57.3322Z" fill="#50AEFB"/>
<path fill-rule="evenodd" clip-rule="evenodd" d="M53.5131 26.3107V42.9396L51.22 46.4177H36.328L36.2857 46.4149C35.9819 46.3865 35.3179 46.574 35.0028 46.6877C33.5425 47.2219 32.1949 48.3329 31.1341 49.444C30.1691 50.4528 29.1619 51.4246 28.1433 52.3794C26.112 54.2832 24.0131 56.1473 21.8888 57.9489L21.6159 58.1819H13.3047L11.1552 55.9285V47.1423L11.1946 47.0088C11.4675 46.0682 11.7882 45.1191 12.1118 44.1956C12.8911 41.9706 13.7661 39.7684 14.7396 37.6202C15.7806 35.3213 16.9708 33.0964 18.2509 30.9226C19.0894 29.4961 19.9953 28.1066 20.8253 26.6801C22.2743 24.1965 25.0259 23.094 27.8001 23.094C35.4107 23.094 43.0242 23.094 50.6348 23.094H50.7136L50.7924 23.1054C51.2622 23.1821 51.8109 23.398 52.2104 23.6481C53.1586 24.242 53.6538 25.1882 53.5131 26.3107Z" fill="#333343"/>
<path fill-rule="evenodd" clip-rule="evenodd" d="M52.5341 26.2418V42.6434L50.6941 45.4339H36.3703C36.3703 45.4339 33.8269 45.2065 30.4225 48.7614C27.0181 52.3162 21.2531 57.1952 21.2531 57.1952H13.7185L12.1288 55.53V47.278C12.1288 47.278 13.3555 43.0384 15.6232 38.023C17.8938 33.0076 20.5723 29.0408 21.6611 27.1738C22.75 25.3041 24.9304 24.0737 27.789 24.0737C30.6504 24.0737 50.6237 24.0737 50.6237 24.0737C50.6237 24.0737 52.807 24.4402 52.5341 26.2418Z" fill="#CBD1F2"/>
<path fill-rule="evenodd" clip-rule="evenodd" d="M24.4873 54.3796C22.6556 56.0107 21.2545 57.1985 21.2545 57.1985H13.7198L12.1302 55.5333V47.2813C12.1302 47.2813 12.6225 45.5764 13.5623 43.0502H15.7624L17.6841 47.4945H18.6632L20.0025 50.8674H24.4873V54.3796Z" fill="#BEC5ED"/>
<path fill-rule="evenodd" clip-rule="evenodd" d="M14.9271 39.6204C15.1016 39.2084 15.2844 38.7878 15.4758 38.3616C16.1201 38.6514 17.6056 39.2794 18.0417 39.1458C18.2612 39.0776 18.6607 38.4951 19.0208 37.8188C19.4091 37.0914 19.6989 36.3185 19.6511 35.9775C19.5864 35.52 18.0558 34.7215 17.4143 34.4061C17.6338 33.9912 17.856 33.5877 18.0727 33.1984C18.8942 33.619 20.8581 34.7272 21.01 35.7842C21.1001 36.4151 20.7343 37.5176 20.2307 38.4639C19.7242 39.4158 19.0293 40.2768 18.4441 40.4586C17.5944 40.7172 15.7009 39.9585 14.9271 39.6204Z" fill="#BEC5ED"/>
<path fill-rule="evenodd" clip-rule="evenodd" d="M52.5332 27.0235V42.6408L51.2137 45.4313H44.72C44.8944 40.7199 45.4487 31.911 47.1819 29.0581C48.8672 26.2932 51.2502 26.5944 52.5332 27.0235Z" fill="#BEC5ED"/>
<path fill-rule="evenodd" clip-rule="evenodd" d="M2.23539 78.2772H8.99916C8.99916 78.2772 9.6097 87.6659 8.99916 87.6659C8.38862 87.6659 2.23539 87.6659 2.23539 87.6659C2.23539 87.6659 -0.170185 83.017 0.00988278 80.6471C0.192763 78.2773 2.14535 78.2772 2.23539 78.2772Z" fill="#636262"/>
<path fill-rule="evenodd" clip-rule="evenodd" d="M60.2403 0H179V64.2681H60.2403V0Z" fill="#287CFD"/>
<path fill-rule="evenodd" clip-rule="evenodd" d="M63.9219 3.6969H175.316V60.5712H63.9219V3.6969Z" fill="#0B55C6"/>
<path fill-rule="evenodd" clip-rule="evenodd" d="M60.2403 71.6622H179V64.2684H60.2403V71.6622Z" fill="#153689"/>
<path fill-rule="evenodd" clip-rule="evenodd" d="M44.1242 70.2836C53.0262 70.2836 60.2402 77.5297 60.2402 86.4664C60.2402 95.4032 53.0234 102.649 44.1242 102.649C35.2221 102.649 28.0082 95.4032 28.0082 86.4664C28.0082 77.5297 35.2221 70.2836 44.1242 70.2836Z" fill="#212121"/>
<path fill-rule="evenodd" clip-rule="evenodd" d="M44.1235 79.289C48.0709 79.289 51.2728 82.5029 51.2728 86.4669C51.2728 90.4309 48.0709 93.6447 44.1235 93.6447C40.1761 93.6447 36.9743 90.4309 36.9743 86.4669C36.9743 82.5029 40.1733 79.289 44.1235 79.289Z" fill="#757575"/>
<path fill-rule="evenodd" clip-rule="evenodd" d="M44.1239 84.3013C45.3141 84.3013 46.2819 85.2703 46.2819 86.4666C46.2819 87.6629 45.3169 88.6319 44.1239 88.6319C42.931 88.6319 41.9659 87.6629 41.9659 86.4666C41.9659 85.2703 42.931 84.3013 44.1239 84.3013Z" fill="#E6E6E6"/>
<path fill-rule="evenodd" clip-rule="evenodd" d="M48.8931 86.4465C48.8931 86.8244 48.5892 87.1313 48.2122 87.1313C47.8352 87.1313 47.5313 86.8244 47.5313 86.4465C47.5313 86.0685 47.838 85.7617 48.2122 85.7617C48.5864 85.7617 48.8931 86.0685 48.8931 86.4465ZM47.4948 89.8308C47.2275 90.0979 46.797 90.0979 46.5297 89.8308C46.2624 89.5637 46.2624 89.1289 46.5297 88.8618C46.797 88.5947 47.2275 88.5947 47.4948 88.8618C47.762 89.1289 47.762 89.5637 47.4948 89.8308ZM44.1241 91.2317C44.5011 91.2317 44.805 90.9248 44.805 90.5469C44.805 90.169 44.4983 89.8621 44.1241 89.8621C43.7471 89.8621 43.4433 90.169 43.4433 90.5469C43.4433 90.9248 43.7471 91.2317 44.1241 91.2317ZM40.7535 89.8308C41.0208 90.0979 41.4513 90.0979 41.7185 89.8308C41.9858 89.5637 41.9858 89.1289 41.7185 88.8618C41.4513 88.5947 41.0208 88.5947 40.7535 88.8618C40.4862 89.1289 40.4862 89.5637 40.7535 89.8308ZM39.3552 86.4465C39.3552 86.8244 39.6619 87.1313 40.0361 87.1313C40.4131 87.1313 40.7169 86.8244 40.7169 86.4465C40.7169 86.0685 40.4103 85.7617 40.0361 85.7617C39.6619 85.7617 39.3552 86.0685 39.3552 86.4465ZM40.7507 83.0593C40.4834 83.3264 40.4834 83.7612 40.7507 84.0283C41.018 84.2954 41.4484 84.2954 41.7157 84.0283C41.983 83.7612 41.983 83.3264 41.7157 83.0593C41.4513 82.7922 41.018 82.7922 40.7507 83.0593ZM44.1241 81.6584C43.7471 81.6584 43.4433 81.9653 43.4433 82.3432C43.4433 82.7212 43.7499 83.0281 44.1241 83.0281C44.5011 83.0281 44.805 82.7212 44.805 82.3432C44.805 81.9625 44.5011 81.6584 44.1241 81.6584ZM47.4976 83.0593C47.7649 83.3264 47.7649 83.7612 47.4976 84.0283C47.2303 84.2954 46.7998 84.2954 46.5325 84.0283C46.2652 83.7612 46.2652 83.3264 46.5325 83.0593C46.797 82.7922 47.2303 82.7922 47.4976 83.0593Z" fill="#E6E6E6"/>
<path fill-rule="evenodd" clip-rule="evenodd" d="M136.372 70.2836C145.274 70.2836 152.488 77.5297 152.488 86.4664C152.488 95.4032 145.271 102.649 136.372 102.649C127.47 102.649 120.256 95.4032 120.256 86.4664C120.256 77.5297 127.47 70.2836 136.372 70.2836Z" fill="#212121"/>
<path fill-rule="evenodd" clip-rule="evenodd" d="M136.372 79.289C140.319 79.289 143.521 82.5029 143.521 86.4669C143.521 90.4309 140.319 93.6447 136.372 93.6447C132.424 93.6447 129.222 90.4309 129.222 86.4669C129.222 82.5029 132.421 79.289 136.372 79.289Z" fill="#757575"/>
<path fill-rule="evenodd" clip-rule="evenodd" d="M136.372 84.3013C137.565 84.3013 138.53 85.2703 138.53 86.4666C138.53 87.6629 137.565 88.6319 136.372 88.6319C135.182 88.6319 134.214 87.6629 134.214 86.4666C134.214 85.2703 135.179 84.3013 136.372 84.3013Z" fill="#E6E6E6"/>
<path fill-rule="evenodd" clip-rule="evenodd" d="M141.141 86.4465C141.141 86.8244 140.837 87.1313 140.46 87.1313C140.083 87.1313 139.779 86.8244 139.779 86.4465C139.779 86.0685 140.083 85.7617 140.46 85.7617C140.834 85.7617 141.141 86.0685 141.141 86.4465ZM139.743 89.8308C139.475 90.0979 139.045 90.0979 138.778 89.8308C138.51 89.5637 138.51 89.1289 138.778 88.8618C139.045 88.5947 139.475 88.5947 139.743 88.8618C140.01 89.1289 140.01 89.5637 139.743 89.8308ZM136.372 91.2317C136.749 91.2317 137.053 90.9248 137.053 90.5469C137.053 90.169 136.746 89.8621 136.372 89.8621C135.995 89.8621 135.691 90.169 135.691 90.5469C135.691 90.9248 135.995 91.2317 136.372 91.2317ZM133.001 89.8308C133.269 90.0979 133.699 90.0979 133.967 89.8308C134.234 89.5637 134.234 89.1289 133.967 88.8618C133.699 88.5947 133.269 88.5947 133.001 88.8618C132.734 89.1289 132.734 89.5637 133.001 89.8308ZM131.603 86.4465C131.603 86.8244 131.907 87.1313 132.284 87.1313C132.661 87.1313 132.965 86.8244 132.965 86.4465C132.965 86.0685 132.661 85.7617 132.284 85.7617C131.91 85.7617 131.603 86.0685 131.603 86.4465ZM132.999 83.0593C132.731 83.3264 132.731 83.7612 132.999 84.0283C133.266 84.2954 133.696 84.2954 133.964 84.0283C134.231 83.7612 134.231 83.3264 133.964 83.0593C133.699 82.7922 133.266 82.7922 132.999 83.0593ZM136.372 81.6584C135.995 81.6584 135.691 81.9653 135.691 82.3432C135.691 82.7212 135.998 83.0281 136.372 83.0281C136.749 83.0281 137.053 82.7212 137.053 82.3432C137.053 81.9625 136.746 81.6584 136.372 81.6584ZM139.743 83.0593C140.01 83.3264 140.01 83.7612 139.743 84.0283C139.475 84.2954 139.045 84.2954 138.778 84.0283C138.51 83.7612 138.51 83.3264 138.778 83.0593C139.045 82.7922 139.478 82.7922 139.743 83.0593Z" fill="#E6E6E6"/>
<path d="M136.371 67.2914C142.502 67.2914 148.05 69.7864 152.068 73.8214C155.607 77.3762 157.957 82.1273 158.466 87.4184H154.324C153.832 83.2697 151.95 79.55 149.156 76.7454C145.884 73.4605 141.362 71.4288 136.371 71.4288C131.377 71.4288 126.858 73.4605 123.586 76.7454C120.792 79.55 118.91 83.2697 118.418 87.4184H114.276C114.786 82.1273 117.135 77.3762 120.674 73.8214C124.689 69.7864 130.24 67.2914 136.371 67.2914Z" fill="#0B55C6"/>
<path fill-rule="evenodd" clip-rule="evenodd" d="M12.6936 59.1137H14.8178C15.1273 59.1137 15.3806 59.3694 15.3806 59.6791V61.8132C15.3806 62.1229 15.1273 62.3786 14.8178 62.3786H12.6936C12.3841 62.3786 12.1309 62.1229 12.1309 61.8132V59.6791C12.1309 59.3666 12.3841 59.1137 12.6936 59.1137Z" fill="#333333"/>
<path d="M7.08972 54.4449V58.9773C7.26697 59.3552 8.31644 60.8783 13.4877 59.932C13.6368 60.1309 13.8957 60.597 13.7128 61.2846C6.65082 62.5548 5.75048 59.304 5.74767 59.2955L5.71671 59.1904V59.0966V54.4478H7.08972V54.4449Z" fill="#333333"/>
<path fill-rule="evenodd" clip-rule="evenodd" d="M6.17492 39.1288C7.62108 39.1288 8.76338 40.1234 8.76338 41.3055V53.6806C8.76338 54.857 7.63515 55.8572 6.17492 55.8572C4.71469 55.8572 3.58647 54.857 3.58647 53.6806V41.3055C3.58647 40.1234 4.72876 39.1288 6.17492 39.1288Z" fill="#353535"/>
<path fill-rule="evenodd" clip-rule="evenodd" d="M6.78265 39.1879C7.92777 39.4209 8.76338 40.2933 8.76338 41.3049V53.68C8.76338 54.6859 7.93621 55.5668 6.78265 55.797C6.74045 55.5213 6.71513 55.223 6.71513 54.9161V40.066C6.71513 39.7619 6.73764 39.4664 6.78265 39.1879Z" fill="#6D6D6D"/>
<path fill-rule="evenodd" clip-rule="evenodd" d="M65.254 66.3339H71.2891V69.5989H65.254V66.3339Z" fill="white"/>
<path fill-rule="evenodd" clip-rule="evenodd" d="M116.601 66.3339H122.636V69.5989H116.601V66.3339Z" fill="white"/>
<path fill-rule="evenodd" clip-rule="evenodd" d="M169.281 66.3339H175.316V69.5989H169.281V66.3339Z" fill="white"/>
<path fill-rule="evenodd" clip-rule="evenodd" d="M84.6 74.5742V79.2685H88.086V74.5742H84.6ZM69.8374 74.5742V79.2685H73.3234V74.5742H69.8374Z" fill="#636262"/>
<path fill-rule="evenodd" clip-rule="evenodd" d="M37.5146 39.8646C37.3458 39.9783 37.5765 39.714 37.1179 40.18C36.6593 40.646 33.4124 42.0242 33.4124 42.0242C33.4124 42.0242 28.7138 42.0583 26.0381 40.7029C23.3625 39.3474 22.2511 39.1713 21.8713 39.3531C21.4886 39.535 20.5686 39.9015 20.5855 40.5807C20.6024 41.2598 21.2636 41.8736 21.5393 41.8736C21.8178 41.8736 21.8459 41.8651 21.8797 41.2371C21.9135 40.6091 22.0935 40.7938 22.5972 41.3309C23.1008 41.8651 23.9505 42.2913 25.0281 42.3595C26.1057 42.4305 28.5563 43.8798 31.699 44.5958C34.8417 45.3119 37.9141 43.3995 38.6372 43.0358C39.3603 42.6721 39.4559 42.4675 39.9708 41.9873L37.5146 39.8646Z" fill="#E8A597"/>
<path fill-rule="evenodd" clip-rule="evenodd" d="M44.796 32.2154C44.9761 33.2725 45.1533 34.3324 45.3334 35.3895C44.8973 36.7335 43.7494 37.3729 42.0528 36.8642L41.9009 34.4176C41.9037 34.4176 43.6199 34.7672 44.796 32.2154Z" fill="#E8A597"/>
<path fill-rule="evenodd" clip-rule="evenodd" d="M40.1261 30.908C38.7311 30.3285 39.887 32.8652 40.1711 32.6152C40.4974 32.3311 40.1261 30.908 40.1261 30.908Z" fill="#E8A597"/>
<path fill-rule="evenodd" clip-rule="evenodd" d="M44.8864 29.4447C44.9849 29.7516 45.0609 30.1409 45.0946 30.5586C46.462 30.0073 45.3141 32.5221 45.0327 32.2749C45.0159 32.2607 44.999 32.2408 44.9849 32.2181C44.9568 32.3317 44.923 32.4454 44.8836 32.5534C44.5235 33.5536 43.7526 34.4317 43.3052 34.7784C42.9873 35.0227 42.0729 35.0227 41.755 34.7784C41.3076 34.4317 40.5339 33.5536 40.1766 32.5534C39.8164 31.5531 39.9262 30.2347 40.1766 29.4447C40.728 27.7255 44.3406 27.7255 44.8864 29.4447Z" fill="#F9BFB3"/>
<path fill-rule="evenodd" clip-rule="evenodd" d="M41.3641 30.4955C41.5217 30.4955 41.6511 30.6234 41.6511 30.7825C41.6511 30.9417 41.5217 31.0695 41.3641 31.0695C41.2065 31.0695 41.0771 30.9417 41.0771 30.7825C41.0771 30.6234 41.2065 30.4955 41.3641 30.4955Z" fill="black"/>
<path fill-rule="evenodd" clip-rule="evenodd" d="M43.3583 30.4955C43.5158 30.4955 43.6453 30.6234 43.6453 30.7825C43.6453 30.9417 43.5158 31.0695 43.3583 31.0695C43.2007 31.0695 43.0713 30.9417 43.0713 30.7825C43.0713 30.6234 43.2007 30.4955 43.3583 30.4955Z" fill="black"/>
<path d="M42.186 30.5101L41.9132 32.2372H42.681V32.4275H41.691L41.9976 30.4788L42.186 30.5101Z" fill="#B8634A"/>
<path d="M41.3115 32.9114C41.3143 32.9114 42.2593 33.4398 43.4069 32.8546L43.4913 33.025C42.2537 33.6556 41.2243 33.0818 41.2215 33.079L41.3115 32.9114Z" fill="#B8634A"/>
<path d="M41.7129 30.2311C41.7129 30.2311 41.4148 29.7936 40.6104 30.1743L40.5091 29.9584C41.4935 29.4897 41.9042 30.0891 41.9042 30.0919L41.7129 30.2311Z" fill="black"/>
<path d="M43.0232 30.2311C43.0232 30.2311 43.3213 29.7936 44.1257 30.1743L44.2269 29.9584C43.2425 29.4897 42.8319 30.0891 42.8319 30.0919L43.0232 30.2311Z" fill="black"/>
<path fill-rule="evenodd" clip-rule="evenodd" d="M44.6784 27.4014C44.6784 27.4014 43.764 26.4864 42.9733 26.313C42.1827 26.1397 40.8294 26.4324 40.8294 26.4324L41.2064 26.5432C41.2064 26.5432 40.5171 26.8188 40.3061 27.0234C40.0923 27.228 40.0613 27.4014 40.0613 27.4014L40.5087 27.1655C40.5087 27.1655 39.8475 27.9072 39.6984 28.4186C39.5493 28.9301 39.9685 31.5359 39.9685 31.5359C39.9685 31.5359 40.1626 29.6746 40.4299 29.2853C40.6972 28.896 41.4512 28.4414 41.4512 28.4414L41.2064 28.788C41.2064 28.788 41.7579 28.4414 42.0646 28.4101C42.3712 28.3789 42.8327 28.3561 42.8327 28.3561L42.5766 28.6232C42.5766 28.6232 43.0746 28.4584 43.3616 28.4414C43.6486 28.4243 44.2282 28.7341 44.2282 28.7341C44.2282 28.7341 44.6502 29.0836 44.7993 29.7798C44.9485 30.4788 45.0357 31.2886 45.0357 31.2886C45.0638 30.9562 45.1004 30.4816 45.4605 30.4759C45.4605 30.3651 45.5534 28.8079 45.3733 28.1515C45.1904 27.498 44.6784 27.4014 44.6784 27.4014Z" fill="#473831"/>
<path fill-rule="evenodd" clip-rule="evenodd" d="M45.2632 30.8567C45.2632 30.8567 45.3645 30.6578 45.5304 30.8112C45.6964 30.9646 45.5079 31.2515 45.4517 31.2714C45.3954 31.2913 45.5023 31.0697 45.3814 31.0697C45.2604 31.0697 45.1648 31.493 45.2323 31.5384C45.2998 31.5839 45.4039 31.51 45.4039 31.6293C45.4039 31.7486 45.162 31.9475 45.0945 31.885C45.0298 31.8253 45.1254 31.0101 45.2632 30.8567Z" fill="#E8A597"/>
<path fill-rule="evenodd" clip-rule="evenodd" d="M41.2835 30.6211C41.3288 30.6211 41.3656 30.6584 41.3656 30.7042C41.3656 30.7501 41.3288 30.7845 41.2835 30.7845C41.2382 30.7845 41.2014 30.7473 41.2014 30.7042C41.2014 30.6584 41.2382 30.6211 41.2835 30.6211Z" fill="white"/>
<path fill-rule="evenodd" clip-rule="evenodd" d="M43.2679 30.6211C43.3132 30.6211 43.35 30.6584 43.35 30.7042C43.35 30.7501 43.3132 30.7845 43.2679 30.7845C43.2226 30.7845 43.1858 30.7473 43.1858 30.7042C43.1886 30.6584 43.2226 30.6211 43.2679 30.6211Z" fill="white"/>
<path fill-rule="evenodd" clip-rule="evenodd" d="M46.2178 36.6936C46.2178 36.6936 49.2564 38.2195 49.7094 40.5212C50.1596 42.8229 45.1121 48.8755 43.0835 48.3952C41.0549 47.9122 35.5657 46.3749 34.7666 46.3379C33.9676 46.3038 31.8152 47.4689 31.8152 47.4689C31.8152 47.4689 32.5749 44.6699 34.4093 44.633C36.2438 44.5989 40.9142 44.866 42.155 45.0052C43.3958 45.1445 44.69 43.0048 46.2178 36.6936Z" fill="#F9BFB3"/>
<path fill-rule="evenodd" clip-rule="evenodd" d="M21.1763 40.393C21.4014 40.1373 21.7925 40.1146 22.0457 40.3419L29.5382 47.0196C29.7914 47.2441 29.8139 47.6391 29.5888 47.892C29.3637 48.1477 28.9726 48.1704 28.7194 47.9431L21.227 41.2654C20.9737 41.0409 20.9512 40.6488 21.1763 40.393Z" fill="#BEC5ED"/>
<path fill-rule="evenodd" clip-rule="evenodd" d="M25.0061 44.1496L24.2746 43.5443L18.3493 50.5403L19.0808 51.1456L25.0061 44.1496Z" fill="#BEC5ED"/>
<path fill-rule="evenodd" clip-rule="evenodd" d="M49.7377 39.2935L49.8671 45.4341H47.7598C47.7598 45.4341 49.4029 43.0955 49.7377 39.2935Z" fill="#FF9429"/>
<path fill-rule="evenodd" clip-rule="evenodd" d="M45.2217 34.7238C45.2217 34.7238 46.2092 34.9597 47.7595 35.6104C52.8548 37.7416 49.6614 44.6722 46.2092 46.9284C45.9813 46.4169 45.9166 45.1354 43.7305 43.8794C43.7052 43.9163 43.2409 44.9137 42.3097 45.0359L39.6593 44.8569C39.6593 44.0016 39.6593 43.1491 39.6593 42.2938C39.5552 42.4586 38.6352 43.1974 38.1006 43.4105C37.7658 43.5583 36.1705 42.487 35.7766 40.8531C38.6323 39.2931 38.4663 36.4089 41.9805 35.6132C41.9889 35.6843 41.9917 35.7468 41.9945 35.7979C42.0817 37.5796 45.2723 36.1645 45.2217 34.7238Z" fill="#FFAD29"/>
<path d="M39.7096 41.7913L40.9307 38.4837L41.1783 38.5747L39.9544 41.8851L39.7096 41.7913Z" fill="#FFCC7A"/>
<path d="M41.8142 36.2501C41.8367 36.4348 41.9436 36.5825 42.1068 36.6934C42.3065 36.8269 42.5907 36.9008 42.9115 36.9065C43.2378 36.9122 43.6036 36.8468 43.9553 36.7019C44.563 36.449 45.1342 35.9517 45.4211 35.1674L45.6659 35.2584C45.3508 36.1222 44.7234 36.6678 44.0538 36.9463C43.6683 37.1054 43.2688 37.1793 42.9058 37.1708C42.5373 37.1651 42.2024 37.0741 41.9605 36.915C41.7326 36.7644 41.5835 36.5513 41.5525 36.2842L41.8142 36.2501Z" fill="#FFCC7A"/>
<path d="M48.8568 36.8159C48.8512 36.8187 46.7213 37.5376 46.2655 39.7029C45.7844 41.9847 44.1554 43.3885 44.1526 43.3913L43.9781 43.1952C43.9837 43.1924 45.5453 41.8426 46.0095 39.6489C46.499 37.3359 48.7639 36.5715 48.7696 36.5687L48.8568 36.8159Z" fill="#FFCC7A"/>
<path fill-rule="evenodd" clip-rule="evenodd" d="M42.596 45.0679C42.596 45.0679 42.8886 45.2497 43.0067 45.9428L42.8351 45.9712C42.7311 45.3519 42.492 45.2071 42.492 45.2071L42.596 45.0679Z" fill="#E8A597"/>
</svg>
