<svg width="23" height="78" viewBox="0 0 23 78" fill="none" xmlns="http://www.w3.org/2000/svg">
<path fill-rule="evenodd" clip-rule="evenodd" d="M0 0H4.47786V5.34098H0V0ZM0 29.7241H4.47786V35.0651H0V29.7241ZM18.2583 44.2375H22.7362V49.5784H18.2583V44.2375ZM0 44.2375H4.47786V49.5784H0V44.2375ZM18.2583 29.7241H22.7362V35.0651H18.2583V29.7241ZM0 58.1457H4.47786V63.4866H0V58.1457ZM18.2583 72.659H22.7362V78H18.2583V72.659ZM0 72.659H4.47786V78H0V72.659ZM18.2583 58.1457H22.7362V63.4866H18.2583V58.1457ZM18.2583 14.5133H22.7362V19.8543H18.2583V14.5133ZM0 14.5133H4.47786V19.8543H0V14.5133ZM18.2583 0H22.7362V5.34098H18.2583V0Z" fill="#BEC5ED"/>
</svg>
