<svg width="141" height="55" viewBox="0 0 141 55" fill="none" xmlns="http://www.w3.org/2000/svg">
<path d="M10.2587 40.1958C10.2587 40.1958 38.3106 44.8979 38.6492 44.6938C38.985 44.4897 42.6195 28.6597 42.6195 28.6597C42.6195 28.6597 19.4227 24.4484 19.0459 24.4484C18.6691 24.4484 13.6256 28.5245 13.5573 28.7976C13.4863 29.0651 10.2587 40.1958 10.2587 40.1958Z" fill="#183658"/>
<path d="M95.8281 44.2168C96.4999 44.2857 130.474 43.5494 130.474 43.5494L127.919 35.6564C127.919 35.6564 123.208 28.4639 120.721 28.5963C118.23 28.7259 103.427 26.3018 100.874 28.0916C98.3185 29.8815 96.0329 28.4557 94.8205 32.7358C93.6108 37.016 92.666 37.4959 93.6081 40.0745C94.5502 42.6558 95.8281 44.2168 95.8281 44.2168Z" fill="#183658"/>
<path d="M35.9891 43.0381C36.0028 36.5862 30.8365 31.3445 24.4497 31.3306C18.063 31.3166 12.8743 36.5356 12.8606 42.9876C12.8468 49.4395 18.0132 54.6811 24.3999 54.6951C30.7867 54.7091 35.9753 49.49 35.9891 43.0381Z" fill="#1A1A1A"/>
<path d="M24.4213 51.1419C28.8641 51.1419 32.4657 47.5031 32.4657 43.0145C32.4657 38.5259 28.8641 34.8871 24.4213 34.8871C19.9784 34.8871 16.3768 38.5259 16.3768 43.0145C16.3768 47.5031 19.9784 51.1419 24.4213 51.1419Z" fill="#9E9DA2"/>
<path d="M24.4236 48.4501C27.3945 48.4501 29.8029 46.0165 29.8029 43.0144C29.8029 40.0123 27.3945 37.5787 24.4236 37.5787C21.4526 37.5787 19.0442 40.0123 19.0442 43.0144C19.0442 46.0165 21.4526 48.4501 24.4236 48.4501Z" fill="#D8D9DD"/>
<path d="M125.015 43.0389C125.029 36.587 119.863 31.3453 113.476 31.3313C107.089 31.3174 101.901 36.5363 101.887 42.9883C101.873 49.4402 107.039 54.6819 113.426 54.6959C119.813 54.7099 125.002 49.4909 125.015 43.0389Z" fill="#1A1A1A"/>
<path d="M113.45 51.1416C117.892 51.1416 121.494 47.5029 121.494 43.0142C121.494 38.5256 117.892 34.8868 113.45 34.8868C109.007 34.8868 105.405 38.5256 105.405 43.0142C105.405 47.5029 109.007 51.1416 113.45 51.1416Z" fill="#9E9DA2"/>
<path d="M113.45 48.4501C116.421 48.4501 118.829 46.0165 118.829 43.0144C118.829 40.0123 116.421 37.5787 113.45 37.5787C110.479 37.5787 108.07 40.0123 108.07 43.0144C108.07 46.0165 110.479 48.4501 113.45 48.4501Z" fill="#D8D9DD"/>
<path d="M139.996 31.8949C139.019 25.3836 135.859 24.0157 126.51 22.1293C116.193 20.0444 103.1 13.2518 103.1 13.2518C103.1 13.2518 80.7659 2.19833 75.2937 0.93248C69.8215 -0.336131 56.3677 0.0279073 45.0655 0.116159C33.7634 0.207168 27.1253 3.3787 21.3855 7.90709C15.6457 12.4355 5.687 15.88 5.687 15.88L3.87932 16.2055C2.01976 16.5419 0.665372 18.1746 0.665372 20.083V36.2385C0.665372 38.0669 1.88597 39.6665 3.63631 40.1353L10.1734 41.8783C10.7059 41.9721 11.2002 41.5887 11.2602 41.0454C11.9757 34.4349 17.6335 29.4128 24.3782 29.4211C31.5516 29.4294 37.4334 35.3835 37.4307 42.6284C37.4307 43.453 37.3542 44.2583 37.2122 45.0388C37.0648 45.8468 37.6764 46.5887 38.4902 46.5887H98.6489C99.8176 46.5887 100.727 45.5517 100.571 44.3824C100.498 43.8198 100.457 43.2462 100.457 42.6615C100.435 35.5049 106.164 29.5728 113.25 29.4266C120.592 29.2749 126.594 35.2401 126.594 42.6229C126.594 43.111 126.567 43.5937 126.518 44.068C126.373 45.4139 127.402 46.5915 128.743 46.5915H137.394C138.967 46.5915 140.242 45.3035 140.242 43.715V35.2512C140.234 34.126 140.163 33.0063 139.996 31.8949Z" fill="#2B6ED4"/>
<path d="M1.04799 21.9942H8.17224C8.78117 21.9942 9.19623 22.623 8.9614 23.1911L8.1613 25.1189C7.39945 26.9583 5.61635 28.1553 3.6421 28.1553H1.04799C0.540092 28.1553 0.127767 27.7388 0.127767 27.2259V22.9236C0.127767 22.4079 0.540092 21.9942 1.04799 21.9942Z" fill="#CF283C"/>
<path d="M128.665 24.9835C132.588 25.5902 137.108 29.3437 137.108 29.3437C138.189 30.5157 137.296 32.4187 135.712 32.3194L128.061 31.8312C126.472 31.7292 125.117 30.6316 124.675 29.0872C123.93 26.4893 124.563 24.3492 128.665 24.9835Z" fill="#E6E6E6"/>
<path d="M0.706415 36.8395C0.2149 36.8284 -0.131884 37.3248 0.0483381 37.7854C0.558967 39.0871 1.65668 40.1103 3.06022 40.4853L10.3838 42.4407C10.9791 42.5455 11.5361 42.1152 11.6017 41.5085C11.7382 40.2564 12.0331 39.054 12.4645 37.9233C12.612 37.54 12.3335 37.1263 11.9293 37.1153L0.706415 36.8395Z" fill="#276BD3"/>
<path d="M126.65 39.8838C126.093 39.87 125.665 40.3637 125.736 40.9208C125.815 41.5413 125.856 42.1728 125.856 42.8126C125.856 43.3559 125.826 43.891 125.768 44.4177C125.607 45.9097 126.751 47.2169 128.237 47.2169H137.835C139.58 47.2169 140.994 45.7884 140.994 44.0261V41.5165C140.994 40.8049 140.432 40.223 139.727 40.2065L126.65 39.8838Z" fill="#276BD3"/>
<path d="M103.116 16.9917C102.988 16.92 90.271 9.87367 81.8388 5.92994C73.4885 2.02483 64.1688 2.43851 63.7674 2.45781C62.697 2.43299 40.3986 1.94486 33.542 4.1015C26.6362 6.27468 17.6415 16.1781 17.2619 16.5973L17.1582 16.7131L19.5775 28.1748L19.8369 28.161C26.871 27.7583 32.2559 29.6502 35.407 33.627C37.7881 36.6331 38.083 39.8101 38.0858 39.8405L38.1076 40.1135L63.4671 40.7726V40.7754L63.7592 40.7809L64.0705 40.7892V40.7864L99.4077 41.4814L99.4132 41.1753C99.5907 29.5785 103.22 17.466 103.258 17.3447L103.329 17.1075L103.116 16.9917ZM38.6565 39.5206C38.5336 38.6601 37.9984 35.9381 35.8985 33.274C33.6348 30.4031 29.0556 27.0937 20.0608 27.5377L17.8163 16.8952C18.8566 15.7644 27.3653 6.6856 33.7222 4.6834C40.0819 2.6812 60.7446 3.00662 63.4671 3.06178V40.1604L38.6565 39.5206ZM98.8152 40.8636L64.0733 40.1797V3.05903C65.7089 3.01215 74.051 2.9625 81.5821 6.48427C89.3945 10.1384 100.901 16.4649 102.608 17.4081C102.106 19.1594 99.0336 30.1742 98.8152 40.8636Z" fill="#3081FE"/>
<path d="M0.0501241 37.7856C0.560753 39.0873 1.65846 40.1105 3.06201 40.4856L10.3856 42.4409C10.9809 42.5457 11.5379 42.1155 11.6035 41.5087C11.6553 41.0261 11.7318 40.549 11.8301 40.0829L0.0501241 37.7856Z" fill="#276EDB"/>
<path d="M125.842 43.5C125.828 43.8088 125.806 44.1149 125.773 44.4183C125.612 45.9103 126.757 47.2175 128.242 47.2175H137.84C139.585 47.2175 141 45.789 141 44.0267V43.5H125.842Z" fill="#276EDB"/>
<path d="M101.022 43.5C101.019 42.8381 101.065 42.1872 101.158 41.5501C101.267 40.7835 100.702 40.0912 99.9376 40.0719L37.365 38.5303C36.6824 38.5138 36.1909 39.1701 36.3765 39.8348C36.7015 40.9931 36.8763 42.212 36.8735 43.4696C36.8735 44.3025 36.7971 45.1188 36.6523 45.9103C36.5022 46.7377 37.1193 47.5016 37.9494 47.5016H99.1813C100.383 47.5016 101.289 46.4288 101.134 45.2264C101.063 44.6582 101.022 44.0846 101.022 43.5Z" fill="#276BD3"/>
<path d="M101.021 43.4998C101.021 43.4887 101.021 43.4777 101.021 43.4667H36.8727C36.8727 44.2995 36.7962 45.1159 36.6515 45.9074C36.5013 46.7347 37.1184 47.4987 37.9486 47.4987H99.1804C100.382 47.4987 101.288 46.4259 101.133 45.2234C101.062 44.6581 101.021 44.0844 101.021 43.4998Z" fill="#276EDB"/>
<path d="M31.2128 21.5887H23.608C23.3677 21.5887 23.1711 21.3901 23.1711 21.1474V20.6483C23.1711 20.4056 23.3677 20.207 23.608 20.207H31.2128C31.4531 20.207 31.6497 20.4056 31.6497 20.6483V21.1474C31.6497 21.3901 31.4531 21.5887 31.2128 21.5887Z" fill="#E6E6E6"/>
<path d="M74.2537 22.2782H66.6488C66.4085 22.2782 66.2119 22.0796 66.2119 21.8369V21.3378C66.2119 21.0951 66.4085 20.8965 66.6488 20.8965H74.2537C74.494 20.8965 74.6906 21.0951 74.6906 21.3378V21.8369C74.6878 22.0824 74.494 22.2782 74.2537 22.2782Z" fill="#E6E6E6"/>
<path d="M24.6652 18.0748L59.246 18.4058C59.246 18.4058 61.3623 18.3479 61.6517 16.3374C61.9384 14.3269 61.9166 5.71139 61.9166 5.71139C61.9166 5.71139 61.6654 3.98222 60.0242 3.96016C59.0276 3.94637 50.6718 3.34239 42.5482 4.34349C35.9209 5.15982 29.7879 8.21552 25.1376 12.9121L22.6828 15.3914C22.6828 15.3914 21.0252 18.039 24.6652 18.0748Z" fill="#183658"/>
<path d="M65.7638 6.8009V15.8329C65.7638 17.0077 66.654 17.9702 67.7817 18.0171L94.9543 19.1202C95.5769 19.145 96.1885 18.861 96.5463 18.3287C97.035 17.6034 97.0896 16.4093 94.6566 14.8069C90.4214 12.0215 79.6491 5.99837 75.6651 5.41646C73.1283 5.04415 69.8106 4.8842 67.7326 4.81525C66.654 4.78216 65.7638 5.68121 65.7638 6.8009Z" fill="#183658"/>
</svg>
