<svg width="167" height="237" viewBox="0 0 167 237" fill="none" xmlns="http://www.w3.org/2000/svg">
<path d="M76.4302 38.5834C76.2262 37.6016 76.8728 36.6459 77.8578 36.4757C83.4207 35.52 89.0399 35.568 94.5898 36.6241C100.955 37.8372 106.922 40.3202 112.324 44.0076C117.726 47.695 122.222 52.3555 125.693 57.8582C128.718 62.654 130.835 67.8905 132.007 73.4413C132.215 74.4231 131.569 75.3831 130.588 75.5533C129.659 75.7148 128.77 75.1126 128.575 74.1831C126.227 63.0118 119.805 53.381 110.354 46.9313C100.903 40.4817 89.6344 38.0292 78.4436 39.958C77.5107 40.1238 76.6211 39.5129 76.4302 38.5834Z" fill="#2B6ED4"/>
<path d="M148.071 72.1932C147.129 72.3634 146.235 71.7394 146.04 70.8012C142.794 54.9432 133.717 41.2628 120.339 32.1294C106.961 22.996 90.9667 19.5617 75.1156 22.3763C74.1739 22.5422 73.2714 21.9356 73.0805 20.993C72.8852 20.0243 73.5144 19.073 74.482 18.9028C82.3273 17.5064 90.2507 17.5631 98.0656 19.073C106.766 20.753 114.919 24.1611 122.309 29.2057C129.699 34.2502 135.856 40.6169 140.62 48.127C144.899 54.8778 147.875 62.2656 149.481 70.1117C149.685 71.0805 149.043 72.023 148.071 72.1932Z" fill="#2B6ED4"/>
<path d="M165.554 68.8331C164.612 69.0033 163.709 68.3837 163.523 67.4411C159.383 46.8877 147.646 29.1402 130.341 17.3231C113.036 5.506 92.299 1.08549 71.7745 4.79907C70.8329 4.96925 69.926 4.35396 69.7395 3.41139C69.5442 2.44263 70.1777 1.50005 71.1454 1.3255C81.2601 -0.502923 91.4789 -0.44183 101.555 1.52187C112.589 3.66885 122.938 8.00208 132.311 14.4037C141.684 20.8054 149.512 28.8784 155.565 38.4002C161.093 47.0928 164.924 56.6233 166.964 66.7516C167.163 67.716 166.521 68.6586 165.554 68.8331Z" fill="#2B6ED4"/>
<path d="M121.007 98.8559C118.911 92.7117 116.013 87.113 112.281 82.0641C109.304 78.0276 105.833 74.3577 101.849 71.0499C93.4616 64.0461 83.8286 59.5688 73.0587 57.64C64.9053 56.1825 56.7996 56.3658 48.7244 58.107C41.4475 59.7216 34.6913 62.5842 28.4516 66.673C21.0489 71.5168 14.8872 77.6087 10.0967 85.0271C5.25412 92.4455 2.12121 100.571 0.750015 109.373C-0.365163 116.481 -0.339128 123.459 1.52673 130.437C4.34722 141.11 8.75152 151.134 13.7199 160.952C17.8899 169.257 22.394 177.382 27.1585 185.372C29.5667 189.409 32.0271 193.393 34.5351 197.373C37.5118 202.138 40.5927 206.877 43.7256 211.59C49.475 220.182 55.2722 228.748 61.486 237H62.8832C63.3475 236.402 63.8161 235.804 64.2544 235.202C73.2366 222.888 81.7805 210.285 89.8601 197.373C90.9232 195.706 91.9299 194.039 92.967 192.372C94.3902 190.054 95.8135 187.711 97.2151 185.368C102.6 176.361 107.725 167.219 112.281 157.745C114.22 153.735 116.034 149.646 117.744 145.509C120.334 139.182 122.665 132.776 123.827 125.981C125.385 116.717 123.984 107.679 121.007 98.8559ZM99.1851 154.673C99.107 157.509 97.4494 159.15 94.6549 159.203H92.7891C92.763 159.36 92.763 159.517 92.763 159.669C92.6068 162.637 90.4849 164.67 87.4562 164.67H83.885C83.0302 164.67 82.1493 164.67 81.2945 164.697H81.1122C78.1616 164.697 76.0397 162.667 75.8314 159.622V159.181L48.6463 159.207C48.6463 159.573 48.6202 159.962 48.5421 160.376C48.0518 163.008 46.1338 164.644 43.5477 164.67C42.3848 164.67 41.2436 164.697 40.1023 164.697C38.9655 164.697 37.8243 164.67 36.6874 164.67C34.0708 164.618 32.0531 162.72 31.7407 160.01C31.7146 159.722 31.7146 159.438 31.6886 159.176L29.979 159.203C27.0283 159.15 25.3447 157.483 25.2926 154.594C25.2666 152.77 25.2666 150.924 25.2926 149.074C25.3447 146.705 26.5076 145.09 28.5557 144.545V143.113C28.5557 140.382 28.5557 137.646 28.5817 134.888C28.5817 134.678 28.5817 134.342 28.6598 133.923C29.046 130.851 31.2243 128.324 34.175 127.465C34.3572 127.412 34.5134 127.36 34.6653 127.334V118.742C34.6913 112.624 34.6913 106.532 34.6653 100.414C34.6653 95.5176 34.6653 90.652 34.6393 85.7558C34.6393 83.3601 35.6503 81.5884 37.5899 80.5237C37.7982 80.3928 38.0022 80.2619 38.1844 80.1309C38.8049 79.7164 39.6077 79.1927 40.6447 78.9353L40.9572 78.8567H42.5106L42.823 78.9091C43.7299 79.1447 45.8518 79.9782 45.8518 83.155V88.0512C46.1122 87.8941 46.3682 87.737 46.6546 87.5843C47.8956 86.9864 49.219 86.6199 50.5642 86.4628C51.7271 86.3057 52.8162 86.3057 53.9054 86.3057H71.822C74.3084 86.3057 76.3001 86.7464 78.0357 87.7108C78.244 87.8417 78.448 87.9726 78.6562 88.0992V83.1507C78.6562 79.9738 80.7781 79.1404 81.685 78.9047L81.9714 78.8524H83.603L83.9935 78.9571C85.4949 79.4502 86.6057 80.2837 87.6167 81.0124L88.1071 81.4008C89.1441 82.1557 89.7386 83.2772 89.7907 84.6038C89.8167 84.918 89.8167 85.2278 89.8167 85.5682L89.7907 127.356C93.0798 128.032 95.4881 130.637 95.8482 134.072C95.8743 134.281 95.9003 134.591 95.9003 134.905C95.9263 136.934 95.9263 139.02 95.9263 141.075V144.536C97.918 145.055 99.1113 146.644 99.1894 148.961C99.2111 150.924 99.2111 152.801 99.1851 154.673Z" fill="#2B6ED4"/>
<path d="M51.4707 134.473C51.5228 134.552 51.6009 134.656 51.679 134.709V134.242C51.5965 134.316 51.5228 134.394 51.4707 134.473Z" fill="#2B6ED4"/>
<path d="M51.4707 134.473C51.5228 134.552 51.6009 134.656 51.679 134.709V134.242C51.5965 134.316 51.5228 134.394 51.4707 134.473Z" fill="#2B6ED4"/>
<path d="M94.5246 146.94C93.3356 146.888 93.3356 146.888 93.3356 145.718C93.3096 142.127 93.3617 138.505 93.3096 134.914C93.3096 134.731 93.2836 134.521 93.2575 134.368C92.9972 131.737 90.9534 129.865 88.2631 129.786C87.2781 129.76 87.226 129.734 87.2 128.691V85.9129C87.2 85.5202 87.226 85.1318 87.2 84.7434C87.2 84.2503 86.9917 83.8052 86.6055 83.5216C85.5164 82.7405 84.5097 81.8546 83.2166 81.4662H82.2836C81.3767 81.6757 81.2466 82.3783 81.2466 83.1594V95.2645C81.2466 95.6311 81.2726 95.9671 81.4028 96.3075C81.4288 96.3598 81.4288 96.4122 81.4549 96.4645C81.4288 96.4645 81.4288 96.4645 81.4028 96.4384C81.3507 96.386 81.3507 96.2813 81.3507 96.2289C81.2205 95.7358 81.0904 95.2383 80.9081 94.8238C80.2355 92.9735 79.0422 91.4898 77.3369 90.3465C77.1807 90.2156 76.9724 90.1109 76.7945 90.0062C75.2411 89.1465 73.5314 88.9108 71.8261 88.9108C65.8467 88.8847 59.8673 88.9108 53.9095 88.9108C52.8985 88.9108 51.8918 88.9109 50.8808 89.0418C49.7439 89.1727 48.7328 89.4825 47.8259 89.9276C46.2465 90.7349 44.9794 91.9829 44.0725 93.7285C43.8642 94.0688 43.7124 94.431 43.5562 94.8238C43.426 95.1641 43.3218 95.5002 43.2437 95.8143C43.2698 95.5787 43.2698 95.3212 43.2698 95.0332V83.1594C43.2698 82.3783 43.1396 81.6757 42.2327 81.4662H41.2998C40.3668 81.7019 39.6422 82.3783 38.8394 82.7928C37.6505 83.443 37.2339 84.3812 37.2339 85.7602C37.26 90.6564 37.26 95.522 37.26 100.418C37.286 109.582 37.26 118.746 37.26 127.91V128.691C37.26 129.734 37.2339 129.76 36.2229 129.786C35.7846 129.813 35.342 129.839 34.9038 129.97C32.886 130.541 31.4628 132.261 31.2285 134.342C31.1764 134.525 31.1764 134.735 31.1764 134.914C31.1503 138.558 31.1764 142.179 31.1764 145.771C31.1764 146.919 31.1764 146.919 30.0395 146.94C28.5381 147.019 27.9176 147.591 27.8916 149.153C27.8656 150.951 27.8656 152.744 27.8916 154.568C27.9176 156.052 28.46 156.571 29.9874 156.597C31.0766 156.597 32.2135 156.571 33.3286 156.597C34.2355 156.597 34.2876 156.65 34.3136 157.588C34.3136 158.317 34.2616 158.993 34.3397 159.722C34.4698 161.075 35.4288 162.039 36.6959 162.065C38.9739 162.091 41.252 162.091 43.5301 162.065C44.8753 162.039 45.7561 161.284 46.0165 159.931C46.1206 159.281 46.0686 158.605 46.0686 157.955C46.0946 156.602 46.0946 156.602 47.4658 156.602H77.6537C78.1701 156.576 78.4044 156.811 78.4044 157.331C78.4044 158.059 78.4044 158.736 78.4304 159.464C78.5346 160.765 79.2332 162.148 81.2249 162.096C83.2947 162.017 85.3688 162.07 87.4647 162.07C89.0962 162.07 90.1073 161.131 90.181 159.491C90.2331 158.867 90.2071 158.269 90.2071 157.667C90.2071 156.624 90.2331 156.597 91.2441 156.597H94.6114C96.0346 156.571 96.551 156.052 96.6031 154.647C96.6291 152.77 96.6291 150.924 96.6031 149.048C96.5423 147.621 95.9478 147.019 94.5246 146.94ZM43.7818 143.894C43.0571 143.921 42.3585 143.894 41.6599 143.894H39.7203C38.3231 143.842 37.3641 142.851 37.3641 141.577C37.3641 140.277 38.3751 139.339 39.7463 139.312C41.0394 139.286 42.3629 139.286 43.656 139.312C44.9751 139.339 45.9601 140.251 45.9861 141.525C46.0078 142.83 45.1009 143.794 43.7818 143.894ZM69.9039 144.549C67.3394 144.47 64.8053 144.549 62.2408 144.549H54.2914C52.6859 144.549 51.7009 143.637 51.7009 142.049V138.924C51.6748 137.571 51.6748 136.24 51.6748 134.914V134.704C51.5967 134.652 51.5186 134.547 51.4665 134.469C51.5186 134.39 51.5967 134.312 51.6748 134.233V134.024C51.6748 132.697 51.6748 131.392 51.7009 130.066V126.967C51.7269 125.379 52.6859 124.467 54.3174 124.441C55.8188 124.415 57.3201 124.441 58.8215 124.441H69.7737C71.9476 124.441 72.7764 125.248 72.7764 127.408V130.114C72.7764 131.414 72.7504 132.719 72.7504 134.019V134.879C72.7504 136.205 72.7504 137.536 72.7764 138.837V139.749C72.7764 140.373 72.8025 140.971 72.8025 141.625C72.8285 143.716 71.5354 144.623 69.9039 144.549ZM45.2571 115.857C44.6627 115.857 44.5585 115.674 44.5585 115.102C44.5846 111.616 44.5846 108.125 44.5585 104.638C44.5325 104.04 44.7147 103.935 45.2832 103.935C50.9285 103.962 56.5955 103.962 62.2408 103.962C67.9122 103.962 73.5531 103.962 79.2245 103.935C79.819 103.935 79.9491 104.092 79.9491 104.664C79.9231 108.151 79.8971 111.616 79.9491 115.128C79.9491 115.726 79.7929 115.857 79.1985 115.857C67.8818 115.831 56.5695 115.831 45.2571 115.857ZM85.1258 143.842C83.5724 143.947 82.0189 143.947 80.4655 143.842C79.1985 143.737 78.4217 142.646 78.5259 141.394C78.604 140.224 79.5369 139.339 80.804 139.312C81.4766 139.286 82.1491 139.312 82.8217 139.312C83.4943 139.312 84.1408 139.286 84.7874 139.312C86.0805 139.339 87.0394 140.198 87.1175 141.446C87.1956 142.646 86.3929 143.768 85.1258 143.842Z" fill="#2B6ED4"/>
<path d="M71.2316 127.312C71.2055 127.753 70.9973 128.093 70.6371 128.276C70.6111 128.303 70.559 128.303 70.533 128.303C70.4288 128.355 70.3247 128.407 70.1945 128.407C70.0643 128.46 69.9081 128.46 69.7302 128.46C67.2178 128.486 64.7358 128.46 62.2234 128.46C59.737 128.46 57.2246 128.486 54.7426 128.46C54.5863 128.46 54.4562 128.46 54.3303 128.407C54.2002 128.407 54.07 128.355 53.9702 128.303H53.9441C53.9181 128.303 53.9181 128.276 53.8921 128.276C53.5015 128.119 53.2716 127.783 53.2195 127.338C53.1414 126.557 53.7619 126.012 54.7729 125.985H69.7128C70.7152 126.012 71.3097 126.531 71.2316 127.312Z" fill="#2B6ED4"/>
<path d="M51.6878 134.237V134.704C51.6097 134.652 51.5316 134.547 51.4795 134.469C51.5316 134.395 51.6097 134.316 51.6878 134.237Z" fill="#2B6ED4"/>
<path d="M51.4707 134.473C51.5228 134.552 51.6009 134.656 51.679 134.709V134.242C51.5965 134.316 51.5228 134.394 51.4707 134.473Z" fill="#2B6ED4"/>
<path d="M71.2312 141.582C71.2833 142.206 71.0229 142.651 70.4284 142.856C70.1681 142.961 69.86 142.961 69.5736 142.961H54.7378C53.7789 142.961 53.2365 142.52 53.1844 141.791C53.1584 141.298 53.4187 140.879 53.883 140.696C53.909 140.67 53.9611 140.643 54.0132 140.643C54.0913 140.591 54.1954 140.565 54.2996 140.539C54.4298 140.512 54.5599 140.486 54.6901 140.486C59.7149 140.46 64.7875 140.46 69.834 140.486C69.9641 140.486 70.0943 140.512 70.2245 140.539C70.3286 140.565 70.4328 140.591 70.5109 140.643C70.563 140.643 70.615 140.67 70.6411 140.696C70.9752 140.849 71.1791 141.163 71.2312 141.582Z" fill="#2B6ED4"/>
<path d="M71.075 132.675C70.9448 132.911 70.7886 133.042 70.6107 133.116C70.5847 133.116 70.5847 133.142 70.5586 133.142H70.5326C70.4284 133.221 70.2983 133.247 70.1681 133.299C70.0119 133.325 69.8296 133.325 69.6517 133.325H55.1284C54.868 133.325 54.586 133.325 54.3517 133.273C54.3256 133.273 54.3256 133.273 54.2996 133.247C54.1954 133.247 54.0913 133.194 53.9872 133.142C53.9351 133.142 53.9091 133.116 53.857 133.09C53.4187 132.88 53.1584 132.466 53.1844 131.994C53.2104 131.554 53.4708 131.187 53.857 131.004C53.883 131.004 53.883 130.978 53.9091 130.978C54.0392 130.925 54.1694 130.873 54.2952 130.873C54.3733 130.847 54.4515 130.847 54.5296 130.847C57.094 130.821 59.6802 130.847 62.2447 130.847C64.7831 130.847 67.3172 130.821 69.8296 130.847C69.9598 130.847 70.0639 130.873 70.1941 130.899C70.2983 130.899 70.3764 130.951 70.4805 131.004H70.5065C70.5326 131.004 70.5847 131.004 70.6107 131.03C71.2052 131.322 71.4395 132.025 71.075 132.675Z" fill="#2B6ED4"/>
<path d="M71.2576 136.943C71.2316 137.41 71.0233 137.75 70.6371 137.934H70.6111C70.4809 138.012 70.3507 138.038 70.1988 138.038C70.0947 138.091 69.9906 138.091 69.8604 138.091H54.5603C54.4562 138.091 54.3781 138.091 54.3 138.064C54.1437 138.064 54.0136 138.038 53.9138 137.96C53.8877 137.96 53.8877 137.934 53.8617 137.934C53.6534 137.855 53.4712 137.672 53.3453 137.414C53.137 137.021 53.1891 136.633 53.4234 136.219C53.5276 136.035 53.6838 135.931 53.8617 135.826C53.8877 135.826 53.8877 135.8 53.9138 135.826C54.0179 135.747 54.1741 135.721 54.3 135.721C54.4301 135.695 54.5863 135.695 54.7122 135.695H69.804C69.9341 135.695 70.0643 135.695 70.1685 135.747C70.3247 135.747 70.4548 135.773 70.5807 135.826C70.6067 135.826 70.6067 135.852 70.6328 135.852C71.0493 136.088 71.2836 136.45 71.2576 136.943Z" fill="#2B6ED4"/>
</svg>
