<svg width="50" height="24" viewBox="0 0 50 24" fill="none" xmlns="http://www.w3.org/2000/svg">
<path d="M48.288 9.51324L40.9567 6.98776L36.1576 0L26.2149 0.0125454V8.59936H1.21973V18.184H4.38019C4.92254 15.1278 7.59566 12.7982 10.8053 12.7982C14.015 12.7982 16.6882 15.1278 17.2305 18.184H18.2486H32.6603H33.8637C34.4061 15.1278 37.0792 12.7982 40.2889 12.7982C43.4985 12.7982 46.1717 15.1278 46.714 18.184H48.288V9.51324Z" fill="#FFC34E"/>
<path d="M10.8055 14.6327C8.61098 14.6327 6.76585 16.1468 6.25342 18.185H6.39721H15.3565C14.846 16.1468 12.9999 14.6327 10.8055 14.6327Z" fill="#312E37"/>
<path d="M33.4074 9.35978C33.4074 9.12721 33.1932 8.93903 32.9288 8.93903H31.185C30.9205 8.93903 30.7063 9.12721 30.7063 9.35978C30.7063 9.59235 30.9205 9.78053 31.185 9.78053H32.9288C33.1932 9.77956 33.4074 9.59138 33.4074 9.35978Z" fill="white"/>
<path d="M29.0474 1.40607L35.2235 1.39642L38.8694 6.98779H29.0474V1.40607Z" fill="#A8E0FB"/>
<path d="M6.12015 19.0468C6.26587 16.5879 8.31076 14.6318 10.8054 14.6318C13.3 14.6318 15.3458 16.5879 15.4906 19.0468H17.326C17.1784 15.5765 14.3103 12.7982 10.8054 12.7982C7.29941 12.7982 4.43135 15.5765 4.28467 19.0468H6.12015Z" fill="#FCA84D"/>
<path d="M10.8054 23.7156C13.2294 23.7156 15.1944 21.7506 15.1944 19.3266C15.1944 16.9027 13.2294 14.9377 10.8054 14.9377C8.3815 14.9377 6.4165 16.9027 6.4165 19.3266C6.4165 21.7506 8.3815 23.7156 10.8054 23.7156Z" fill="#312E37"/>
<path d="M10.8055 22.2641C12.4278 22.2641 13.743 20.9489 13.743 19.3266C13.743 17.7042 12.4278 16.389 10.8055 16.389C9.1831 16.389 7.86792 17.7042 7.86792 19.3266C7.86792 20.9489 9.1831 22.2641 10.8055 22.2641Z" fill="#5C5963"/>
<path d="M10.8053 21.9081C12.231 21.9081 13.3868 20.7523 13.3868 19.3266C13.3868 17.9009 12.231 16.7452 10.8053 16.7452C9.37963 16.7452 8.22388 17.9009 8.22388 19.3266C8.22388 20.7523 9.37963 21.9081 10.8053 21.9081Z" fill="#E9E8ED"/>
<path d="M10.8054 20.9218C11.6864 20.9218 12.4006 20.2076 12.4006 19.3266C12.4006 18.4456 11.6864 17.7314 10.8054 17.7314C9.9244 17.7314 9.21021 18.4456 9.21021 19.3266C9.21021 20.2076 9.9244 20.9218 10.8054 20.9218Z" fill="#312E37"/>
<path d="M10.8054 17.5529C10.9301 17.5529 11.0312 17.4518 11.0312 17.3271C11.0312 17.2024 10.9301 17.1013 10.8054 17.1013C10.6807 17.1013 10.5796 17.2024 10.5796 17.3271C10.5796 17.4518 10.6807 17.5529 10.8054 17.5529Z" fill="#5C5963"/>
<path d="M10.8054 21.552C10.9301 21.552 11.0312 21.4509 11.0312 21.3262C11.0312 21.2014 10.9301 21.1003 10.8054 21.1003C10.6807 21.1003 10.5796 21.2014 10.5796 21.3262C10.5796 21.4509 10.6807 21.552 10.8054 21.552Z" fill="#5C5963"/>
<path d="M10.0016 17.4825C9.93887 17.3744 9.80087 17.3377 9.69278 17.3995C9.5847 17.4622 9.54803 17.6002 9.60979 17.7083C9.67252 17.8164 9.81052 17.853 9.9186 17.7913C10.0267 17.7285 10.0634 17.5905 10.0016 17.4825Z" fill="#5C5963"/>
<path d="M12.0011 20.946C11.9384 20.8379 11.8004 20.8012 11.6923 20.863C11.5842 20.9257 11.5475 21.0637 11.6093 21.1718C11.672 21.2799 11.81 21.3165 11.9181 21.2548C12.0262 21.192 12.0638 21.054 12.0011 20.946Z" fill="#5C5963"/>
<path d="M9.1871 18.1309C9.07901 18.0682 8.94101 18.1058 8.87829 18.2139C8.81556 18.322 8.8532 18.46 8.96128 18.5227C9.06936 18.5854 9.20736 18.5478 9.27009 18.4397C9.33185 18.3316 9.29518 18.1936 9.1871 18.1309Z" fill="#5C5963"/>
<path d="M12.6505 20.1304C12.5424 20.0677 12.4044 20.1053 12.3417 20.2134C12.2789 20.3215 12.3166 20.4595 12.4247 20.5222C12.5327 20.585 12.6707 20.5473 12.7335 20.4392C12.7952 20.3311 12.7586 20.1931 12.6505 20.1304Z" fill="#5C5963"/>
<path d="M8.80589 19.5524C8.93061 19.5524 9.03171 19.4513 9.03171 19.3266C9.03171 19.2019 8.93061 19.1008 8.80589 19.1008C8.68118 19.1008 8.58008 19.2019 8.58008 19.3266C8.58008 19.4513 8.68118 19.5524 8.80589 19.5524Z" fill="#5C5963"/>
<path d="M12.8049 19.5524C12.9296 19.5524 13.0307 19.4513 13.0307 19.3266C13.0307 19.2019 12.9296 19.1008 12.8049 19.1008C12.6802 19.1008 12.5791 19.2019 12.5791 19.3266C12.5791 19.4513 12.6802 19.5524 12.8049 19.5524Z" fill="#5C5963"/>
<path d="M8.96134 20.1304C8.85326 20.1931 8.81658 20.3311 8.87835 20.4392C8.94107 20.5473 9.07907 20.584 9.18715 20.5222C9.29524 20.4595 9.33191 20.3215 9.27015 20.2134C9.20742 20.1053 9.06942 20.0687 8.96134 20.1304Z" fill="#5C5963"/>
<path d="M12.4237 18.1309C12.3157 18.1936 12.279 18.3316 12.3407 18.4397C12.4035 18.5478 12.5415 18.5845 12.6496 18.5227C12.7576 18.46 12.7943 18.322 12.7326 18.2139C12.6708 18.1058 12.5318 18.0691 12.4237 18.1309Z" fill="#5C5963"/>
<path d="M9.60973 20.946C9.54701 21.054 9.58464 21.192 9.69272 21.2548C9.80081 21.3175 9.93881 21.2799 10.0015 21.1718C10.0643 21.0637 10.0266 20.9257 9.91854 20.863C9.81046 20.8002 9.67246 20.8379 9.60973 20.946Z" fill="#5C5963"/>
<path d="M11.6092 17.4825C11.5465 17.5905 11.5842 17.7285 11.6922 17.7913C11.8003 17.854 11.9383 17.8164 12.001 17.7083C12.0638 17.6002 12.0261 17.4622 11.9181 17.3995C11.81 17.3367 11.672 17.3744 11.6092 17.4825Z" fill="#5C5963"/>
<path d="M35.6028 19.0468C35.7485 16.5879 37.7934 14.6318 40.288 14.6318C42.7826 14.6318 44.8285 16.5879 44.9732 19.0468H46.8087C46.6611 15.5765 43.793 12.7982 40.288 12.7982C36.7821 12.7982 33.914 15.5765 33.7673 19.0468H35.6028Z" fill="#FCA84D"/>
<path d="M40.2888 14.6327C38.0944 14.6327 36.2492 16.1468 35.7368 18.185H44.5195H44.8399C44.3285 16.1468 42.4833 14.6327 40.2888 14.6327Z" fill="#312E37"/>
<path d="M40.2888 23.7156C42.7128 23.7156 44.6778 21.7506 44.6778 19.3266C44.6778 16.9027 42.7128 14.9377 40.2888 14.9377C37.8649 14.9377 35.8999 16.9027 35.8999 19.3266C35.8999 21.7506 37.8649 23.7156 40.2888 23.7156Z" fill="#312E37"/>
<path d="M40.2889 22.2642C41.9112 22.2642 43.2264 20.949 43.2264 19.3266C43.2264 17.7043 41.9112 16.3891 40.2889 16.3891C38.6665 16.3891 37.3513 17.7043 37.3513 19.3266C37.3513 20.949 38.6665 22.2642 40.2889 22.2642Z" fill="#5C5963"/>
<path d="M40.2887 21.9081C41.7144 21.9081 42.8702 20.7523 42.8702 19.3266C42.8702 17.9009 41.7144 16.7452 40.2887 16.7452C38.863 16.7452 37.7073 17.9009 37.7073 19.3266C37.7073 20.7523 38.863 21.9081 40.2887 21.9081Z" fill="#E9E8ED"/>
<path d="M40.2888 20.9218C41.1698 20.9218 41.884 20.2076 41.884 19.3266C41.884 18.4456 41.1698 17.7314 40.2888 17.7314C39.4078 17.7314 38.6936 18.4456 38.6936 19.3266C38.6936 20.2076 39.4078 20.9218 40.2888 20.9218Z" fill="#312E37"/>
<path d="M40.5146 17.3271C40.5146 17.2026 40.4133 17.1013 40.2888 17.1013C40.1643 17.1013 40.063 17.2026 40.063 17.3271C40.063 17.4516 40.1643 17.5529 40.2888 17.5529C40.4133 17.5529 40.5146 17.4525 40.5146 17.3271Z" fill="#5C5963"/>
<path d="M40.5146 21.3262C40.5146 21.2017 40.4133 21.1003 40.2888 21.1003C40.1643 21.1003 40.063 21.2017 40.063 21.3262C40.063 21.4506 40.1643 21.552 40.2888 21.552C40.4133 21.552 40.5146 21.4516 40.5146 21.3262Z" fill="#5C5963"/>
<path d="M39.484 17.4825C39.4213 17.3744 39.2833 17.3377 39.1752 17.3995C39.0671 17.4622 39.0305 17.6002 39.0922 17.7083C39.1549 17.8164 39.2929 17.853 39.401 17.7913C39.5101 17.7285 39.5467 17.5905 39.484 17.4825Z" fill="#5C5963"/>
<path d="M41.4835 20.946C41.4208 20.8379 41.2828 20.8012 41.1747 20.863C41.0666 20.9257 41.03 21.0637 41.0917 21.1718C41.1545 21.2799 41.2925 21.3165 41.4005 21.2548C41.5096 21.192 41.5463 21.054 41.4835 20.946Z" fill="#5C5963"/>
<path d="M38.6695 18.1309C38.5614 18.0682 38.4234 18.1058 38.3607 18.2139C38.298 18.322 38.3356 18.46 38.4437 18.5227C38.5518 18.5854 38.6898 18.5478 38.7525 18.4397C38.8152 18.3316 38.7776 18.1936 38.6695 18.1309Z" fill="#5C5963"/>
<path d="M42.1329 20.1304C42.0248 20.0677 41.8868 20.1053 41.8241 20.2134C41.7614 20.3215 41.799 20.4595 41.9071 20.5222C42.0152 20.585 42.1532 20.5473 42.2159 20.4392C42.2786 20.3311 42.241 20.1931 42.1329 20.1304Z" fill="#5C5963"/>
<path d="M38.3234 19.5486C38.4465 19.5287 38.5302 19.4128 38.5104 19.2897C38.4905 19.1666 38.3746 19.0829 38.2515 19.1027C38.1284 19.1226 38.0447 19.2385 38.0645 19.3616C38.0844 19.4847 38.2003 19.5684 38.3234 19.5486Z" fill="#5C5963"/>
<path d="M42.2883 19.5524C42.413 19.5524 42.5141 19.4513 42.5141 19.3266C42.5141 19.2019 42.413 19.1008 42.2883 19.1008C42.1636 19.1008 42.0625 19.2019 42.0625 19.3266C42.0625 19.4513 42.1636 19.5524 42.2883 19.5524Z" fill="#5C5963"/>
<path d="M38.4438 20.1305C38.3357 20.1932 38.299 20.3312 38.3608 20.4393C38.4235 20.5474 38.5615 20.584 38.6696 20.5223C38.7777 20.4596 38.8143 20.3216 38.7526 20.2135C38.6898 20.1054 38.5518 20.0687 38.4438 20.1305Z" fill="#5C5963"/>
<path d="M41.9071 18.131C41.7991 18.1937 41.7624 18.3317 41.8241 18.4398C41.8869 18.5479 42.0249 18.5845 42.133 18.5228C42.241 18.46 42.2777 18.322 42.2159 18.214C42.1532 18.1059 42.0152 18.0692 41.9071 18.131Z" fill="#5C5963"/>
<path d="M39.0931 20.946C39.0304 21.054 39.068 21.192 39.1761 21.2548C39.2842 21.3175 39.4222 21.2799 39.4849 21.1718C39.5477 21.0637 39.51 20.9257 39.4019 20.863C39.2939 20.8002 39.1549 20.8379 39.0931 20.946Z" fill="#5C5963"/>
<path d="M41.0926 17.4825C41.0299 17.5905 41.0676 17.7285 41.1756 17.7913C41.2837 17.854 41.4217 17.8164 41.4844 17.7083C41.5472 17.6002 41.5095 17.4622 41.4014 17.3995C41.2934 17.3367 41.1554 17.3744 41.0926 17.4825Z" fill="#5C5963"/>
<path d="M29.0474 1.40607V6.98779L35.2235 1.39642L29.0474 1.40607Z" fill="#89D7F9"/>
<path d="M48.288 9.51324C48.288 9.51324 49.2182 10.1 49.2539 11.3217C49.2897 12.5434 49.2539 18.185 49.2539 18.185H48.288L46.99 13.2267L48.288 9.51324Z" fill="#FFC34E"/>
<path d="M50.0001 16.999C50.0001 16.7635 49.8496 16.5715 49.6633 16.5715H46.0145C45.8283 16.5715 45.6777 16.7625 45.6777 16.999V17.8887C45.6777 18.1242 45.8283 18.3162 46.0145 18.3162H49.6633C49.8496 18.3162 50.0001 18.1252 50.0001 17.8887V16.999Z" fill="#FCA84D"/>
<path d="M5.81815 17.1177C5.81815 16.9295 5.69366 16.7761 5.54119 16.7761H0.276963C0.123523 16.7761 0 16.9285 0 17.1177V18.0846C0 18.2728 0.124489 18.4263 0.276963 18.4263H5.54119C5.69463 18.4263 5.81815 18.2738 5.81815 18.0846V17.1177Z" fill="#FCA84D"/>
<path d="M35.4454 17.1177C35.4454 16.9295 35.3209 16.7761 35.1684 16.7761H16.5907C16.4372 16.7761 16.3137 16.9285 16.3137 17.1177V18.0846C16.3137 18.2728 16.4382 18.4263 16.5907 18.4263H35.1684C35.3219 18.4263 35.4454 18.2738 35.4454 18.0846V17.1177Z" fill="#FCA84D"/>
<path d="M27.6943 0.0742798V17.3936" stroke="#FCA84D" stroke-width="1.4173" stroke-miterlimit="10"/>
<path d="M1.22949 10.4233H27.7388" stroke="#FCA84D" stroke-width="1.4173" stroke-miterlimit="10"/>
</svg>
