<svg width="50" height="24" viewBox="0 0 50 24" fill="none" xmlns="http://www.w3.org/2000/svg">
<path d="M48.2881 9.51324L40.9568 6.98776L36.1577 0L26.215 0.0125454V8.59936H1.21985V18.184H4.38031C4.92266 15.1278 7.59578 12.7982 10.8055 12.7982C14.0151 12.7982 16.6883 15.1278 17.2306 18.184H18.2487H32.6604H33.8638C34.4062 15.1278 37.0793 12.7982 40.289 12.7982C43.4987 12.7982 46.1718 15.1278 46.7141 18.184H48.2881V9.51324Z" fill="#2B6ED4"/>
<path d="M10.8055 14.6327C8.61098 14.6327 6.76585 16.1468 6.25342 18.185H6.39721H15.3565C14.846 16.1468 12.9999 14.6327 10.8055 14.6327Z" fill="#312E37"/>
<path d="M33.4073 9.35981C33.4073 9.12724 33.1931 8.93906 32.9286 8.93906H31.1848C30.9204 8.93906 30.7062 9.12724 30.7062 9.35981C30.7062 9.59238 30.9204 9.78056 31.1848 9.78056H32.9286C33.1931 9.7796 33.4073 9.59141 33.4073 9.35981Z" fill="white"/>
<path d="M29.0474 1.40604L35.2235 1.39639L38.8694 6.98776H29.0474V1.40604Z" fill="#A8E0FB"/>
<path d="M6.12015 19.0467C6.26587 16.5878 8.31076 14.6317 10.8054 14.6317C13.3 14.6317 15.3458 16.5878 15.4906 19.0467H17.326C17.1784 15.5765 14.3103 12.7982 10.8054 12.7982C7.29941 12.7982 4.43135 15.5765 4.28467 19.0467H6.12015Z" fill="#1F60C4"/>
<path d="M10.8054 23.7155C13.2294 23.7155 15.1944 21.7505 15.1944 19.3266C15.1944 16.9027 13.2294 14.9377 10.8054 14.9377C8.3815 14.9377 6.4165 16.9027 6.4165 19.3266C6.4165 21.7505 8.3815 23.7155 10.8054 23.7155Z" fill="#312E37"/>
<path d="M10.8055 22.2642C12.4278 22.2642 13.743 20.949 13.743 19.3266C13.743 17.7043 12.4278 16.3891 10.8055 16.3891C9.1831 16.3891 7.86792 17.7043 7.86792 19.3266C7.86792 20.949 9.1831 22.2642 10.8055 22.2642Z" fill="#5C5963"/>
<path d="M10.8054 21.908C12.2311 21.908 13.3869 20.7523 13.3869 19.3266C13.3869 17.9009 12.2311 16.7451 10.8054 16.7451C9.37975 16.7451 8.224 17.9009 8.224 19.3266C8.224 20.7523 9.37975 21.908 10.8054 21.908Z" fill="#E9E8ED"/>
<path d="M10.8054 20.9218C11.6864 20.9218 12.4006 20.2076 12.4006 19.3266C12.4006 18.4456 11.6864 17.7314 10.8054 17.7314C9.9244 17.7314 9.21021 18.4456 9.21021 19.3266C9.21021 20.2076 9.9244 20.9218 10.8054 20.9218Z" fill="#312E37"/>
<path d="M10.8054 17.5529C10.9301 17.5529 11.0312 17.4518 11.0312 17.3271C11.0312 17.2024 10.9301 17.1013 10.8054 17.1013C10.6807 17.1013 10.5796 17.2024 10.5796 17.3271C10.5796 17.4518 10.6807 17.5529 10.8054 17.5529Z" fill="#5C5963"/>
<path d="M10.8054 21.552C10.9301 21.552 11.0312 21.4509 11.0312 21.3262C11.0312 21.2014 10.9301 21.1003 10.8054 21.1003C10.6807 21.1003 10.5796 21.2014 10.5796 21.3262C10.5796 21.4509 10.6807 21.552 10.8054 21.552Z" fill="#5C5963"/>
<path d="M10.0016 17.4824C9.93887 17.3743 9.80087 17.3377 9.69278 17.3994C9.5847 17.4622 9.54803 17.6002 9.60979 17.7082C9.67252 17.8163 9.81052 17.853 9.9186 17.7912C10.0267 17.7285 10.0634 17.5905 10.0016 17.4824Z" fill="#5C5963"/>
<path d="M12.0011 20.9459C11.9384 20.8378 11.8004 20.8011 11.6923 20.8629C11.5842 20.9256 11.5475 21.0636 11.6093 21.1717C11.672 21.2798 11.81 21.3165 11.9181 21.2547C12.0262 21.192 12.0638 21.054 12.0011 20.9459Z" fill="#5C5963"/>
<path d="M9.1871 18.1309C9.07901 18.0682 8.94101 18.1059 8.87829 18.2139C8.81556 18.322 8.8532 18.46 8.96128 18.5227C9.06936 18.5855 9.20736 18.5478 9.27009 18.4398C9.33185 18.3317 9.29518 18.1937 9.1871 18.1309Z" fill="#5C5963"/>
<path d="M12.6506 20.1305C12.5425 20.0678 12.4045 20.1054 12.3418 20.2135C12.2791 20.3216 12.3167 20.4596 12.4248 20.5223C12.5329 20.585 12.6709 20.5474 12.7336 20.4393C12.7954 20.3312 12.7587 20.1932 12.6506 20.1305Z" fill="#5C5963"/>
<path d="M8.80589 19.5524C8.93061 19.5524 9.03171 19.4513 9.03171 19.3266C9.03171 19.2019 8.93061 19.1008 8.80589 19.1008C8.68118 19.1008 8.58008 19.2019 8.58008 19.3266C8.58008 19.4513 8.68118 19.5524 8.80589 19.5524Z" fill="#5C5963"/>
<path d="M12.8049 19.5524C12.9296 19.5524 13.0307 19.4513 13.0307 19.3266C13.0307 19.2019 12.9296 19.1008 12.8049 19.1008C12.6802 19.1008 12.5791 19.2019 12.5791 19.3266C12.5791 19.4513 12.6802 19.5524 12.8049 19.5524Z" fill="#5C5963"/>
<path d="M8.96122 20.1305C8.85313 20.1932 8.81646 20.3312 8.87822 20.4393C8.94095 20.5474 9.07895 20.584 9.18703 20.5223C9.29512 20.4596 9.33179 20.3216 9.27003 20.2135C9.2073 20.1054 9.0693 20.0687 8.96122 20.1305Z" fill="#5C5963"/>
<path d="M12.4237 18.1309C12.3157 18.1937 12.279 18.3317 12.3407 18.4397C12.4035 18.5478 12.5415 18.5845 12.6496 18.5227C12.7576 18.46 12.7943 18.322 12.7326 18.2139C12.6708 18.1058 12.5318 18.0692 12.4237 18.1309Z" fill="#5C5963"/>
<path d="M9.60973 20.9459C9.54701 21.054 9.58464 21.192 9.69272 21.2547C9.80081 21.3174 9.93881 21.2798 10.0015 21.1717C10.0643 21.0636 10.0266 20.9256 9.91854 20.8629C9.81046 20.8002 9.67246 20.8378 9.60973 20.9459Z" fill="#5C5963"/>
<path d="M11.6092 17.4824C11.5465 17.5905 11.5842 17.7285 11.6922 17.7912C11.8003 17.854 11.9383 17.8163 12.001 17.7082C12.0638 17.6002 12.0261 17.4622 11.9181 17.3994C11.81 17.3367 11.672 17.3743 11.6092 17.4824Z" fill="#5C5963"/>
<path d="M35.6027 19.0467C35.7484 16.5878 37.7933 14.6317 40.2879 14.6317C42.7825 14.6317 44.8284 16.5878 44.9731 19.0467H46.8086C46.6609 15.5765 43.7929 12.7982 40.2879 12.7982C36.782 12.7982 33.9139 15.5765 33.7672 19.0467H35.6027Z" fill="#1F60C4"/>
<path d="M40.289 14.6327C38.0945 14.6327 36.2494 16.1468 35.7369 18.185H44.5197H44.84C44.3286 16.1468 42.4834 14.6327 40.289 14.6327Z" fill="#312E37"/>
<path d="M40.289 23.7155C42.7129 23.7155 44.6779 21.7505 44.6779 19.3266C44.6779 16.9027 42.7129 14.9377 40.289 14.9377C37.865 14.9377 35.9 16.9027 35.9 19.3266C35.9 21.7505 37.865 23.7155 40.289 23.7155Z" fill="#312E37"/>
<path d="M40.289 22.2642C41.9113 22.2642 43.2265 20.949 43.2265 19.3266C43.2265 17.7043 41.9113 16.3891 40.289 16.3891C38.6666 16.3891 37.3514 17.7043 37.3514 19.3266C37.3514 20.949 38.6666 22.2642 40.289 22.2642Z" fill="#5C5963"/>
<path d="M40.289 21.908C41.7147 21.908 42.8704 20.7523 42.8704 19.3266C42.8704 17.9009 41.7147 16.7451 40.289 16.7451C38.8633 16.7451 37.7075 17.9009 37.7075 19.3266C37.7075 20.7523 38.8633 21.908 40.289 21.908Z" fill="#E9E8ED"/>
<path d="M40.2889 20.9218C41.1699 20.9218 41.8841 20.2076 41.8841 19.3266C41.8841 18.4456 41.1699 17.7314 40.2889 17.7314C39.4079 17.7314 38.6937 18.4456 38.6937 19.3266C38.6937 20.2076 39.4079 20.9218 40.2889 20.9218Z" fill="#312E37"/>
<path d="M40.5147 17.3271C40.5147 17.2026 40.4134 17.1013 40.2889 17.1013C40.1644 17.1013 40.0631 17.2026 40.0631 17.3271C40.0631 17.4516 40.1644 17.5529 40.2889 17.5529C40.4134 17.5529 40.5147 17.4525 40.5147 17.3271Z" fill="#5C5963"/>
<path d="M40.5147 21.3262C40.5147 21.2017 40.4134 21.1003 40.2889 21.1003C40.1644 21.1003 40.0631 21.2017 40.0631 21.3262C40.0631 21.4506 40.1644 21.552 40.2889 21.552C40.4134 21.552 40.5147 21.4516 40.5147 21.3262Z" fill="#5C5963"/>
<path d="M39.4841 17.4825C39.4214 17.3744 39.2834 17.3377 39.1753 17.3995C39.0672 17.4622 39.0306 17.6002 39.0923 17.7083C39.1551 17.8164 39.2931 17.853 39.4011 17.7913C39.5102 17.7285 39.5469 17.5905 39.4841 17.4825Z" fill="#5C5963"/>
<path d="M41.4836 20.9459C41.4209 20.8378 41.2829 20.8012 41.1748 20.8629C41.0668 20.9257 41.0301 21.0637 41.0918 21.1717C41.1546 21.2798 41.2926 21.3165 41.4007 21.2547C41.5097 21.192 41.5464 21.054 41.4836 20.9459Z" fill="#5C5963"/>
<path d="M38.6696 18.1309C38.5616 18.0682 38.4236 18.1059 38.3608 18.2139C38.2981 18.322 38.3357 18.46 38.4438 18.5227C38.5519 18.5855 38.6899 18.5478 38.7526 18.4398C38.8154 18.3317 38.7777 18.1937 38.6696 18.1309Z" fill="#5C5963"/>
<path d="M42.1331 20.1305C42.0251 20.0678 41.8871 20.1054 41.8243 20.2135C41.7616 20.3216 41.7992 20.4596 41.9073 20.5223C42.0154 20.585 42.1534 20.5474 42.2161 20.4393C42.2789 20.3312 42.2412 20.1932 42.1331 20.1305Z" fill="#5C5963"/>
<path d="M38.3235 19.5486C38.4466 19.5288 38.5303 19.4128 38.5105 19.2897C38.4906 19.1666 38.3747 19.0829 38.2516 19.1028C38.1285 19.1226 38.0448 19.2385 38.0646 19.3616C38.0845 19.4847 38.2004 19.5685 38.3235 19.5486Z" fill="#5C5963"/>
<path d="M42.2884 19.5524C42.4132 19.5524 42.5143 19.4513 42.5143 19.3266C42.5143 19.2019 42.4132 19.1008 42.2884 19.1008C42.1637 19.1008 42.0626 19.2019 42.0626 19.3266C42.0626 19.4513 42.1637 19.5524 42.2884 19.5524Z" fill="#5C5963"/>
<path d="M38.4438 20.1305C38.3357 20.1932 38.299 20.3312 38.3608 20.4393C38.4235 20.5474 38.5615 20.584 38.6696 20.5223C38.7777 20.4596 38.8143 20.3216 38.7526 20.2135C38.6898 20.1054 38.5518 20.0687 38.4438 20.1305Z" fill="#5C5963"/>
<path d="M41.9073 18.1309C41.7992 18.1937 41.7625 18.3317 41.8243 18.4397C41.887 18.5478 42.025 18.5845 42.1331 18.5227C42.2412 18.46 42.2778 18.322 42.2161 18.2139C42.1533 18.1058 42.0153 18.0692 41.9073 18.1309Z" fill="#5C5963"/>
<path d="M39.0933 20.9459C39.0305 21.054 39.0682 21.192 39.1762 21.2547C39.2843 21.3174 39.4223 21.2798 39.4851 21.1717C39.5478 21.0636 39.5101 20.9256 39.4021 20.8629C39.294 20.8002 39.155 20.8378 39.0933 20.9459Z" fill="#5C5963"/>
<path d="M41.0928 17.4824C41.03 17.5905 41.0677 17.7285 41.1758 17.7912C41.2838 17.854 41.4218 17.8163 41.4846 17.7082C41.5473 17.6002 41.5097 17.4622 41.4016 17.3994C41.2935 17.3367 41.1555 17.3743 41.0928 17.4824Z" fill="#5C5963"/>
<path d="M29.0474 1.40604V6.98776L35.2235 1.39639L29.0474 1.40604Z" fill="#89D7F9"/>
<path d="M48.2881 9.51324C48.2881 9.51324 49.2184 10.1 49.2541 11.3217C49.2898 12.5434 49.2541 18.185 49.2541 18.185H48.2881L46.9901 13.2267L48.2881 9.51324Z" fill="#2B6ED4"/>
<path d="M50 16.9989C50 16.7635 49.8494 16.5714 49.6632 16.5714H46.0144C45.8282 16.5714 45.6776 16.7625 45.6776 16.9989V17.8887C45.6776 18.1242 45.8282 18.3162 46.0144 18.3162H49.6632C49.8494 18.3162 50 18.1251 50 17.8887V16.9989Z" fill="#1F60C4"/>
<path d="M5.81815 17.1177C5.81815 16.9295 5.69366 16.776 5.54119 16.776H0.276963C0.123523 16.776 0 16.9285 0 17.1177V18.0846C0 18.2728 0.124489 18.4262 0.276963 18.4262H5.54119C5.69463 18.4262 5.81815 18.2738 5.81815 18.0846V17.1177Z" fill="#1F60C4"/>
<path d="M35.4455 17.1177C35.4455 16.9295 35.321 16.776 35.1685 16.776H16.5908C16.4374 16.776 16.3138 16.9285 16.3138 17.1177V18.0846C16.3138 18.2728 16.4383 18.4262 16.5908 18.4262H35.1685C35.322 18.4262 35.4455 18.2738 35.4455 18.0846V17.1177Z" fill="#1F60C4"/>
<path d="M27.6943 0.0743103V17.3937" stroke="#1F60C4" stroke-width="1.4173" stroke-miterlimit="10"/>
<path d="M1.22949 10.4232H27.7388" stroke="#1F60C4" stroke-width="1.4173" stroke-miterlimit="10"/>
</svg>
