<svg width="123" height="60" viewBox="0 0 123 60" fill="none" xmlns="http://www.w3.org/2000/svg">
<path d="M116.293 28.983C116.213 28.7065 116.107 28.4365 115.941 28.1666L115.934 28.16C115.762 27.8835 115.529 27.6004 115.191 27.3173C104.204 21.9448 92.1005 19.6206 89.0914 19.0939C89.0051 19.0017 88.9187 18.903 88.8257 18.8042C88.4072 18.3499 87.9555 17.8627 87.4839 17.3557L87.4772 17.3491C87.2713 17.1253 87.0587 16.9014 86.8395 16.671C86.7997 16.6315 86.7598 16.5854 86.72 16.5459C86.6868 16.513 86.6536 16.4801 86.627 16.4471C86.6203 16.4406 86.6137 16.434 86.6004 16.4208C86.4011 16.2101 86.2085 15.9994 86.0026 15.7887C85.7036 15.4727 85.3914 15.1501 85.0859 14.8209C84.9995 14.7287 84.9132 14.6366 84.8268 14.551C84.581 14.2942 84.3286 14.0308 84.0762 13.7741C83.9699 13.6621 83.8636 13.5568 83.7573 13.4449C83.5182 13.2012 83.2791 12.9576 83.0399 12.7075C82.927 12.5889 82.8074 12.477 82.6945 12.3585C82.6613 12.3256 82.6281 12.2927 82.5949 12.2597C82.5218 12.1873 82.4487 12.1149 82.3757 12.0359C82.2428 11.8976 82.1033 11.7594 81.9638 11.6277C81.8575 11.5223 81.7579 11.4236 81.6516 11.3182C81.5719 11.2392 81.4922 11.1602 81.4125 11.0812C81.2663 10.9364 81.1135 10.7915 80.9674 10.6401C80.901 10.5742 80.8346 10.5084 80.7681 10.4426C80.715 10.3899 80.6685 10.3438 80.6154 10.2911C80.5622 10.2385 80.5091 10.1858 80.4493 10.1331C80.3164 10.0014 80.1836 9.87635 80.0441 9.74467C79.8714 9.58007 79.6987 9.40889 79.526 9.24429C79.506 9.22454 79.4795 9.1982 79.4595 9.17845C79.34 9.06652 79.2204 8.9546 79.1075 8.84267C78.9148 8.65832 78.7222 8.47397 78.5229 8.2962C78.4698 8.25011 78.4233 8.20402 78.3701 8.15794C78.3568 8.14477 78.3436 8.13818 78.3369 8.12502C78.2771 8.07235 78.224 8.01967 78.1642 7.967C77.9649 7.78265 77.7723 7.60488 77.573 7.42712C77.4933 7.35469 77.4136 7.27569 77.3272 7.20326C77.2608 7.14401 77.201 7.09133 77.1346 7.03208C76.9685 6.88065 76.8025 6.7358 76.6364 6.58437C76.5235 6.48561 76.4172 6.39344 76.3043 6.29468C76.3043 6.29468 76.3043 6.29468 76.3043 6.28809C76.2445 6.23542 76.178 6.17616 76.1116 6.12349C75.9788 6.01157 75.8525 5.89964 75.7263 5.79429C75.6134 5.70212 75.5071 5.60994 75.4008 5.51777C75.2149 5.35975 75.0289 5.20832 74.8429 5.05689C74.7366 4.9713 74.6303 4.87912 74.524 4.80012C74.3978 4.70136 74.2716 4.59601 74.1454 4.49725C74.0856 4.45117 74.0258 4.40508 73.966 4.35899C73.873 4.28657 73.7734 4.21414 73.6804 4.14172C73.5342 4.02979 73.3881 3.92445 73.242 3.81911C73.1822 3.77302 73.1158 3.72693 73.056 3.68084C72.9962 3.63476 72.9298 3.59525 72.87 3.54916C72.7106 3.43724 72.5578 3.33189 72.405 3.23313C72.3386 3.18705 72.2655 3.13437 72.1991 3.08829C72.1991 3.08829 72.1991 3.08829 72.1991 3.09487C71.4086 2.58132 70.6978 2.19945 70.1066 2.00193C69.8276 1.90976 66.7587 1.3567 63.2381 1.03409C58.3358 0.586381 53.4069 0.395446 48.4847 0.211095C43.5425 0.00699248 38.5871 0.0201604 33.6317 0.000408521C30.0114 -0.0127594 29.1811 0.296687 25.5675 0.309855C23.4684 0.316439 22.2594 0.619301 21.0903 1.42913C21.0371 1.43571 20.984 1.4423 20.9309 1.44888C20.8777 1.45546 20.8246 1.46863 20.7714 1.4818C20.7117 1.49497 20.6585 1.50814 20.5987 1.52789C20.5456 1.54106 20.4858 1.56081 20.426 1.58056C20.3729 1.60031 20.3131 1.62006 20.2533 1.63981C20.1869 1.66615 20.1205 1.69249 20.054 1.71882C20.0075 1.73857 19.961 1.75833 19.9145 1.77808C19.589 1.91634 19.2303 2.06777 18.7786 2.24554L17.935 2.62083C17.9084 2.63399 17.9018 2.64716 17.9084 2.6735C17.9084 2.68008 17.9151 2.68666 17.9151 2.69325C17.9217 2.713 17.935 2.73275 17.9549 2.7525L16.8855 5.59678C16.746 5.74821 16.6065 5.89305 16.4603 6.05107C16.3408 6.18275 16.2146 6.30784 16.0883 6.44611C16.0817 6.45269 16.0684 6.46586 16.0618 6.47244C15.9156 6.63046 15.7562 6.78847 15.5968 6.95307C15.5769 6.97282 15.5503 6.99916 15.5304 7.01891C15.351 7.20326 15.165 7.38761 14.979 7.58513C14.6735 7.89458 14.3812 8.19744 14.1022 8.5003C14.0424 8.55956 13.9826 8.6254 13.9295 8.68465C13.6571 8.97435 13.3981 9.26404 13.1456 9.54057C13.1191 9.57349 13.0925 9.59982 13.0593 9.63274C12.8334 9.88952 12.6142 10.1463 12.4017 10.3899C12.3618 10.436 12.3219 10.4887 12.2821 10.5347C12.0629 10.7981 11.8503 11.0549 11.651 11.2985C11.6112 11.3446 11.578 11.3907 11.5381 11.4367C11.3654 11.6606 11.1927 11.8713 11.0333 12.082C11.0067 12.1215 10.9735 12.1544 10.9469 12.1939C10.7742 12.4178 10.6214 12.635 10.4686 12.8457C10.4288 12.905 10.3889 12.9576 10.3491 13.0169C10.2229 13.1947 10.0966 13.3724 9.98372 13.5436C9.95051 13.5897 9.92394 13.6292 9.89737 13.6753C9.84422 13.7543 9.79773 13.8267 9.74458 13.8991L9.73794 13.9123C9.6848 13.9913 9.63166 14.0703 9.57852 14.1493C9.53202 14.2218 9.49216 14.2876 9.44566 14.3534C9.36595 14.4851 9.29952 14.5971 9.22646 14.7156C9.16003 14.8209 9.10024 14.9197 9.0471 15.0184C9.01389 15.0777 8.98068 15.1369 8.94746 15.1896C8.67511 15.6571 8.48247 16.0324 8.34962 16.3023L8.12377 16.6842L3.81931 27.5016L4.61643 33.4008L6.31032 38.4244L14.8594 41.137H15.4241C15.4639 41.2226 15.4971 41.3082 15.537 41.3938H15.8094H17.3438H18.4664C19.6555 44.5738 22.7377 46.8453 26.3579 46.8453C29.9782 46.8453 33.0604 44.5738 34.2494 41.3938H35.372H36.9065H37.1855C37.2187 41.3279 37.2453 41.2621 37.2719 41.1963H37.6372V41.7164H37.3914C37.2918 41.7164 37.1921 41.7296 37.0991 41.7493C37.0726 41.7559 37.0526 41.7625 37.0327 41.7625C36.9464 41.7888 36.86 41.8151 36.7803 41.8546C36.7803 41.8546 36.7737 41.8547 36.7737 41.8612C36.6939 41.9007 36.6209 41.9534 36.5611 42.0061C36.5478 42.0192 36.5345 42.0258 36.5212 42.039C36.3684 42.1838 36.2755 42.3682 36.2755 42.5657C36.2755 43.0398 36.7737 43.415 37.3914 43.415H85.9694C86.5871 43.415 87.092 43.0332 87.092 42.5657C87.092 42.3616 86.999 42.1838 86.8462 42.039C86.8329 42.0258 86.8196 42.0192 86.8063 42.0061C86.7399 41.9534 86.6735 41.9007 86.5938 41.8612C86.5938 41.8612 86.5871 41.8612 86.5871 41.8546C86.5141 41.8151 86.4277 41.7888 86.3413 41.7625C86.3148 41.7559 86.2948 41.7493 86.2683 41.7493C86.1753 41.7296 86.0756 41.7164 85.976 41.7164H85.6439V41.3213H85.8365C85.8498 41.3477 85.8564 41.3674 85.8697 41.3938H86.1487H87.6832H88.8058C89.9948 44.5738 93.077 46.8453 96.6973 46.8453C100.318 46.8453 103.4 44.5738 104.589 41.3938H105.711H107.246H107.359C107.405 41.8678 107.438 42.2036 107.438 42.276L111.889 42.2563C111.889 42.2563 112.905 42.3945 114.44 41.9073C115.164 41.6769 116.047 40.8144 116.771 39.9651L120.511 40.3272C120.372 38.6088 117.343 31.4322 116.293 28.983Z" fill="#17538E"/>
<path d="M90.6793 29.6348L89.0917 19.1005C89.0054 19.0083 88.919 18.9095 88.826 18.8108C88.4076 18.3565 87.9558 17.8693 87.4842 17.3623L87.4776 17.3557C87.2717 17.1319 87.0591 16.908 86.8399 16.6776C86.8 16.6381 86.7602 16.592 86.7203 16.5525C86.6871 16.5196 86.6539 16.4866 86.6273 16.4537C86.6207 16.4471 86.614 16.4405 86.6007 16.4274C86.4015 16.2167 86.2088 16.006 86.0029 15.7953C85.704 15.4793 85.3918 15.1567 85.0862 14.8275C84.9999 14.7353 84.9135 14.6431 84.8271 14.5575C84.5814 14.3008 84.3289 14.0374 84.0765 13.7806C83.9702 13.6687 83.864 13.5634 83.7577 13.4514C83.5185 13.2078 83.2794 12.9642 83.0403 12.714C82.9273 12.5955 82.8078 12.4836 82.6948 12.3651C82.6616 12.3322 82.6284 12.2992 82.5952 12.2663C82.5221 12.1939 82.4491 12.1215 82.376 12.0425C82.2431 11.9042 82.1036 11.7659 81.9642 11.6343C81.8579 11.5289 81.7582 11.4302 81.6519 11.3248C81.5722 11.2458 81.4925 11.1668 81.4128 11.0878C81.2667 10.9429 81.1139 10.7981 80.9678 10.6467C80.9013 10.5808 80.8349 10.515 80.7685 10.4491C80.7153 10.3965 80.6688 10.3504 80.6157 10.2977C80.5625 10.245 80.5094 10.1924 80.4496 10.1397C80.3168 10.008 80.1839 9.88292 80.0444 9.75124C79.8717 9.58664 79.699 9.41546 79.5263 9.25086C79.5064 9.23111 79.4798 9.20477 79.4599 9.18502C79.3403 9.07309 79.2207 8.96117 79.1078 8.84924C78.9152 8.66489 78.7225 8.48054 78.5232 8.30277C78.4701 8.25668 78.4236 8.2106 78.3705 8.16451C78.3572 8.15134 78.3439 8.14476 78.3372 8.13159C78.2775 8.07892 78.2243 8.02624 78.1645 7.97357C77.9653 7.78922 77.7726 7.61146 77.5733 7.43369C77.4936 7.36127 77.4139 7.28226 77.3276 7.20983C77.2611 7.15058 77.2014 7.09791 77.1349 7.03865C76.9689 6.88722 76.8028 6.74237 76.6367 6.59094C76.5238 6.49218 76.4175 6.40001 76.3046 6.30125C76.3046 6.30125 76.3046 6.30125 76.3046 6.29466C76.2448 6.24199 76.1784 6.18274 76.112 6.13006C75.9791 6.01814 75.8529 5.90621 75.7267 5.80087C75.6137 5.70869 75.5075 5.61652 75.4012 5.52434C75.2152 5.36633 75.0292 5.21489 74.8432 5.06346C74.7369 4.97787 74.6306 4.8857 74.5244 4.80669C74.3981 4.70793 74.2719 4.60259 74.1457 4.50383C74.0859 4.45774 74.0261 4.41165 73.9664 4.36556C73.8734 4.29314 73.7737 4.22072 73.6807 4.14829C73.5346 4.03637 73.3885 3.93102 73.2423 3.82568C73.1825 3.77959 73.1161 3.7335 73.0563 3.68742C73.0297 3.66766 73.0032 3.64791 72.9766 3.63474L73.0762 12.6943L90.6793 29.6348Z" fill="#0B2F3E"/>
<path d="M77.0552 16.4932C78.9484 17.9088 80.8748 18.7713 81.6785 17.3096C82.8078 15.2423 82.1236 12.7535 81.0209 10.6861C81.001 10.6664 80.9877 10.6532 80.9678 10.6335C80.9013 10.5676 80.8349 10.5018 80.7685 10.436C80.7153 10.3833 80.6688 10.3372 80.6157 10.2845C80.5625 10.2319 80.5094 10.1792 80.4496 10.1265C80.3168 9.99483 80.1839 9.86974 80.0444 9.73806C79.8717 9.57346 79.699 9.40228 79.5263 9.23768C79.5064 9.21793 79.4798 9.19159 79.4599 9.17184C79.3403 9.05991 79.2207 8.94798 79.1078 8.83606C78.9152 8.65171 78.7225 8.46736 78.5232 8.28959C78.4701 8.2435 78.4236 8.19741 78.3705 8.15133C78.3572 8.13816 78.3439 8.13157 78.3372 8.11841C78.2775 8.06573 78.2243 8.01306 78.1645 7.96039C77.9653 7.77604 77.7726 7.59827 77.5733 7.42051C77.4936 7.34808 77.4139 7.26907 77.3276 7.19665C77.2611 7.1374 77.2014 7.08472 77.1349 7.02547C76.9689 6.87404 76.8028 6.72919 76.6367 6.57776C76.5238 6.479 76.4175 6.38682 76.3046 6.28806C76.3046 6.28806 76.3046 6.28806 76.3046 6.28148C76.2448 6.22881 76.1784 6.16955 76.112 6.11688C75.9791 6.00495 75.8529 5.89303 75.7267 5.78768C75.6137 5.69551 75.5075 5.60333 75.4012 5.51116C75.2152 5.35314 75.0292 5.20171 74.8432 5.05028C74.7369 4.96469 74.6306 4.87251 74.5244 4.79351C74.3981 4.69475 74.2719 4.5894 74.1457 4.49064C74.0859 4.44456 74.0261 4.39847 73.9664 4.35238C73.8734 4.27996 73.7737 4.20753 73.6807 4.13511C73.5346 4.02318 73.3885 3.91784 73.2423 3.81249C73.1825 3.76641 73.1161 3.72032 73.0563 3.67423C73.0297 3.65448 73.0032 3.63473 72.9766 3.62156L73.0762 12.6811L77.0552 16.4932Z" fill="#00384B"/>
<path d="M9.37935 21.1809C14.2684 16.2101 17.3705 11.2852 17.3705 11.2852L20.0342 1.73192C19.9944 1.74509 19.9545 1.76484 19.9146 1.77801C19.5892 1.91627 19.2304 2.06771 18.7787 2.24547L17.9351 2.62076C17.9086 2.63393 17.9019 2.64709 17.9086 2.67343C17.9086 2.68001 17.9152 2.6866 17.9152 2.69318C17.9218 2.71293 17.9351 2.73268 17.9551 2.75244L16.8856 5.59671C16.7461 5.74814 16.6066 5.89299 16.4605 6.051C16.3409 6.18268 16.2147 6.30778 16.0885 6.44604C16.0818 6.45262 16.0685 6.46579 16.0619 6.47237C15.9158 6.63039 15.7563 6.78841 15.5969 6.953C15.577 6.97276 15.5504 6.99909 15.5305 7.01884C15.3511 7.20319 15.1651 7.38755 14.9791 7.58506C14.6736 7.89451 14.3813 8.19737 14.1023 8.50023C14.0425 8.55949 13.9827 8.62533 13.9296 8.68459C13.6572 8.97428 13.3982 9.26397 13.1458 9.5405C13.1192 9.57342 13.0926 9.59976 13.0594 9.63268C12.8335 9.88945 12.6143 10.1462 12.4018 10.3898C12.3619 10.4359 12.3221 10.4886 12.2822 10.5347C12.063 10.798 11.8504 11.0548 11.6512 11.2984C11.6113 11.3445 11.5781 11.3906 11.5382 11.4367C11.3655 11.6605 11.1928 11.8712 11.0334 12.0819C11.0068 12.1214 10.9736 12.1543 10.947 12.1938C10.7743 12.4177 10.6215 12.635 10.4688 12.8456C10.4289 12.9049 10.389 12.9576 10.3492 13.0168C10.223 13.1946 10.0968 13.3724 9.98384 13.5435C9.95062 13.5896 9.92405 13.6291 9.89748 13.6752C9.84434 13.7542 9.79784 13.8267 9.7447 13.8991L9.73806 13.9123C9.68492 13.9913 9.63178 14.0703 9.57863 14.1493C9.53214 14.2217 9.49228 14.2875 9.44578 14.3534C9.36607 14.4851 9.29964 14.597 9.22657 14.7155C9.16015 14.8208 9.10036 14.9196 9.04722 15.0184C9.01401 15.0776 8.98079 15.1369 8.94758 15.1895C8.67523 15.657 8.48259 16.0323 8.34974 16.3022L8.12389 16.6841L4.37741 26.1057C5.37382 25.1708 6.96806 23.6368 9.37935 21.1809Z" fill="#0B2F3E"/>
<path d="M94.4256 34.9481L90.6791 34.7769C90.6791 34.7769 90.7323 35.1785 91.1242 35.5275C91.5095 35.8698 93.3429 35.7842 93.3429 35.7842C93.3429 35.7842 94.1665 35.8237 94.4323 35.567C94.6913 35.3102 94.7312 34.9612 94.4256 34.9481Z" fill="#E86408"/>
<path opacity="0.5" d="M94.3527 35.1061L91.8617 34.9942C91.8617 34.9942 91.895 35.2641 92.154 35.4946C92.4131 35.725 93.6287 35.6657 93.6287 35.6657C93.6287 35.6657 94.18 35.6921 94.3527 35.5209C94.5255 35.3497 94.5587 35.1127 94.3527 35.1061Z" fill="#E86408"/>
<path d="M35.7044 54.5156C35.7044 55.1937 36.2557 55.7402 36.9399 55.7402H86.3615C87.0456 55.7402 87.597 55.1937 87.597 54.5156V52.3165C87.597 51.6384 87.0456 51.0919 86.3615 51.0919H36.9399C36.2557 51.0919 35.7044 51.6384 35.7044 52.3165V54.5156Z" fill="black"/>
<path d="M34.2229 55.3781C34.2229 55.8851 34.761 56.2998 35.4319 56.2998H87.9489C88.6198 56.2998 89.1645 55.8851 89.1645 55.3781C89.1645 54.8711 88.6198 54.4563 87.9489 54.4563H35.4319C34.7676 54.4563 34.2229 54.8645 34.2229 55.3781Z" fill="#515155"/>
<path opacity="0.4" d="M34.3294 55.0028C34.5154 54.6802 34.9405 54.4497 35.4387 54.4497H87.9558C88.454 54.4497 88.8791 54.6736 89.0651 55.0028H34.3294Z" fill="#C4C4C4"/>
<path d="M3.81954 27.5015L90.5663 29.8586C90.5663 29.8586 105.871 32.1827 119.555 38.8655C120.651 39.8004 120.777 40.63 120.95 41.6768C121.003 42.0192 121.05 42.3681 121.096 42.7171C121.475 44.4026 122.292 48.1357 120.751 49.7817C118.486 52.198 119.954 50.7232 117.157 53.9559C117.071 54.0547 116.918 54.0547 116.798 54.1007L11.0734 53.8242L1.82674 50.8878L0 45.456L1.78688 42.0916L3.81954 27.5015Z" fill="#086AAD"/>
<path opacity="0.2" d="M121.568 45.3771C122.259 49.3274 119.947 50.7298 117.15 53.9625C117.064 54.0613 116.911 54.0613 116.792 54.1074L11.0734 53.8243L1.82674 50.8878L0 45.4561L1.78688 42.0917C1.78688 42.0982 121.182 43.1583 121.568 45.3771Z" fill="#17538E"/>
<path opacity="0.2" d="M120.744 49.7883C118.479 52.2046 119.947 50.7298 117.15 53.9625C117.064 54.0613 116.911 54.0613 116.792 54.1074L11.0735 53.8243L1.82685 50.8878L0.876948 48.0567C0.876948 48.0567 121.169 49.3406 120.744 49.7883Z" fill="#17538E"/>
<path d="M11.2062 17.5466C17.3174 11.3511 17.4769 9.69851 22.6515 9.67875C26.5641 9.66559 27.4608 9.3298 31.3734 9.34297C36.734 9.36272 42.0946 9.34956 47.4487 9.54707C52.7628 9.74459 58.0969 9.9487 63.3977 10.4359C67.204 10.7849 70.5253 11.384 70.8243 11.4828C77.0219 13.5304 94.6715 33.697 94.6715 33.697L53.1016 33.1967L3.79295 27.5015C3.79295 27.5015 5.32076 23.5182 11.2062 17.5466Z" fill="#086AAD"/>
<path d="M17.3838 21.2139C25.2022 11.2194 26.7035 10.3899 28.4173 10.3306C32.6022 10.0936 34.3093 10.3174 38.4942 10.3174C43.6821 10.3174 64.6929 11.0285 69.489 12.951C75.5139 15.3673 78.6957 20.3975 82.7411 25.6251C83.3456 26.4086 84.342 27.2975 84.7605 28.2324C84.7605 28.2324 85.7901 30.517 83.7375 30.7146C83.7375 30.7146 37.9362 27.2382 22.864 25.6844C20.5191 25.4408 18.327 23.1167 17.5233 22.0896C17.4037 21.813 17.3439 21.5102 17.3838 21.2139Z" fill="black"/>
<path d="M87.4575 28.2982C82.9205 22.4385 75.3611 15.927 73.7935 14.597C72.8369 13.7937 72.8967 13.0893 73.0827 12.6679C78.1378 15.9665 86.3415 24.5585 91.0512 29.6808C89.5233 29.8652 87.4575 28.2982 87.4575 28.2982Z" fill="#00384B"/>
<path d="M67.2837 13.0103C67.2837 13.0103 71.2096 13.8728 73.9131 16.4668C76.6167 19.0609 83.5384 28.7657 83.5384 28.7657C83.5384 28.7657 85.1858 30.438 82.5619 30.0166C81.4526 29.8389 70.9173 28.8974 59.1265 27.8703C58.6881 21.1217 57.3596 15.4924 56.2702 11.8515C60.4218 12.1609 64.3012 12.5428 67.2837 13.0103Z" fill="#195873"/>
<path d="M53.8853 11.6869C54.3835 15.657 54.9149 21.4443 54.8419 27.5016C45.5953 26.6983 36.1759 25.8885 30.3636 25.3947C32.8479 18.8832 35.0135 14.0703 36.5413 10.9232C41.4236 11.0482 47.8139 11.2919 53.8853 11.6869Z" fill="#195873"/>
<path d="M18.6193 20.832C18.9714 19.9234 25.7735 10.8902 28.4305 10.8047C29.1413 10.7783 31.4131 10.7981 34.5817 10.8705C31.9113 15.7887 29.4203 20.6082 27.2282 25.1248C25.5476 24.9799 24.5844 24.9009 24.5844 24.9009C24.5844 24.9009 22.9769 24.8548 21.7613 24.0779C20.539 23.301 18.2739 21.7406 18.6193 20.832Z" fill="#195873"/>
<path d="M110.262 49.9068C110.262 44.3302 105.466 39.8136 99.5475 39.8136C93.6289 39.8136 88.8329 44.3302 88.8329 49.9068C88.8329 51.408 89.1849 52.8301 89.8027 54.1074H87.8431C87.0726 52.468 86.6474 50.6442 86.6474 48.7151C86.6474 41.6506 92.4266 35.9225 99.5475 35.9225C106.675 35.9225 112.448 41.6506 112.448 48.7151C112.448 50.6442 112.016 52.468 111.245 54.1074H109.286C109.917 52.8235 110.262 51.4014 110.262 49.9068Z" fill="#086AAD"/>
<path d="M86.6406 48.7151C86.6406 41.6506 92.4197 35.9225 99.5407 35.9225C106.668 35.9225 112.441 41.6506 112.441 48.7151C112.441 50.6442 112.009 52.468 111.238 54.1074H110.94C111.577 52.626 111.936 50.9932 111.936 49.2748C111.936 42.4867 106.383 36.9825 99.534 36.9825C92.6854 36.9825 87.1321 42.4867 87.1321 49.2748C87.1321 50.9932 87.4909 52.626 88.1285 54.1074H87.8296C87.0724 52.468 86.6406 50.6442 86.6406 48.7151Z" fill="#12428E"/>
<path d="M99.5471 39.807C105.466 39.807 110.262 44.3236 110.262 49.9002C110.262 51.4014 109.916 52.8235 109.292 54.1008H89.8023C89.1845 52.8235 88.8325 51.4014 88.8325 49.9002C88.8325 44.3302 93.6285 39.807 99.5471 39.807Z" fill="black"/>
<path d="M90.4335 50.9668C90.4335 55.9574 94.5121 60 99.5473 60C104.576 60 108.654 55.9574 108.654 50.9668C108.654 45.9827 104.576 41.9402 99.5473 41.9402C94.5188 41.9402 90.4335 45.9827 90.4335 50.9668Z" fill="#363635"/>
<path d="M90.4335 50.9668C90.4335 55.9574 94.5121 60 99.5473 60C104.576 60 108.654 55.9574 108.654 50.9668C108.654 45.9827 104.576 41.9402 99.5473 41.9402C94.5188 41.9402 90.4335 45.9827 90.4335 50.9668Z" fill="#222222"/>
<path d="M93.3627 50.9668C93.3627 54.351 96.1261 57.0965 99.547 57.0965C102.961 57.0965 105.731 54.351 105.731 50.9668C105.731 47.5827 102.961 44.8437 99.547 44.8437C96.1327 44.8437 93.3627 47.5827 93.3627 50.9668Z" fill="black"/>
<path d="M93.9008 50.9668C93.9008 54.0547 96.425 56.5632 99.5471 56.5632C102.662 56.5632 105.187 54.0613 105.187 50.9668C105.187 47.879 102.662 45.377 99.5471 45.377C96.4317 45.377 93.9008 47.879 93.9008 50.9668Z" fill="#D5D3CB"/>
<path d="M96.7172 47.6353C96.7106 47.5695 96.7172 47.5036 96.7372 47.4444C97.3416 46.9111 98.1122 46.5621 98.9691 46.4963C99.0488 46.5161 99.1219 46.549 99.1817 46.5951C99.2149 46.6346 99.2348 46.6806 99.2614 46.7333V49.8409C99.2414 49.887 99.2282 49.92 99.2016 49.9595C99.1817 49.966 99.1684 49.9792 99.1484 49.9858C99.0953 49.9792 99.0488 49.9726 98.9957 49.9529L96.7438 47.7209C96.7305 47.6946 96.7239 47.6682 96.7172 47.6353Z" fill="#4C4C49"/>
<path d="M95.0633 50.71C95.0102 50.6705 94.9703 50.6179 94.9438 50.5586C94.9836 49.7554 95.2892 48.9719 95.8472 48.3266C95.9136 48.2806 95.9933 48.2542 96.073 48.2476C96.1262 48.2542 96.1727 48.274 96.2192 48.2937L98.4378 50.4928C98.4577 50.5323 98.471 50.5784 98.4777 50.6179C98.471 50.6376 98.4644 50.6574 98.4577 50.6771C98.4179 50.71 98.378 50.7364 98.3315 50.7627H95.143C95.1231 50.7364 95.0899 50.7232 95.0633 50.71Z" fill="#4C4C49"/>
<path d="M96.1463 53.9427C96.0799 53.9493 96.0134 53.9493 95.947 53.923C95.3957 53.337 95.0369 52.5733 94.9506 51.7305C94.9639 51.6515 94.9971 51.5791 95.0502 51.5133C95.0901 51.4869 95.1366 51.4606 95.1831 51.4343L98.3184 51.3816C98.3649 51.3948 98.3981 51.4145 98.438 51.4408C98.4446 51.4606 98.4579 51.4738 98.4646 51.4935C98.4646 51.5462 98.4513 51.5923 98.438 51.6449L96.226 53.9164C96.1994 53.923 96.1728 53.9296 96.1463 53.9427Z" fill="#4C4C49"/>
<path d="M99.1887 55.3254C99.1489 55.378 99.0957 55.4175 99.036 55.4439C98.2322 55.3912 97.4417 55.0818 96.7974 54.5221C96.7509 54.4497 96.7243 54.3773 96.7177 54.2983C96.7243 54.2522 96.7442 54.1995 96.7642 54.1534L99.016 51.9873C99.0559 51.9741 99.1024 51.961 99.1422 51.9478C99.1622 51.9544 99.1821 51.961 99.202 51.9676C99.2352 52.0071 99.2618 52.0466 99.2817 52.0927L99.2352 55.2464C99.2153 55.2727 99.202 55.299 99.1887 55.3254Z" fill="#4C4C49"/>
<path d="M102.377 47.6353C102.384 47.5695 102.377 47.5036 102.35 47.4444C101.746 46.9111 100.975 46.5621 100.119 46.4963C100.039 46.5161 99.9657 46.549 99.906 46.5951C99.8794 46.6346 99.8528 46.6806 99.8329 46.7333V49.8409C99.8462 49.887 99.8661 49.92 99.8927 49.9595C99.9126 49.966 99.9259 49.9792 99.9458 49.9858C99.999 49.9792 100.045 49.9726 100.099 49.9529L102.35 47.7209C102.357 47.6946 102.37 47.6682 102.377 47.6353Z" fill="#4C4C49"/>
<path d="M104.024 50.71C104.078 50.6705 104.117 50.6179 104.144 50.5586C104.097 49.7554 103.799 48.9719 103.241 48.3266C103.174 48.2806 103.094 48.2542 103.015 48.2476C102.962 48.2542 102.915 48.274 102.862 48.2937L100.643 50.4928C100.623 50.5323 100.617 50.5784 100.603 50.6179C100.61 50.6376 100.617 50.6574 100.623 50.6771C100.663 50.71 100.71 50.7364 100.75 50.7627H103.931C103.971 50.7364 103.998 50.7232 104.024 50.71Z" fill="#4C4C49"/>
<path d="M102.948 53.9427C103.014 53.9493 103.081 53.9493 103.147 53.923C103.699 53.337 104.064 52.5733 104.144 51.7305C104.13 51.6515 104.097 51.5791 104.044 51.5133C104.004 51.4869 103.958 51.4606 103.911 51.4343L100.776 51.3816C100.736 51.3948 100.696 51.4145 100.656 51.4408C100.65 51.4606 100.636 51.4738 100.63 51.4935C100.63 51.5462 100.643 51.5923 100.656 51.6449L102.868 53.9164C102.888 53.923 102.921 53.9296 102.948 53.9427Z" fill="#4C4C49"/>
<path d="M99.9059 55.3254C99.9457 55.378 99.9989 55.4175 100.059 55.4439C100.869 55.3912 101.66 55.0818 102.297 54.5221C102.344 54.4497 102.37 54.3773 102.377 54.2983C102.364 54.2522 102.35 54.1995 102.33 54.1534L100.079 51.9873C100.039 51.9741 99.9922 51.961 99.9524 51.9478C99.9324 51.9544 99.9125 51.961 99.8926 51.9676C99.8594 52.0071 99.8328 52.0466 99.8129 52.0927L99.8594 55.2464C99.8727 55.2727 99.8859 55.299 99.9059 55.3254Z" fill="#4C4C49"/>
<path d="M97.8866 50.9668C97.8866 51.8754 98.6239 52.6128 99.5473 52.6128C100.464 52.6128 101.208 51.8754 101.208 50.9668C101.208 50.0582 100.464 49.3274 99.5473 49.3274C98.6306 49.3274 97.8866 50.0648 97.8866 50.9668Z" fill="#D5D3CB"/>
<path d="M98.4711 50.1636C98.4711 50.2755 98.5641 50.3677 98.677 50.3677C98.7899 50.3677 98.8829 50.2755 98.8829 50.1636C98.8829 50.0517 98.7899 49.9595 98.677 49.9595C98.5641 49.9595 98.4711 50.0451 98.4711 50.1636Z" fill="#4C4C49"/>
<path d="M99.3348 49.8673C99.3348 49.9792 99.4278 50.0714 99.5408 50.0714C99.6537 50.0714 99.7467 49.9792 99.7467 49.8673C99.7467 49.7554 99.6537 49.6632 99.5408 49.6632C99.4278 49.6632 99.3348 49.7554 99.3348 49.8673Z" fill="#4C4C49"/>
<path d="M100.205 50.1965C100.205 50.3084 100.298 50.4006 100.411 50.4006C100.524 50.4006 100.617 50.3084 100.617 50.1965C100.617 50.0846 100.524 49.9924 100.411 49.9924C100.298 49.9858 100.205 50.078 100.205 50.1965Z" fill="#4C4C49"/>
<path d="M98.4711 51.9478C98.4711 51.8359 98.5641 51.7437 98.677 51.7437C98.7899 51.7437 98.8829 51.8359 98.8829 51.9478C98.8829 52.0597 98.7899 52.1519 98.677 52.1519C98.5641 52.1519 98.4711 52.0597 98.4711 51.9478Z" fill="#4C4C49"/>
<path d="M98.0658 51.0985C98.0658 50.9866 98.1588 50.8944 98.2717 50.8944C98.3847 50.8944 98.4777 50.9866 98.4777 51.0985C98.4777 51.2104 98.3847 51.3026 98.2717 51.3026C98.1588 51.3026 98.0658 51.2104 98.0658 51.0985Z" fill="#4C4C49"/>
<path d="M100.61 51.0985C100.61 50.9866 100.703 50.8944 100.816 50.8944C100.929 50.8944 101.022 50.9866 101.022 51.0985C101.022 51.2104 100.929 51.3026 100.816 51.3026C100.703 51.3026 100.61 51.2104 100.61 51.0985Z" fill="#4C4C49"/>
<path d="M99.3348 52.2441C99.3348 52.1321 99.4278 52.04 99.5408 52.04C99.6537 52.04 99.7467 52.1321 99.7467 52.2441C99.7467 52.356 99.6537 52.4482 99.5408 52.4482C99.4278 52.4482 99.3348 52.356 99.3348 52.2441Z" fill="#4C4C49"/>
<path d="M100.205 51.9149C100.205 51.803 100.298 51.7108 100.411 51.7108C100.524 51.7108 100.617 51.803 100.617 51.9149C100.617 52.0268 100.524 52.119 100.411 52.119C100.298 52.1256 100.205 52.0334 100.205 51.9149Z" fill="#4C4C49"/>
<path d="M110.607 49.4262C110.554 48.7941 110.501 48.1686 110.461 47.5366H122.126C122.259 47.5497 122.385 47.5761 122.491 47.6288C122.684 47.7275 122.777 47.8724 122.85 48.0304L122.797 50.552C122.797 50.552 120.385 54.1403 118.725 54.667C117.064 55.1937 115.961 55.0423 115.961 55.0423L111.145 55.062C111.152 54.7723 110.674 50.2623 110.607 49.4262Z" fill="#201E1E"/>
<path opacity="0.6" d="M113.238 47.5366H122.133C122.265 47.5497 122.392 47.5761 122.498 47.6288C122.691 47.7275 122.784 47.8724 122.857 48.0304L122.81 50.2558C122.81 50.2558 113.278 48.1686 113.238 47.5366Z" fill="#222222"/>
<path d="M85.9633 28.4694L88.2683 29.9903C88.2683 29.9903 89.3178 30.7277 88.5539 31.5112C88.5539 31.5112 88.1952 31.926 87.2254 31.9458C86.2556 31.9655 84.2495 31.5112 84.2495 31.5112L85.9633 28.4694Z" fill="black"/>
<path d="M81.9243 27.8571C82.3893 26.5667 84.774 26.7445 84.774 26.7445C85.797 26.8169 86.5675 27.844 87.1454 28.9303C87.8097 30.1813 87.3181 32.7424 86.0627 32.5054C84.6278 32.2355 85.1725 32.433 82.8476 31.7614C82.2431 31.5837 81.353 29.4373 81.9243 27.8571Z" fill="#222222"/>
<path d="M81.9244 27.8571C81.9642 27.7386 82.024 27.6333 82.0971 27.5411C82.0705 28.1468 82.21 28.7525 82.6285 29.22C83.1532 29.806 83.9304 30.1154 84.6744 30.3195C85.1261 30.4446 85.5712 30.6026 86.0295 30.6882C86.3949 30.7606 86.8931 30.8594 87.2385 30.6487C87.3116 30.6026 87.378 30.55 87.4311 30.4907C87.3846 31.5902 86.8864 32.6634 86.0561 32.4988C84.6213 32.2289 85.166 32.4264 82.841 31.7548C82.2432 31.5836 81.3531 29.4373 81.9244 27.8571Z" fill="#141412"/>
<path d="M94.9504 35.0732L5.53991 24.3808L3.79289 27.3831L3.67332 28.5616L6.41674 31.0965L94.9504 35.0732Z" fill="#12428E"/>
<path d="M62.9129 31.4058L59.9968 31.1095C59.9968 31.1095 59.4189 31.07 59.6049 31.577C59.7842 32.0905 59.844 32.1827 59.844 32.1827C59.844 32.1827 59.8839 32.4461 60.4419 32.5843C60.9932 32.7292 64.3544 33.2164 64.3544 33.2164C64.3544 33.2164 64.826 33.3152 65.5966 33.0189C66.3671 32.7226 66.3937 32.0905 66.1612 31.9128C66.1612 31.9128 66.1745 31.8469 65.6962 31.7218C65.2179 31.6033 62.9129 31.4058 62.9129 31.4058Z" fill="#404744"/>
<path d="M65.3773 31.7811L60.475 31.2413C60.475 31.2413 59.9303 31.182 59.8307 31.419C59.7244 31.6495 59.9901 31.9062 60.7341 32.0247C61.4781 32.1498 64.3145 32.558 64.3145 32.558C64.3145 32.558 65.3773 32.7226 65.756 32.4659C66.1412 32.2091 65.9885 31.8799 65.3773 31.7811Z" fill="#B6B6B6"/>
<path d="M32.1972 28.048L29.2811 27.7518C29.2811 27.7518 28.7098 27.7057 28.8892 28.2192C29.0685 28.7328 29.1283 28.8249 29.1283 28.8249C29.1283 28.8249 29.1682 29.0883 29.7261 29.2266C30.2841 29.3714 33.6453 29.8586 33.6453 29.8586C33.6453 29.8586 34.117 29.9574 34.8875 29.6611C35.6581 29.3648 35.6846 28.7262 35.4455 28.555C35.4455 28.555 35.4588 28.4892 34.9805 28.3641C34.5022 28.2455 32.1972 28.048 32.1972 28.048Z" fill="#404744"/>
<path d="M34.6617 28.4298L29.7594 27.89C29.7594 27.89 29.2147 27.8307 29.1151 28.0677C29.0088 28.2982 29.2745 28.5484 30.0185 28.6734C30.7625 28.7985 33.5989 29.2068 33.5989 29.2068C33.5989 29.2068 34.6617 29.3713 35.047 29.108C35.4256 28.8512 35.2728 28.522 34.6617 28.4298Z" fill="#B6B6B6"/>
<path d="M17.696 10.9759C19.1375 11.0154 20.187 11.3775 19.5759 12.5099L8.50257 25.0985C8.50257 25.0985 6.50312 27.9164 4.53025 26.0268C5.47351 24.3545 7.45303 21.3522 11.2061 17.5467C14.5541 14.1494 16.1151 12.1215 17.696 10.9759Z" fill="#195873"/>
<path d="M113.039 37.371C114.327 37.3051 115.476 37.2722 116.672 37.8252C117.801 38.352 119.469 38.9906 120.04 39.5832C120.239 39.8399 120.412 40.1296 120.545 40.4391C120.817 41.3542 120.97 42.3155 121.003 43.2702C120.97 43.5665 120.897 43.8232 120.804 44.0142C120.458 44.7187 116.646 44.1656 114.088 42.0917C113.271 41.6242 111.737 37.45 113.039 37.371Z" fill="#EFBF69"/>
<path opacity="0.6" d="M114.155 40.5444C114.341 41.8282 115.145 42.7763 115.962 42.6644C116.772 42.5525 117.283 41.42 117.104 40.1362C116.918 38.8523 116.114 37.9042 115.304 38.0227C114.487 38.1281 113.975 39.2605 114.155 40.5444Z" fill="#E3EDEE"/>
<path d="M118.06 42.1246C118.087 42.9081 118.512 43.527 119.01 43.5138C119.508 43.494 119.887 42.8488 119.86 42.0653C119.834 41.2818 119.409 40.6629 118.91 40.6761C118.412 40.6959 118.034 41.3411 118.06 42.1246Z" fill="#E3D8C3"/>
<g opacity="0.4">
<path d="M113.271 37.3578C114.467 37.2985 115.55 37.3051 116.672 37.8252C117.802 38.3519 119.469 38.9906 120.04 39.5831C120.239 39.8399 120.412 40.1296 120.545 40.4391C120.817 41.3542 120.97 42.3155 121.003 43.2702C120.977 43.494 120.93 43.6915 120.871 43.8561C119.097 40.9263 116.559 38.4046 113.271 37.3578Z" fill="white"/>
</g>
<path d="M115.323 50.2294C114.148 50.1372 113.258 50.9602 113.344 52.0729C113.43 53.1856 114.453 54.16 115.629 54.2522C116.805 54.3444 119.475 53.6596 119.395 52.5469C119.309 51.4343 116.506 50.3216 115.323 50.2294Z" fill="#222222"/>
<path d="M115.563 50.4796C114.453 50.394 113.616 51.1709 113.696 52.2178C113.776 53.2646 114.739 54.1864 115.848 54.2719C116.958 54.3575 119.482 53.7123 119.402 52.6655C119.322 51.612 116.672 50.5652 115.563 50.4796Z" fill="black"/>
<path opacity="0.5" d="M85.6176 26.0531C81.1139 20.8715 75.1687 15.7492 73.8003 14.5904C72.8438 13.7872 72.9035 13.0827 73.0895 12.6613C77.4405 15.499 84.1363 22.2673 88.9124 27.3633C87.8164 26.9156 86.7203 26.4744 85.6176 26.0531Z" fill="#00384B"/>
<g opacity="0.5">
<path d="M67.2837 20.6345C64.1949 19.9498 61.0861 19.344 57.9641 18.8173C57.4393 16.0586 56.8215 13.7016 56.2702 11.8581C60.4285 12.1609 64.3078 12.5428 67.2904 13.0169C67.2904 13.0169 71.2162 13.8794 73.9198 16.4734C75.3612 17.8561 77.9984 21.2534 80.144 24.1306C75.9192 22.748 71.6214 21.5958 67.2837 20.6345Z" fill="#00384B"/>
<path d="M34.1302 16.1508C35.0402 14.0703 35.8506 12.3255 36.5348 10.9166C41.4238 11.0482 47.8141 11.2918 53.8855 11.6869C54.1113 13.537 54.3571 15.7821 54.5365 18.2643C47.7742 17.2372 40.9588 16.5458 34.1302 16.1508Z" fill="#00384B"/>
<path d="M26.2252 15.8282C24.963 15.7953 23.7009 15.7755 22.4388 15.7624C24.5645 13.2934 27.0555 10.8507 28.4305 10.8047C29.1413 10.7783 31.4131 10.7981 34.5817 10.8705C33.6384 12.6087 32.7217 14.3271 31.8249 16.0323C29.9583 15.9467 28.0917 15.8743 26.2252 15.8282Z" fill="#00384B"/>
</g>
<path d="M34.2297 49.9068C34.2297 44.3302 29.4337 39.8136 23.5151 39.8136C17.5964 39.8136 12.8004 44.3302 12.8004 49.9068C12.8004 51.408 13.1458 52.8301 13.7702 54.1074H11.8107C11.0401 52.468 10.6083 50.6442 10.6083 48.7151C10.6083 41.6506 16.3875 35.9225 23.5084 35.9225C30.636 35.9225 36.4085 41.6506 36.4085 48.7151C36.4085 50.6442 35.9767 52.468 35.2062 54.1074H33.2466C33.8776 52.8235 34.2297 51.4014 34.2297 49.9068Z" fill="#086AAD"/>
<path d="M23.5149 39.807C29.4335 39.807 34.2295 44.3236 34.2295 49.9002C34.2295 51.4014 33.8841 52.8235 33.2597 54.1008H13.77C13.1456 52.8235 12.8002 51.4014 12.8002 49.9002C12.8002 44.3302 17.5962 39.807 23.5149 39.807Z" fill="black"/>
<path d="M14.4013 50.9668C14.4013 55.9574 18.4799 60 23.5084 60C28.5369 60 32.6155 55.9574 32.6155 50.9668C32.6155 45.9827 28.5369 41.9402 23.5084 41.9402C18.4799 41.9402 14.4013 45.9827 14.4013 50.9668Z" fill="#363635"/>
<path d="M14.4013 50.9668C14.4013 55.9574 18.4799 60 23.5084 60C28.5369 60 32.6155 55.9574 32.6155 50.9668C32.6155 45.9827 28.5369 41.9402 23.5084 41.9402C18.4799 41.9402 14.4013 45.9827 14.4013 50.9668Z" fill="#222222"/>
<path d="M17.3309 50.9668C17.3309 54.351 20.1009 57.0965 23.5153 57.0965C26.9296 57.0965 29.693 54.351 29.693 50.9668C29.693 47.5827 26.923 44.8437 23.5153 44.8437C20.1009 44.8437 17.3309 47.5827 17.3309 50.9668Z" fill="black"/>
<path d="M17.869 50.9668C17.869 54.0547 20.3933 56.5632 23.5153 56.5632C26.6307 56.5632 29.1549 54.0613 29.1549 50.9668C29.1549 47.879 26.6307 45.377 23.5153 45.377C20.3999 45.377 17.869 47.879 17.869 50.9668Z" fill="#D5D3CB"/>
<path d="M20.6854 47.6353C20.6787 47.5695 20.6854 47.5036 20.7119 47.4444C21.3164 46.9111 22.087 46.5621 22.9439 46.4963C23.0236 46.5161 23.0967 46.549 23.1631 46.5951C23.1897 46.6346 23.2162 46.6806 23.2362 46.7333V49.8409C23.2162 49.887 23.1963 49.92 23.1764 49.9595C23.1565 49.966 23.1432 49.9792 23.1232 49.9858C23.0701 49.9792 23.0236 49.9726 22.9705 49.9529L20.7186 47.7209C20.6987 47.6946 20.692 47.6682 20.6854 47.6353Z" fill="#4C4C49"/>
<path d="M19.0311 50.71C18.9779 50.6705 18.9381 50.6179 18.9115 50.5586C18.9514 49.7554 19.2569 48.9719 19.8149 48.3266C19.8813 48.2806 19.961 48.2542 20.0408 48.2476C20.0939 48.2542 20.1404 48.274 20.1935 48.2937L22.4122 50.4928C22.4321 50.5323 22.4454 50.5784 22.4521 50.6179C22.4454 50.6376 22.4388 50.6574 22.4321 50.6771C22.3923 50.71 22.3524 50.7364 22.3059 50.7627H19.1241C19.0842 50.7364 19.0576 50.7232 19.0311 50.71Z" fill="#4C4C49"/>
<path d="M20.1074 53.9427C20.041 53.9493 19.9745 53.9493 19.9081 53.923C19.3568 53.337 18.9981 52.5733 18.9183 51.7305C18.9316 51.6515 18.9648 51.5791 19.018 51.5133C19.0578 51.4869 19.1043 51.4606 19.1508 51.4343L22.2862 51.3816C22.326 51.3948 22.3725 51.4145 22.4057 51.4408C22.419 51.4606 22.4257 51.4738 22.4323 51.4935C22.4257 51.5462 22.419 51.5923 22.4057 51.6449L20.1937 53.9164C20.1672 53.923 20.1406 53.9296 20.1074 53.9427Z" fill="#4C4C49"/>
<path d="M23.1563 55.3254C23.1164 55.378 23.0633 55.4175 22.9969 55.4439C22.1931 55.3912 21.396 55.0818 20.7583 54.5221C20.7184 54.4497 20.6919 54.3773 20.6786 54.2983C20.6919 54.2522 20.7052 54.1995 20.7251 54.1534L22.977 51.9873C23.0168 51.9741 23.0633 51.961 23.1032 51.9478C23.1231 51.9544 23.143 51.961 23.1629 51.9676C23.1962 52.0071 23.2227 52.0466 23.2427 52.0927L23.1962 55.2464C23.1895 55.2727 23.1696 55.299 23.1563 55.3254Z" fill="#4C4C49"/>
<path d="M26.3451 47.6353C26.3517 47.5695 26.3451 47.5036 26.3185 47.4444C25.7207 46.9111 24.9435 46.5621 24.0866 46.4963C24.0069 46.5161 23.9338 46.549 23.8674 46.5951C23.8408 46.6346 23.8142 46.6806 23.7943 46.7333V49.8409C23.8142 49.887 23.8341 49.92 23.8541 49.9595C23.874 49.966 23.8939 49.9792 23.9072 49.9858C23.9604 49.9792 24.0069 49.9726 24.06 49.9529L26.3119 47.7209C26.3252 47.6946 26.3384 47.6682 26.3451 47.6353Z" fill="#4C4C49"/>
<path d="M27.9923 50.71C28.0455 50.6705 28.0853 50.6179 28.1119 50.5586C28.072 49.7554 27.7665 48.9719 27.2085 48.3266C27.142 48.2806 27.0623 48.2542 26.9826 48.2476C26.9295 48.2542 26.883 48.274 26.8365 48.2937L24.6178 50.4928C24.5979 50.5323 24.5846 50.5784 24.578 50.6179C24.5846 50.6376 24.5913 50.6574 24.5979 50.6771C24.6378 50.71 24.6776 50.7364 24.7241 50.7627H27.906C27.9392 50.7364 27.9657 50.7232 27.9923 50.71Z" fill="#4C4C49"/>
<path d="M26.9161 53.9427C26.9825 53.9493 27.049 53.9493 27.1154 53.923C27.6667 53.337 28.0321 52.5733 28.1118 51.7305C28.0985 51.6515 28.0653 51.5791 28.0121 51.5133C27.9723 51.4869 27.9258 51.4606 27.8793 51.4343L24.7373 51.3816C24.6974 51.3948 24.6576 51.4145 24.6177 51.4408C24.6111 51.4606 24.5978 51.4738 24.5912 51.4935C24.5978 51.5462 24.6044 51.5923 24.6177 51.6449L26.8297 53.9164C26.8563 53.923 26.8895 53.9296 26.9161 53.9427Z" fill="#4C4C49"/>
<path d="M23.8738 55.3254C23.9137 55.378 23.9668 55.4175 24.0332 55.4439C24.837 55.3912 25.6275 55.0818 26.2718 54.5221C26.3183 54.4497 26.3449 54.3773 26.3515 54.2983C26.3382 54.2522 26.325 54.1995 26.305 54.1534L24.0598 51.9873C24.0133 51.9741 23.9734 51.961 23.9269 51.9478C23.907 51.9544 23.8871 51.961 23.8672 51.9676C23.834 52.0071 23.8074 52.0466 23.7875 52.0927L23.834 55.2464C23.8406 55.2727 23.8539 55.299 23.8738 55.3254Z" fill="#4C4C49"/>
<path d="M21.8544 50.9668C21.8544 51.8754 22.5983 52.6128 23.515 52.6128C24.4317 52.6128 25.1691 51.8754 25.1691 50.9668C25.1691 50.0582 24.4251 49.3274 23.515 49.3274C22.5983 49.3274 21.8544 50.0648 21.8544 50.9668Z" fill="#D5D3CB"/>
<path d="M22.4388 50.1636C22.4388 50.2755 22.5318 50.3677 22.6448 50.3677C22.7577 50.3677 22.8507 50.2755 22.8507 50.1636C22.8507 50.0517 22.7577 49.9595 22.6448 49.9595C22.5318 49.9595 22.4388 50.0451 22.4388 50.1636Z" fill="#4C4C49"/>
<path d="M23.2958 49.8673C23.2958 49.9792 23.3888 50.0714 23.5017 50.0714C23.6146 50.0714 23.7076 49.9792 23.7076 49.8673C23.7076 49.7554 23.6146 49.6632 23.5017 49.6632C23.3888 49.6632 23.2958 49.7554 23.2958 49.8673Z" fill="#4C4C49"/>
<path d="M24.1727 50.1965C24.1727 50.3084 24.2657 50.4006 24.3786 50.4006C24.4916 50.4006 24.5845 50.3084 24.5845 50.1965C24.5845 50.0846 24.4916 49.9924 24.3786 49.9924C24.2657 49.9858 24.1727 50.078 24.1727 50.1965Z" fill="#4C4C49"/>
<path d="M22.4388 51.9478C22.4388 51.8359 22.5318 51.7437 22.6448 51.7437C22.7577 51.7437 22.8507 51.8359 22.8507 51.9478C22.8507 52.0597 22.7577 52.1519 22.6448 52.1519C22.5318 52.1519 22.4388 52.0597 22.4388 51.9478Z" fill="#4C4C49"/>
<path d="M22.0336 51.0985C22.0336 50.9866 22.1266 50.8944 22.2395 50.8944C22.3524 50.8944 22.4454 50.9866 22.4454 51.0985C22.4454 51.2104 22.3524 51.3026 22.2395 51.3026C22.1266 51.3026 22.0336 51.2104 22.0336 51.0985Z" fill="#4C4C49"/>
<path d="M24.578 51.0985C24.578 50.9866 24.671 50.8944 24.7839 50.8944C24.8968 50.8944 24.9898 50.9866 24.9898 51.0985C24.9898 51.2104 24.8968 51.3026 24.7839 51.3026C24.671 51.3026 24.578 51.2104 24.578 51.0985Z" fill="#4C4C49"/>
<path d="M23.2958 52.2441C23.2958 52.1321 23.3888 52.04 23.5017 52.04C23.6146 52.04 23.7076 52.1321 23.7076 52.2441C23.7076 52.356 23.6146 52.4482 23.5017 52.4482C23.3888 52.4482 23.2958 52.356 23.2958 52.2441Z" fill="#4C4C49"/>
<path d="M24.1727 51.9149C24.1727 51.803 24.2657 51.7108 24.3786 51.7108C24.4916 51.7108 24.5845 51.803 24.5845 51.9149C24.5845 52.0268 24.4916 52.119 24.3786 52.119C24.2657 52.1256 24.1727 52.0334 24.1727 51.9149Z" fill="#4C4C49"/>
<path d="M10.6083 48.7151C10.6083 41.6506 16.3875 35.9225 23.5084 35.9225C30.636 35.9225 36.4085 41.6506 36.4085 48.7151C36.4085 50.6442 35.9767 52.468 35.2062 54.1074H34.9073C35.545 52.626 35.9037 50.9932 35.9037 49.2748C35.9037 42.4867 30.3504 36.9825 23.5018 36.9825C16.6532 36.9825 11.0999 42.4867 11.0999 49.2748C11.0999 50.9932 11.4586 52.626 12.0963 54.1074H11.7974C11.0401 52.468 10.6083 50.6442 10.6083 48.7151Z" fill="#12428E"/>
<path d="M19.3768 13.2736C19.3768 13.2736 20.9777 11.542 18.7989 10.9758C17.5567 10.6532 16.9522 11.1535 15.3115 11.7724L14.4081 12.1741C13.9431 12.3782 18.314 14.4389 18.314 14.4389L19.3768 13.2736Z" fill="#12428E"/>
<path d="M14.4079 12.1741L15.3113 11.7724C16.7726 11.2194 17.4103 10.7651 18.4067 10.8968C17.7691 11.035 17.138 11.4301 16.0951 11.8712L15.1784 12.3387C14.8861 12.4835 16.4737 13.4382 17.7292 14.1558C16.5468 13.583 14.0492 12.3321 14.4079 12.1741Z" fill="white"/>
<path d="M4.31759 43.5466L2.09229 43.415C2.09229 43.415 1.48116 43.3689 1.26195 43.7639L0.524617 45.2519C0.524617 45.2519 0.45819 45.4889 0.83018 45.4889C1.20217 45.4889 3.03555 45.4889 3.03555 45.4889C3.03555 45.4889 3.38097 45.5087 3.64668 45.3177C3.91238 45.1202 4.64972 43.8034 4.64972 43.8034C4.64972 43.8034 4.76265 43.5335 4.31759 43.5466Z" fill="#5D1707"/>
<path d="M3.26803 43.8364L1.7535 43.7508C1.7535 43.7508 1.33501 43.7245 1.18887 43.9879L0.68403 45.0018C0.68403 45.0018 0.637532 45.1664 0.889954 45.1664C1.14238 45.1664 2.3912 45.1664 2.3912 45.1664C2.3912 45.1664 2.63034 45.1796 2.80969 45.0479C2.98904 44.9162 3.49388 44.0208 3.49388 44.0208C3.49388 44.0208 3.54703 43.7969 3.26803 43.8364Z" fill="#E3301F"/>
<path d="M5.90526 29.5228C6.40346 29.8257 6.88838 30.2932 7.14744 30.8528C7.41315 31.4322 7.44637 32.084 7.38658 32.7226C7.34008 33.2625 7.24708 33.7958 7.16737 34.3291C7.08766 34.8756 7.00131 35.4155 6.89502 35.9554C6.80203 36.4426 6.70239 36.9364 6.54296 37.4104C6.43668 37.7199 6.31711 38.0293 6.07133 38.24C5.76577 38.5034 5.38049 38.6614 5.02179 38.826C4.56344 39.0367 4.09181 39.2276 3.62018 39.412C3.18841 39.5766 2.11229 40.1559 2.11229 39.886L3.54711 28.5221L3.85267 28.2456C3.89253 28.2653 3.9191 28.2785 3.95231 28.2982C4.17817 28.4167 4.40402 28.5484 4.61658 28.6867C5.04836 28.9566 5.46685 29.2529 5.90526 29.5228Z" fill="#DC4E14"/>
<path d="M7.25373 33.7498C7.22716 33.9473 7.19394 34.1382 7.16737 34.3292C7.08766 34.8757 7.00131 35.4155 6.89502 35.9554C6.80202 36.4426 6.70238 36.9364 6.54296 37.4105C6.43668 37.7199 6.31711 38.0294 6.07133 38.2401C5.76577 38.5034 5.38049 38.6614 5.02179 38.826C4.56344 39.0367 4.09181 39.2277 3.62018 39.412C3.18841 39.5766 2.11229 40.156 2.11229 39.886L2.88284 33.7564H7.25373V33.7498Z" fill="#DC4E14"/>
<path d="M3.90574 28.5616C3.90574 28.5616 6.96137 30.0693 7.02115 31.5705C7.08094 33.0716 6.05797 37.5948 6.05797 37.5948C6.05797 37.5948 5.99154 38.0227 5.46013 38.2598L6.41003 33.0979C6.41003 33.0979 6.84845 31.2347 5.7989 30.3656C4.756 29.4899 3.90574 28.5616 3.90574 28.5616Z" fill="#E3301F"/>
<path d="M14.4081 12.1741L17.9354 2.62082C17.9354 2.62082 20.0478 1.32378 21.3431 1.27111L18.0682 10.8837L14.4081 12.1741Z" fill="#363636"/>
<path opacity="0.3" d="M19.5629 9.34297L21.6819 2.17304C21.6819 2.17304 22.1934 1.00109 23.7943 0.652144C23.7943 0.652144 49.5546 -0.263027 60.0567 1.25787C60.0567 1.25787 27.6138 0.546801 24.412 2.38373C22.293 3.59517 20.8383 9.07303 20.8383 9.07303L19.5629 9.34297Z" fill="white"/>
<path d="M89.7294 19.6798L91.1443 29.2661L93.529 29.7269L92.1009 20.0156L89.7294 19.6798Z" fill="#222222"/>
<path opacity="0.3" d="M93.1767 20.6411C93.1767 20.6411 107.226 24.0714 115.157 27.5411C115.157 27.5411 117.104 31.8733 118.412 36.357C118.412 36.357 113.829 28.1073 110.262 26.7379C106.695 25.3684 93.1767 20.6411 93.1767 20.6411Z" fill="white"/>
</svg>
