<svg width="20" height="20" viewBox="0 0 20 20" fill="none" xmlns="http://www.w3.org/2000/svg">
<g clip-path="url(#clip0_2_36407)">
<path d="M18.1803 8.50495L16.4773 8.16432L15.6046 5.98248C15.4895 5.69188 15.2895 5.44271 15.0307 5.26745C14.7719 5.0922 14.4663 4.999 14.1537 5.00001H11.875C11.6264 5.00028 11.3881 5.09914 11.2124 5.2749C11.0366 5.45065 10.9378 5.68895 10.9375 5.93751V9.06251H1.25C1.00144 9.06278 0.763145 9.16164 0.587389 9.3374C0.411633 9.51315 0.312773 9.75145 0.3125 10V12.1875C0.312773 12.4361 0.411633 12.6744 0.587389 12.8501C0.763145 13.0259 1.00144 13.1247 1.25 13.125H1.5875C1.66212 13.6454 1.92187 14.1213 2.31908 14.4657C2.71629 14.81 3.22433 14.9995 3.75 14.9995C4.27567 14.9995 4.78371 14.81 5.18092 14.4657C5.57813 14.1213 5.83788 13.6454 5.9125 13.125H14.0875C14.1621 13.6454 14.4219 14.1213 14.8191 14.4657C15.2163 14.81 15.7243 14.9995 16.25 14.9995C16.7757 14.9995 17.2837 14.81 17.6809 14.4657C18.0781 14.1213 18.3379 13.6454 18.4125 13.125H18.75C18.9986 13.1247 19.2369 13.0259 19.4126 12.8501C19.5884 12.6744 19.6872 12.4361 19.6875 12.1875V10.3435C19.6865 9.91029 19.536 9.49072 19.2614 9.15572C18.9867 8.82071 18.6048 8.59083 18.1803 8.50495ZM3.75 14.375C3.44097 14.375 3.13887 14.2834 2.88192 14.1117C2.62497 13.94 2.4247 13.696 2.30644 13.4105C2.18818 13.1249 2.15723 12.8108 2.21752 12.5077C2.27781 12.2046 2.42663 11.9262 2.64515 11.7077C2.86367 11.4891 3.14208 11.3403 3.44517 11.28C3.74827 11.2197 4.06243 11.2507 4.34794 11.3689C4.63345 11.4872 4.87748 11.6875 5.04917 11.9444C5.22086 12.2014 5.3125 12.5035 5.3125 12.8125C5.31201 13.2268 5.14724 13.6239 4.85432 13.9168C4.5614 14.2097 4.16425 14.3745 3.75 14.375ZM10.9375 12.5H5.9125C5.83788 11.9797 5.57813 11.5037 5.18092 11.1594C4.78371 10.8151 4.27567 10.6255 3.75 10.6255C3.22433 10.6255 2.71629 10.8151 2.31908 11.1594C1.92187 11.5037 1.66212 11.9797 1.5875 12.5H1.25C1.16715 12.4999 1.08773 12.4669 1.02915 12.4084C0.970566 12.3498 0.937607 12.2704 0.9375 12.1875V10C0.937607 9.91716 0.970566 9.83774 1.02915 9.77916C1.08773 9.72057 1.16715 9.68762 1.25 9.68751H10.9375V12.5ZM12.8125 5.62501H14.1537C14.3413 5.62439 14.5246 5.6803 14.6799 5.78544C14.8351 5.89059 14.9551 6.04009 15.0241 6.21445L15.7883 8.12501H13.125C13.0422 8.1249 12.9627 8.09194 12.9041 8.03336C12.8456 7.97478 12.8126 7.89536 12.8125 7.81251V5.62501ZM16.25 14.375C15.941 14.375 15.6389 14.2834 15.3819 14.1117C15.125 13.94 14.9247 13.696 14.8064 13.4105C14.6882 13.1249 14.6572 12.8108 14.7175 12.5077C14.7778 12.2046 14.9266 11.9262 15.1451 11.7077C15.3637 11.4891 15.6421 11.3403 15.9452 11.28C16.2483 11.2197 16.5624 11.2507 16.8479 11.3689C17.1335 11.4872 17.3775 11.6875 17.5492 11.9444C17.7209 12.2014 17.8125 12.5035 17.8125 12.8125C17.812 13.2268 17.6472 13.6239 17.3543 13.9168C17.0614 14.2097 16.6643 14.3745 16.25 14.375ZM19.0625 12.1875C19.0624 12.2704 19.0294 12.3498 18.9709 12.4084C18.9123 12.4669 18.8328 12.4999 18.75 12.5H18.4125C18.3379 11.9797 18.0781 11.5037 17.6809 11.1594C17.2837 10.8151 16.7757 10.6255 16.25 10.6255C15.7243 10.6255 15.2163 10.8151 14.8191 11.1594C14.4219 11.5037 14.1621 11.9797 14.0875 12.5H11.5625V5.93751C11.5626 5.85466 11.5956 5.77524 11.6541 5.71666C11.7127 5.65807 11.7922 5.62512 11.875 5.62501H12.1875V7.81251C12.1878 8.06106 12.2866 8.29936 12.4624 8.47512C12.6381 8.65088 12.8764 8.74974 13.125 8.75001H16.2192L18.0577 9.11776C18.2636 9.15939 18.4556 9.25258 18.6157 9.3886C18.3813 9.42209 18.1683 9.54323 18.0197 9.72758C17.8711 9.91193 17.7979 10.1458 17.815 10.3819C17.832 10.6181 17.938 10.839 18.1115 11.0001C18.2851 11.1612 18.5132 11.2505 18.75 11.25H19.0625V12.1875ZM19.0625 10.625H18.75C18.6671 10.625 18.5876 10.5921 18.529 10.5335C18.4704 10.4749 18.4375 10.3954 18.4375 10.3125C18.4375 10.2296 18.4704 10.1501 18.529 10.0915C18.5876 10.0329 18.6671 10 18.75 10H19.0094C19.0432 10.1114 19.0611 10.2271 19.0625 10.3435V10.625Z" fill="black"/>
<path d="M16.25 11.875C16.0646 11.875 15.8833 11.93 15.7292 12.033C15.575 12.136 15.4548 12.2824 15.3839 12.4537C15.3129 12.625 15.2943 12.8135 15.3305 12.9954C15.3667 13.1773 15.456 13.3443 15.5871 13.4754C15.7182 13.6065 15.8852 13.6958 16.0671 13.732C16.249 13.7682 16.4375 13.7496 16.6088 13.6786C16.7801 13.6077 16.9265 13.4875 17.0295 13.3333C17.1325 13.1792 17.1875 12.9979 17.1875 12.8125C17.1872 12.5639 17.0884 12.3256 16.9126 12.1499C16.7369 11.9741 16.4986 11.8753 16.25 11.875ZM16.25 13.125C16.1882 13.125 16.1278 13.1067 16.0764 13.0723C16.025 13.038 15.9849 12.9892 15.9613 12.9321C15.9376 12.875 15.9314 12.8122 15.9435 12.7515C15.9556 12.6909 15.9853 12.6352 16.029 12.5915C16.0727 12.5478 16.1284 12.5181 16.189 12.506C16.2497 12.4939 16.3125 12.5001 16.3696 12.5238C16.4267 12.5474 16.4755 12.5875 16.5098 12.6389C16.5442 12.6903 16.5625 12.7507 16.5625 12.8125C16.5624 12.8953 16.5294 12.9748 16.4709 13.0334C16.4123 13.0919 16.3328 13.1249 16.25 13.125Z" fill="black"/>
<path d="M3.75 11.875C3.56458 11.875 3.38332 11.93 3.22915 12.033C3.07498 12.136 2.95482 12.2824 2.88386 12.4537C2.81291 12.625 2.79434 12.8135 2.83051 12.9954C2.86669 13.1773 2.95598 13.3443 3.08709 13.4754C3.2182 13.6065 3.38525 13.6958 3.5671 13.732C3.74896 13.7682 3.93746 13.7496 4.10877 13.6786C4.28007 13.6077 4.42649 13.4875 4.5295 13.3333C4.63252 13.1792 4.6875 12.9979 4.6875 12.8125C4.68723 12.5639 4.58837 12.3256 4.41261 12.1499C4.23686 11.9741 3.99856 11.8753 3.75 11.875ZM3.75 13.125C3.68819 13.125 3.62778 13.1067 3.57638 13.0723C3.52499 13.038 3.48494 12.9892 3.46129 12.9321C3.43764 12.875 3.43145 12.8122 3.44351 12.7515C3.45556 12.6909 3.48533 12.6352 3.52903 12.5915C3.57273 12.5478 3.62842 12.5181 3.68903 12.506C3.74965 12.4939 3.81249 12.5001 3.86959 12.5238C3.92669 12.5474 3.9755 12.5875 4.00983 12.6389C4.04417 12.6903 4.0625 12.7507 4.0625 12.8125C4.06239 12.8953 4.02943 12.9748 3.97085 13.0334C3.91227 13.0919 3.83285 13.1249 3.75 13.125Z" fill="black"/>
<path d="M13.75 9.375H13.125C13.0421 9.375 12.9626 9.40792 12.904 9.46653C12.8454 9.52513 12.8125 9.60462 12.8125 9.6875C12.8125 9.77038 12.8454 9.84987 12.904 9.90847C12.9626 9.96708 13.0421 10 13.125 10H13.75C13.8329 10 13.9124 9.96708 13.971 9.90847C14.0296 9.84987 14.0625 9.77038 14.0625 9.6875C14.0625 9.60462 14.0296 9.52513 13.971 9.46653C13.9124 9.40792 13.8329 9.375 13.75 9.375Z" fill="black"/>
<path fill-rule="evenodd" clip-rule="evenodd" d="M16.1518 3.60639C16.2134 3.76761 16.1326 3.94824 15.9714 4.00985L1.39464 9.57959C1.23342 9.64119 1.05279 9.56043 0.991184 9.39921C0.929582 9.23799 1.01034 9.05736 1.17156 8.99575L15.7483 3.42601C15.9095 3.36441 16.0902 3.44517 16.1518 3.60639Z" fill="black"/>
<path fill-rule="evenodd" clip-rule="evenodd" d="M15.6429 4.02619C15.7026 4.18812 15.6197 4.3678 15.4578 4.42751L1.49847 9.57517C1.33654 9.63489 1.15686 9.55202 1.09715 9.39009C1.03743 9.22816 1.1203 9.04849 1.28223 8.98877L15.2415 3.84112C15.4035 3.7814 15.5832 3.86426 15.6429 4.02619Z" fill="#424242"/>
</g>
<defs>
<clipPath id="clip0_2_36407">
<rect width="20" height="20" fill="white"/>
</clipPath>
</defs>
</svg>
