<svg width="20" height="20" viewBox="0 0 20 20" fill="none" xmlns="http://www.w3.org/2000/svg">
<path d="M18.2422 10V16.25C18.2401 17.0782 17.9102 17.8718 17.3246 18.4574C16.739 19.043 15.9454 19.3729 15.1172 19.375H10.625C10.4592 19.375 10.3003 19.3092 10.1831 19.1919C10.0658 19.0747 10 18.9158 10 18.75C10 18.5842 10.0658 18.4253 10.1831 18.3081C10.3003 18.1908 10.4592 18.125 10.625 18.125H15.1172C15.6138 18.1229 16.0896 17.9247 16.4407 17.5736C16.7919 17.2224 16.9901 16.7466 16.9922 16.25V16.1406C16.7917 16.2129 16.5803 16.2499 16.3672 16.25H15.1172C14.6199 16.25 14.143 16.0525 13.7914 15.7008C13.4397 15.3492 13.2422 14.8723 13.2422 14.375V11.25C13.2422 10.7527 13.4397 10.2758 13.7914 9.92418C14.143 9.57255 14.6199 9.375 15.1172 9.375H16.9609C16.8042 7.65798 16.0081 6.06252 14.7304 4.90489C13.4527 3.74726 11.7866 3.11199 10.0625 3.125H10.0547C8.32957 3.10836 6.66153 3.74239 5.38302 4.90072C4.10451 6.05905 3.30943 7.65662 3.15625 9.375H5C5.49665 9.37706 5.97237 9.57526 6.32355 9.92645C6.67474 10.2776 6.87294 10.7534 6.875 11.25V14.375C6.87294 14.8716 6.67474 15.3474 6.32355 15.6986C5.97237 16.0497 5.49665 16.2479 5 16.25H3.75C3.25335 16.2479 2.77763 16.0497 2.42645 15.6986C2.07526 15.3474 1.87706 14.8716 1.875 14.375V10C1.87498 8.92839 2.08693 7.86737 2.49867 6.87801C2.9104 5.88866 3.51378 4.99053 4.27406 4.23534C5.03434 3.48014 5.9365 2.8828 6.92859 2.47771C7.92068 2.07262 8.9831 1.86779 10.0547 1.875H10.1172C12.2714 1.87707 14.3369 2.73376 15.8601 4.25704C17.3834 5.78033 18.2401 7.84575 18.2422 10Z" fill="#7E8389"/>
</svg>
