<svg width="18" height="100" viewBox="0 0 18 100" fill="none" xmlns="http://www.w3.org/2000/svg">
<path fill-rule="evenodd" clip-rule="evenodd" d="M0 0H17.1997V1.41319H0V0ZM0 52.7009H17.1997V54.1141H0V52.7009ZM0 79.0498H17.1997V80.463H0V79.0498ZM0 98.5868H17.1997V100H0V98.5868ZM0 92.2893H17.1997V93.7025H0V92.2893ZM0 85.3472H17.1997V86.7604H0V85.3472ZM0 72.2379H17.1997V73.6511H0V72.2379ZM0 65.9405H17.1997V67.3537H0V65.9405ZM0 58.9984H17.1997V60.4116H0V58.9984ZM0 26.3521H17.1997V27.7652H0V26.3521ZM0 45.889H17.1997V47.3022H0V45.889ZM0 39.5884H17.1997V41.0016H0V39.5884ZM0 32.6495H17.1997V34.0627H0V32.6495ZM0 19.537H17.1997V20.9502H0V19.537ZM0 13.2395H17.1997V14.6527H0V13.2395ZM0 6.29744H17.1997V7.71063H0V6.29744Z" fill="#DFE3FA"/>
</svg>
