<svg width="20" height="20" viewBox="0 0 20 20" fill="none" xmlns="http://www.w3.org/2000/svg">
<g clip-path="url(#clip0_2_40819)">
<path d="M16.6666 6.66671H14.1666V3.33337H2.49992C1.58325 3.33337 0.833252 4.08337 0.833252 5.00004V14.1667H2.49992C2.49992 15.55 3.61659 16.6667 4.99992 16.6667C6.38325 16.6667 7.49992 15.55 7.49992 14.1667H12.4999C12.4999 15.55 13.6166 16.6667 14.9999 16.6667C16.3833 16.6667 17.4999 15.55 17.4999 14.1667H19.1666V10L16.6666 6.66671ZM16.2499 7.91671L17.8832 10H14.1666V7.91671H16.2499ZM4.99992 15C4.54158 15 4.16658 14.625 4.16658 14.1667C4.16658 13.7084 4.54158 13.3334 4.99992 13.3334C5.45825 13.3334 5.83325 13.7084 5.83325 14.1667C5.83325 14.625 5.45825 15 4.99992 15ZM6.84992 12.5C6.39158 11.9917 5.74158 11.6667 4.99992 11.6667C4.25825 11.6667 3.60825 11.9917 3.14992 12.5H2.49992V5.00004H12.4999V12.5H6.84992ZM14.9999 15C14.5416 15 14.1666 14.625 14.1666 14.1667C14.1666 13.7084 14.5416 13.3334 14.9999 13.3334C15.4583 13.3334 15.8333 13.7084 15.8333 14.1667C15.8333 14.625 15.4583 15 14.9999 15Z" fill="#2B6ED4"/>
</g>
<defs>
<clipPath id="clip0_2_40819">
<rect width="20" height="20" fill="white"/>
</clipPath>
</defs>
</svg>
