<svg width="24" height="24" viewBox="0 0 24 24" fill="none" xmlns="http://www.w3.org/2000/svg">
<g clip-path="url(#clip0_2_36412)">
<path d="M1.69764 22.3444C2.81656 22.6303 3.96529 22.7832 5.12004 22.8C7.32191 23.6129 9.653 24.0194 12 24C14.3471 24.0194 16.6782 23.6129 18.88 22.8C20.0346 22.7833 21.1832 22.6306 22.302 22.3452C22.4835 22.2983 22.6514 22.2094 22.7922 22.0858C22.9331 21.9621 23.043 21.8071 23.113 21.6333C23.183 21.4594 23.2113 21.2716 23.1955 21.0848C23.1797 20.8981 23.1203 20.7176 23.022 20.558C22.0596 19.0032 21.31 16.9052 20.7932 14.322C20.4524 12.4703 19.7139 10.7146 18.6285 9.17612C17.5432 7.63762 16.137 6.35296 14.5068 5.4108L15.72 2.3816C15.827 2.11689 15.8357 1.82265 15.7446 1.55208C15.6535 1.28151 15.4685 1.05247 15.2232 0.9064L13.806 0.0572C13.7732 0.037598 13.7376 0.0229093 13.7004 0.0136H13.6968C13.692 0.0136 13.6872 0.0136 13.6824 0.0136C13.6555 0.00626284 13.6279 0.00170568 13.6 0L10.4 0C10.3723 0.000919968 10.3447 0.00467275 10.3176 0.0112C10.3128 0.0112 10.308 0.0112 10.3032 0.0112H10.2996C10.2625 0.0205093 10.2269 0.035198 10.194 0.0548L8.77844 0.9064C8.53288 1.05215 8.34763 1.28101 8.25621 1.55153C8.16478 1.82205 8.17324 2.11637 8.28004 2.3812L9.49284 5.4104C7.86311 6.35244 6.45719 7.63689 5.37214 9.17511C4.28708 10.7133 3.54873 12.4687 3.20804 14.32C2.69124 16.9032 1.94164 19 0.979239 20.556C0.88099 20.7156 0.821575 20.896 0.805776 21.0827C0.789977 21.2695 0.818235 21.4573 0.888277 21.6311C0.958318 21.8049 1.06819 21.9599 1.20904 22.0835C1.34989 22.2071 1.5178 22.2959 1.69924 22.3428L1.69764 22.3444ZM9.19044 1.5924L10.1432 1.0208L10.412 2.0972C10.4337 2.1837 10.4837 2.26048 10.554 2.31534C10.6243 2.3702 10.7109 2.4 10.8 2.4C10.8328 2.40013 10.8655 2.3961 10.8972 2.388C10.9482 2.37528 10.9962 2.35263 11.0384 2.32136C11.0807 2.29009 11.1163 2.2508 11.1434 2.20574C11.1704 2.16068 11.1883 2.11073 11.1961 2.05875C11.2038 2.00677 11.2012 1.95378 11.1884 1.9028L10.912 0.8H13.088L12.812 1.9028C12.7993 1.95378 12.7967 2.00677 12.8044 2.05875C12.8122 2.11073 12.8301 2.16068 12.8571 2.20574C12.8841 2.2508 12.9198 2.29009 12.962 2.32136C13.0043 2.35263 13.0523 2.37528 13.1032 2.388C13.1349 2.39606 13.1674 2.4001 13.2 2.4C13.2891 2.39991 13.3757 2.37007 13.4459 2.31522C13.5161 2.26036 13.566 2.18363 13.5876 2.0972L13.8564 1.0208L14.8092 1.5924C14.891 1.64094 14.9527 1.71718 14.9831 1.8073C15.0135 1.89743 15.0105 1.99545 14.9748 2.0836L13.64 5.4236C13.5836 5.5092 13.2084 6 12 6C10.7916 6 10.4164 5.5092 10.36 5.4236L9.02484 2.0836C8.98913 1.99545 8.98621 1.89743 9.01659 1.8073C9.04697 1.71718 9.10865 1.64094 9.19044 1.5924ZM1.65964 20.9784C2.67244 19.342 3.45724 17.1556 3.99204 14.48C4.32313 12.7446 5.02109 11.0999 6.03923 9.6561C7.05736 8.21227 8.37217 7.00258 9.89564 6.108C10.1031 6.30616 10.3478 6.46115 10.6156 6.564C10.4214 6.7494 10.2667 6.97222 10.1609 7.21902C10.0551 7.46582 10.0004 7.73148 10 8V8.0736C9.73315 8.16796 9.50822 8.35363 9.36499 8.59779C9.22176 8.84196 9.16945 9.1289 9.21732 9.40789C9.26519 9.68689 9.41015 9.93999 9.62658 10.1224C9.843 10.3049 10.117 10.405 10.4 10.405C10.6831 10.405 10.9571 10.3049 11.1735 10.1224C11.3899 9.93999 11.5349 9.68689 11.5828 9.40789C11.6306 9.1289 11.5783 8.84196 11.4351 8.59779C11.2919 8.35363 11.0669 8.16796 10.8 8.0736V8C10.8 7.68174 10.9265 7.37652 11.1515 7.15147C11.3766 6.92643 11.6818 6.8 12 6.8C12.3183 6.8 12.6235 6.92643 12.8486 7.15147C13.0736 7.37652 13.2 7.68174 13.2 8V8.0736C12.9332 8.16796 12.7082 8.35363 12.565 8.59779C12.4218 8.84196 12.3695 9.1289 12.4173 9.40789C12.4652 9.68689 12.6101 9.93999 12.8266 10.1224C13.043 10.3049 13.317 10.405 13.6 10.405C13.8831 10.405 14.1571 10.3049 14.3735 10.1224C14.5899 9.93999 14.7349 9.68689 14.7828 9.40789C14.8306 9.1289 14.7783 8.84196 14.6351 8.59779C14.4919 8.35363 14.2669 8.16796 14 8.0736V8C14 7.73073 13.9453 7.46427 13.8393 7.21675C13.7333 6.96924 13.5781 6.74581 13.3832 6.56C13.6513 6.4572 13.8961 6.3019 14.1032 6.1032C15.6277 6.99795 16.9432 8.20826 17.9616 9.65301C18.98 11.0978 19.6777 12.7435 20.008 14.48C20.5428 17.1572 21.328 19.3436 22.3404 20.98C22.3731 21.0322 22.3929 21.0914 22.3983 21.1527C22.4037 21.214 22.3946 21.2757 22.3716 21.3328C22.3483 21.3915 22.3114 21.4439 22.2639 21.4856C22.2164 21.5274 22.1597 21.5572 22.0984 21.5728C21.0199 21.846 19.9126 21.9894 18.8 22C18.7458 21.9999 18.6922 22.0109 18.6424 22.0324C16.5175 22.8213 14.2667 23.2169 12 23.2C9.73341 23.2169 7.48262 22.8213 5.35764 22.0324C5.30788 22.0109 5.25424 21.9999 5.20004 22C4.08726 21.9889 2.9798 21.8448 1.90124 21.5708C1.84005 21.5552 1.78343 21.5253 1.73602 21.4836C1.6886 21.4418 1.65174 21.3895 1.62844 21.3308C1.60556 21.2737 1.59646 21.2121 1.60188 21.1509C1.6073 21.0896 1.62709 21.0305 1.65964 20.9784ZM10.8 9.2C10.8 9.27911 10.7766 9.35645 10.7326 9.42223C10.6887 9.48801 10.6262 9.53928 10.5531 9.56955C10.48 9.59983 10.3996 9.60775 10.322 9.59231C10.2444 9.57688 10.1731 9.53878 10.1172 9.48284C10.0613 9.4269 10.0232 9.35563 10.0077 9.27804C9.99229 9.20045 10.0002 9.12002 10.0305 9.04693C10.0608 8.97384 10.112 8.91137 10.1778 8.86741C10.2436 8.82346 10.3209 8.8 10.4 8.8C10.5061 8.8 10.6079 8.84214 10.6829 8.91716C10.7579 8.99217 10.8 9.09391 10.8 9.2ZM14 9.2C14 9.27911 13.9766 9.35645 13.9326 9.42223C13.8887 9.48801 13.8262 9.53928 13.7531 9.56955C13.68 9.59983 13.5996 9.60775 13.522 9.59231C13.4444 9.57688 13.3731 9.53878 13.3172 9.48284C13.2613 9.4269 13.2232 9.35563 13.2077 9.27804C13.1923 9.20045 13.2002 9.12002 13.2305 9.04693C13.2608 8.97384 13.312 8.91137 13.3778 8.86741C13.4436 8.82346 13.5209 8.8 13.6 8.8C13.7061 8.8 13.8079 8.84214 13.8829 8.91716C13.9579 8.99217 14 9.09391 14 9.2Z" fill="black"/>
<path d="M7.2599 10.4C7.322 10.4 7.38324 10.3856 7.43879 10.3578C7.49433 10.33 7.54264 10.2897 7.5799 10.24C7.6887 10.0968 7.79803 9.95976 7.9079 9.82883C7.97601 9.74735 8.00896 9.64216 7.99951 9.53639C7.99006 9.43062 7.93898 9.33294 7.8575 9.26483C7.77603 9.19672 7.67083 9.16377 7.56506 9.17322C7.45929 9.18267 7.36161 9.23375 7.2935 9.31523C7.1759 9.45603 7.05884 9.6027 6.9423 9.75523C6.89646 9.81447 6.86817 9.88539 6.86066 9.95992C6.85315 10.0344 6.86671 10.1096 6.89981 10.1768C6.93291 10.244 6.98421 10.3005 7.04787 10.34C7.11153 10.3795 7.185 10.4003 7.2599 10.4Z" fill="black"/>
<path d="M3.96398 19.178C4.01365 19.1952 4.06621 19.2024 4.11866 19.1992C4.17112 19.1961 4.22244 19.1826 4.26969 19.1596C4.31694 19.1366 4.35919 19.1045 4.39404 19.0652C4.42889 19.0259 4.45565 18.9801 4.47279 18.9304C4.92678 17.5766 5.28998 16.1941 5.55999 14.792C5.78505 13.6454 6.1862 12.5406 6.74918 11.5168C6.77529 11.4708 6.79201 11.4201 6.79839 11.3675C6.80476 11.315 6.80065 11.2618 6.7863 11.2109C6.77195 11.16 6.74765 11.1124 6.7148 11.0709C6.68194 11.0295 6.6412 10.995 6.59491 10.9694C6.54862 10.9437 6.49772 10.9276 6.44514 10.9218C6.39256 10.916 6.33936 10.9207 6.2886 10.9356C6.23785 10.9505 6.19056 10.9753 6.14946 11.0086C6.10836 11.0419 6.07428 11.083 6.04919 11.1296C5.44669 12.2256 5.01709 13.4081 4.77559 14.6352C4.51256 16.0021 4.15844 17.3499 3.71558 18.6696C3.6985 18.7193 3.69137 18.7719 3.69461 18.8243C3.69784 18.8767 3.71138 18.928 3.73445 18.9753C3.75752 19.0225 3.78966 19.0647 3.82905 19.0995C3.86843 19.1342 3.91428 19.1609 3.96398 19.178Z" fill="black"/>
</g>
<defs>
<clipPath id="clip0_2_36412">
<rect width="24" height="24" fill="white"/>
</clipPath>
</defs>
</svg>
