<svg width="20" height="20" viewBox="0 0 20 20" fill="none" xmlns="http://www.w3.org/2000/svg">
<g clip-path="url(#clip0_2_21882)">
<path d="M10.0002 1.66669C6.50016 1.66669 3.3335 4.35002 3.3335 8.50002C3.3335 11.15 5.37516 14.2667 9.45016 17.8584C9.76683 18.1334 10.2418 18.1334 10.5585 17.8584C14.6252 14.2667 16.6668 11.15 16.6668 8.50002C16.6668 4.35002 13.5002 1.66669 10.0002 1.66669ZM10.0002 10C9.0835 10 8.3335 9.25002 8.3335 8.33335C8.3335 7.41669 9.0835 6.66669 10.0002 6.66669C10.9168 6.66669 11.6668 7.41669 11.6668 8.33335C11.6668 9.25002 10.9168 10 10.0002 10Z" fill="#A0A8B1"/>
</g>
<defs>
<clipPath id="clip0_2_21882">
<rect width="20" height="20" fill="white"/>
</clipPath>
</defs>
</svg>
